<?xml version="1.0" standalone="no"?>
<!DOCTYPE svg PUBLIC "-//W3C//DTD SVG 1.1//EN" "http://www.w3.org/Graphics/SVG/1.1/DTD/svg11.dtd" >
<svg>
<metadata>
Created by FontForge 20090622 at Fri Jul 20 22:32:05 2012
 By ffonts
&#194;&#169; 1999 Digital Graphic Labs - All Rights Reserved
</metadata>
<defs>
<font id="TitleWave" horiz-adv-x="3370" >
  <font-face 
    font-family="Title Wave"
    font-weight="600"
    font-stretch="normal"
    units-per-em="4096"
    panose-1="2 11 6 0 5 3 2 2 2 4"
    ascent="3276"
    descent="-820"
    cap-height="2947"
    bbox="-184 -921.133 4392 4017"
    underline-thickness="0"
    underline-position="0"
    unicode-range="U+0020-U+2122"
  />
<missing-glyph 
d="M0 0v2947h1695v-2947h-1695zM256 2691v-2435h1183v2435h-1183z" />
    <glyph glyph-name=".notdef" 
d="M0 0v2947h1695v-2947h-1695zM256 2691v-2435h1183v2435h-1183z" />
    <glyph glyph-name="glyph1" horiz-adv-x="0" 
 />
    <glyph glyph-name="glyph2" horiz-adv-x="4096" 
 />
    <glyph glyph-name="space" unicode=" " horiz-adv-x="1400" 
 />
    <glyph glyph-name="A" unicode="A" horiz-adv-x="3245" 
d="M1752 2981l887 -2333l36 -95t38.5 -96t44.5 -94t53.5 -87.5t66.5 -77.5t82.5 -64.5t101 -48t124.5 -28.5v-57h-1388v57q68 4 117 17.5t81.5 34t51.5 46.5t26.5 55.5t6.5 61.5t-7.5 63.5t-16.5 62t-20 57.5l-251 648h-887l-228 -670q-18 -55 -21 -113.5t23 -111.5
t87.5 -93.5t172.5 -57.5v-57h-888v57q94 17 168 68.5t131 123t98 155t70 165.5l853 2412h387zM981 1300l726 -3l-376 1001z" />
    <glyph glyph-name="A" unicode="a" horiz-adv-x="3245" 
d="M1752 2981l887 -2333l36 -95t38.5 -96t44.5 -94t53.5 -87.5t66.5 -77.5t82.5 -64.5t101 -48t124.5 -28.5v-57h-1388v57q68 4 117 17.5t81.5 34t51.5 46.5t26.5 55.5t6.5 61.5t-7.5 63.5t-16.5 62t-20 57.5l-251 648h-887l-228 -670q-18 -55 -21 -113.5t23 -111.5
t87.5 -93.5t172.5 -57.5v-57h-888v57q94 17 168 68.5t131 123t98 155t70 165.5l853 2412h387zM981 1300l726 -3l-376 1001z" />
    <glyph glyph-name="B" unicode="B" horiz-adv-x="2945" 
d="M45 2947h1673q87 0 171.5 -14t163.5 -39.5t150.5 -63t133 -83.5t111 -100.5t84.5 -116t54 -128.5t19 -138q0 -153 -53 -266.5t-151 -197t-237 -141t-309 -100.5q260 -30 438.5 -100t289.5 -171.5t161.5 -229.5t54.5 -273q2 -69 -12 -140t-42 -139.5t-69.5 -132
t-94.5 -119.5t-117 -102.5t-137 -80t-154.5 -52t-169.5 -18.5l-1958 -1v57q116 -4 189 22t114.5 71.5t57 104.5t15.5 121v2195q0 52 -17 108.5t-50 103t-82 77t-113 30.5h-114v57zM1081 1434v-990q0 -60 17 -112t61 -90.5t118.5 -60.5t190.5 -22q55 0 111.5 5.5t111 19
t105.5 36.5t96 57.5t82 82.5t63.5 111.5t41 144t14.5 180.5q0 94 -18 171.5t-50 139.5t-77 110.5t-98 85t-113 61.5t-122.5 40.5t-126 22.5t-123.5 7h-284zM1081 2788v-1184h227q153 0 272 37t199 111.5t120 188t35 266.5q-2 51 -9.5 103t-23.5 102.5t-40 98t-57 89
t-76.5 76t-97.5 59.5t-120 39t-145 14h-284z" />
    <glyph glyph-name="B" unicode="b" horiz-adv-x="2945" 
d="M45 2947h1673q87 0 171.5 -14t163.5 -39.5t150.5 -63t133 -83.5t111 -100.5t84.5 -116t54 -128.5t19 -138q0 -153 -53 -266.5t-151 -197t-237 -141t-309 -100.5q260 -30 438.5 -100t289.5 -171.5t161.5 -229.5t54.5 -273q2 -69 -12 -140t-42 -139.5t-69.5 -132
t-94.5 -119.5t-117 -102.5t-137 -80t-154.5 -52t-169.5 -18.5l-1958 -1v57q116 -4 189 22t114.5 71.5t57 104.5t15.5 121v2195q0 52 -17 108.5t-50 103t-82 77t-113 30.5h-114v57zM1081 1434v-990q0 -60 17 -112t61 -90.5t118.5 -60.5t190.5 -22q55 0 111.5 5.5t111 19
t105.5 36.5t96 57.5t82 82.5t63.5 111.5t41 144t14.5 180.5q0 94 -18 171.5t-50 139.5t-77 110.5t-98 85t-113 61.5t-122.5 40.5t-126 22.5t-123.5 7h-284zM1081 2788v-1184h227q153 0 272 37t199 111.5t120 188t35 266.5q-2 51 -9.5 103t-23.5 102.5t-40 98t-57 89
t-76.5 76t-97.5 59.5t-120 39t-145 14h-284z" />
    <glyph glyph-name="C" unicode="C" horiz-adv-x="2945" 
d="M1718 2981q112 0 220 -15t216.5 -37.5l220 -48t230.5 -47.5q9 -1 31 12t45.5 35t42 48.5t18.5 52.5h80v-1047h-80q-43 235 -139 404t-227.5 277.5t-289 159t-322.5 47.5q-235 -4 -405 -101.5t-281 -268.5t-165.5 -405t-59.5 -511q-2 -166 18.5 -310t60.5 -265.5
t97.5 -221.5t129.5 -179t156.5 -137t177.5 -96.5t192.5 -57.5t203.5 -19q175 0 311 45.5t249 121t210.5 174.5l196.5 205v-261q-99 -141 -237 -248t-298 -179t-332 -107.5t-339 -33.5q-198 2 -369 38t-315 100.5t-261.5 154t-210 196.5t-159.5 228.5t-110 251.5t-62 264.5
t-15 267.5q4 151 33.5 296.5t83.5 280.5t131.5 256.5t178 225.5t223 188t266 143t307 91t347.5 32z" />
    <glyph glyph-name="C" unicode="c" horiz-adv-x="2945" 
d="M1718 2981q112 0 220 -15t216.5 -37.5l220 -48t230.5 -47.5q9 -1 31 12t45.5 35t42 48.5t18.5 52.5h80v-1047h-80q-43 235 -139 404t-227.5 277.5t-289 159t-322.5 47.5q-235 -4 -405 -101.5t-281 -268.5t-165.5 -405t-59.5 -511q-2 -166 18.5 -310t60.5 -265.5
t97.5 -221.5t129.5 -179t156.5 -137t177.5 -96.5t192.5 -57.5t203.5 -19q175 0 311 45.5t249 121t210.5 174.5l196.5 205v-261q-99 -141 -237 -248t-298 -179t-332 -107.5t-339 -33.5q-198 2 -369 38t-315 100.5t-261.5 154t-210 196.5t-159.5 228.5t-110 251.5t-62 264.5
t-15 267.5q4 151 33.5 296.5t83.5 280.5t131.5 256.5t178 225.5t223 188t266 143t307 91t347.5 32z" />
    <glyph glyph-name="D" unicode="D" horiz-adv-x="3460" 
d="M34 2947h1741q185 0 348.5 -35.5t303.5 -99.5t258 -153t213 -196.5t166.5 -230t120.5 -253t75 -266t28 -268.5q3 -128 -19.5 -258.5t-68 -256t-115 -243t-162 -221t-207.5 -189.5t-251.5 -147.5t-295 -95.5t-337.5 -34h-1787v68h103q50 0 97 29.5t84 74.5t59 99t22 105
v2207q0 74 -28 131.5t-72.5 96.5t-99 59t-108.5 20h-68v57zM1047 2753v-2252q0 -73 26.5 -134t82.5 -106.5t144.5 -72t212.5 -29.5q102 -2 202.5 11t195 44.5t181.5 82.5t162 125t136.5 173t106 225t70 281.5t27.5 343.5q2 126 -17 252.5t-58 246.5t-97.5 231t-137 207.5
t-176 175.5t-214 133.5t-251.5 83t-289 24.5q-77 -2 -153.5 -8.5t-153.5 -37.5z" />
    <glyph glyph-name="D" unicode="d" horiz-adv-x="3460" 
d="M34 2947h1741q185 0 348.5 -35.5t303.5 -99.5t258 -153t213 -196.5t166.5 -230t120.5 -253t75 -266t28 -268.5q3 -128 -19.5 -258.5t-68 -256t-115 -243t-162 -221t-207.5 -189.5t-251.5 -147.5t-295 -95.5t-337.5 -34h-1787v68h103q50 0 97 29.5t84 74.5t59 99t22 105
v2207q0 74 -28 131.5t-72.5 96.5t-99 59t-108.5 20h-68v57zM1047 2753v-2252q0 -73 26.5 -134t82.5 -106.5t144.5 -72t212.5 -29.5q102 -2 202.5 11t195 44.5t181.5 82.5t162 125t136.5 173t106 225t70 281.5t27.5 343.5q2 126 -17 252.5t-58 246.5t-97.5 231t-137 207.5
t-176 175.5t-214 133.5t-251.5 83t-289 24.5q-77 -2 -153.5 -8.5t-153.5 -37.5z" />
    <glyph glyph-name="E" unicode="E" horiz-adv-x="2390" 
d="M57 2947h2105l22 -671h-57q-8 94 -36 185.5t-77 164t-120 117.5t-165 45h-660v-1252h592q62 0 114.5 31.5t92.5 85t66 123.5t35 147h45v-865h-57q-4 77 -33.5 136.5t-74 100t-99.5 61.5t-112 21h-569v-910q0 -56 29.5 -111t75 -98.5t102.5 -71t112 -27.5h330
q94 0 181.5 40.5t157.5 113t118.5 173t65.5 219.5h57l-45 -715h-2196v67h57q68 0 124.5 24t97 66.5t63 101t22.5 127.5v2195q0 50 -15 104t-46 99.5t-78 75t-111 29.5h-114v68z" />
    <glyph glyph-name="E" unicode="e" horiz-adv-x="2390" 
d="M57 2947h2105l22 -671h-57q-8 94 -36 185.5t-77 164t-120 117.5t-165 45h-660v-1252h592q62 0 114.5 31.5t92.5 85t66 123.5t35 147h45v-865h-57q-4 77 -33.5 136.5t-74 100t-99.5 61.5t-112 21h-569v-910q0 -56 29.5 -111t75 -98.5t102.5 -71t112 -27.5h330
q94 0 181.5 40.5t157.5 113t118.5 173t65.5 219.5h57l-45 -715h-2196v67h57q68 0 124.5 24t97 66.5t63 101t22.5 127.5v2195q0 50 -15 104t-46 99.5t-78 75t-111 29.5h-114v68z" />
    <glyph glyph-name="F" unicode="F" horiz-adv-x="2305" 
d="M57 2947h2105l22 -671h-57q-8 94 -36 185.5t-77 164t-120 117.5t-165 45h-660v-1218h592q62 0 114.5 31.5t92.5 85t66 123.5t35 147h45v-865h-57q-4 77 -33.5 136.5t-74 100t-99.5 61.5t-112 21h-569v-944q0 -64 11.5 -136t44.5 -133t93 -101t159 -40h68v-57h-1388v57h57
q68 0 124.5 24t97 66.5t63 101t22.5 127.5v2195q0 50 -15 104t-46 99.5t-78 75t-111 29.5h-114v68z" />
    <glyph glyph-name="F" unicode="f" horiz-adv-x="2305" 
d="M57 2947h2105l22 -671h-57q-8 94 -36 185.5t-77 164t-120 117.5t-165 45h-660v-1218h592q62 0 114.5 31.5t92.5 85t66 123.5t35 147h45v-865h-57q-4 77 -33.5 136.5t-74 100t-99.5 61.5t-112 21h-569v-944q0 -64 11.5 -136t44.5 -133t93 -101t159 -40h68v-57h-1388v57h57
q68 0 124.5 24t97 66.5t63 101t22.5 127.5v2195q0 50 -15 104t-46 99.5t-78 75t-111 29.5h-114v68z" />
    <glyph glyph-name="G" unicode="G" horiz-adv-x="3245" 
d="M159 1479q0 169 32 323t91.5 291t144 256.5t189.5 218t228 175.5t260.5 130t286.5 80.5t304 27.5q128 0 241.5 -18.5t224.5 -45.5l225 -56t242 -51q27 -4 50.5 6t43.5 31t36.5 52.5t29.5 70.5h68v-843h-68q-28 75 -68 146t-90.5 136t-110.5 123t-127 106.5t-140.5 86.5
t-152 63.5t-160 37t-164.5 7.5q-104 -5 -198.5 -25t-178 -58t-156 -95t-133 -137t-108 -183.5t-81.5 -234.5t-54 -291t-24 -352q-2 -103 5.5 -213.5t28.5 -222t56.5 -220t88.5 -207t126 -182.5t168.5 -146t215.5 -99.5t267 -41.5q33 0 69.5 1.5t74 7.5t74.5 16.5t70 26.5
t61.5 38.5t49.5 52.5t32.5 68t11.5 85l1 505q0 53 -17.5 107t-54 97.5t-92 71t-132.5 27.5v68h1228v-57q-59 -8 -109 -34t-86.5 -62t-56.5 -78t-20 -83l-1 -801q-124 -51 -256.5 -90.5t-270 -66.5t-277 -42t-277.5 -16q-221 -2 -410.5 30.5t-348 94.5t-287 150t-228.5 195.5
t-173 231t-120.5 256.5t-70.5 273.5t-23 280.5z" />
    <glyph glyph-name="G" unicode="g" horiz-adv-x="3245" 
d="M159 1479q0 169 32 323t91.5 291t144 256.5t189.5 218t228 175.5t260.5 130t286.5 80.5t304 27.5q128 0 241.5 -18.5t224.5 -45.5l225 -56t242 -51q27 -4 50.5 6t43.5 31t36.5 52.5t29.5 70.5h68v-843h-68q-28 75 -68 146t-90.5 136t-110.5 123t-127 106.5t-140.5 86.5
t-152 63.5t-160 37t-164.5 7.5q-104 -5 -198.5 -25t-178 -58t-156 -95t-133 -137t-108 -183.5t-81.5 -234.5t-54 -291t-24 -352q-2 -103 5.5 -213.5t28.5 -222t56.5 -220t88.5 -207t126 -182.5t168.5 -146t215.5 -99.5t267 -41.5q33 0 69.5 1.5t74 7.5t74.5 16.5t70 26.5
t61.5 38.5t49.5 52.5t32.5 68t11.5 85l1 505q0 53 -17.5 107t-54 97.5t-92 71t-132.5 27.5v68h1228v-57q-59 -8 -109 -34t-86.5 -62t-56.5 -78t-20 -83l-1 -801q-124 -51 -256.5 -90.5t-270 -66.5t-277 -42t-277.5 -16q-221 -2 -410.5 30.5t-348 94.5t-287 150t-228.5 195.5
t-173 231t-120.5 256.5t-70.5 273.5t-23 280.5z" />
    <glyph glyph-name="H" unicode="H" horiz-adv-x="3545" 
d="M57 2947h1377v-57h-46q-54 0 -110.5 -14.5t-102.5 -50.5t-76 -98t-30 -156v-944h1389v933q0 90 -24.5 152.5t-64 102t-91 57.5t-105.5 18h-80v57h1377v-57h-22q-24 0 -51 -2t-55.5 -8t-57 -16.5t-54.5 -27.5t-49 -41.5t-39.5 -58t-26 -77.5t-9.5 -99v-2184q0 -54 19 -111
t56.5 -103t93 -75.5t127.5 -29.5h68v-57l-1365 1v67h57q85 0 142 29.5t91 76t48.5 103t14.5 110.5v1047h-1389v-1058q0 -73 24.5 -131.5t64.5 -100.5t91.5 -64.5t104.5 -22.5h80v-56h-1377v56h57q81 0 139 29t95.5 75t55 102.5t17.5 112.5v2207q0 53 -19 108t-56.5 99
t-92.5 72t-128 28h-68v57z" />
    <glyph glyph-name="H" unicode="h" horiz-adv-x="3545" 
d="M57 2947h1377v-57h-46q-54 0 -110.5 -14.5t-102.5 -50.5t-76 -98t-30 -156v-944h1389v933q0 90 -24.5 152.5t-64 102t-91 57.5t-105.5 18h-80v57h1377v-57h-22q-24 0 -51 -2t-55.5 -8t-57 -16.5t-54.5 -27.5t-49 -41.5t-39.5 -58t-26 -77.5t-9.5 -99v-2184q0 -54 19 -111
t56.5 -103t93 -75.5t127.5 -29.5h68v-57l-1365 1v67h57q85 0 142 29.5t91 76t48.5 103t14.5 110.5v1047h-1389v-1058q0 -73 24.5 -131.5t64.5 -100.5t91.5 -64.5t104.5 -22.5h80v-56h-1377v56h57q81 0 139 29t95.5 75t55 102.5t17.5 112.5v2207q0 53 -19 108t-56.5 99
t-92.5 72t-128 28h-68v57z" />
    <glyph glyph-name="I" unicode="I" horiz-adv-x="1495" 
d="M57 2947h1377v-57h-34q-103 0 -167 -31t-100.5 -80t-50 -110t-13.5 -120v-2196q0 -54 21.5 -107t62 -95t100 -68t135.5 -26h46v-57h-1377v57h34q94 0 157 27.5t101.5 74.5t55 109t16.5 130v2173q0 86 -30 146t-78 99t-106.5 56.5t-115.5 17.5h-34v57z" />
    <glyph glyph-name="I" unicode="i" horiz-adv-x="1495" 
d="M57 2947h1377v-57h-34q-103 0 -167 -31t-100.5 -80t-50 -110t-13.5 -120v-2196q0 -54 21.5 -107t62 -95t100 -68t135.5 -26h46v-57h-1377v57h34q94 0 157 27.5t101.5 74.5t55 109t16.5 130v2173q0 86 -30 146t-78 99t-106.5 56.5t-115.5 17.5h-34v57z" />
    <glyph glyph-name="J" unicode="J" horiz-adv-x="1710" 
d="M193 2947h1366v-68h-57q-57 0 -110 -10.5t-94.5 -45.5t-66.5 -103t-25 -183v-2344q0 -72 -9 -144.5t-27.5 -141.5t-48 -133.5t-70.5 -120.5t-94.5 -102t-120 -78t-147.5 -49t-177 -14q-106 2 -205 26t-183.5 82.5t-150.5 156t-108 247.5l57 34q4 -30 33 -69.5t71.5 -74.5
t93 -59.5t96.5 -24.5q56 0 116 21t110 71.5t82.5 133t32.5 205.5v2378q0 86 -24.5 151.5t-65.5 110.5t-94.5 68t-110.5 23h-69v57z" />
    <glyph glyph-name="J" unicode="j" horiz-adv-x="1710" 
d="M193 2947h1366v-68h-57q-57 0 -110 -10.5t-94.5 -45.5t-66.5 -103t-25 -183v-2344q0 -72 -9 -144.5t-27.5 -141.5t-48 -133.5t-70.5 -120.5t-94.5 -102t-120 -78t-147.5 -49t-177 -14q-106 2 -205 26t-183.5 82.5t-150.5 156t-108 247.5l57 34q4 -30 33 -69.5t71.5 -74.5
t93 -59.5t96.5 -24.5q56 0 116 21t110 71.5t82.5 133t32.5 205.5v2378q0 86 -24.5 151.5t-65.5 110.5t-94.5 68t-110.5 23h-69v57z" />
    <glyph glyph-name="K" unicode="K" horiz-adv-x="3330" 
d="M1434 2947v-57h-57q-68 0 -124.5 -21t-97 -60t-63.5 -96.5t-23 -129.5v-1036l820 842q50 52 85 105t56.5 98t31 76t9.5 40q0 48 -27 82.5t-68 56.5t-88.5 32.5t-89.5 10.5h-57v57h1229v-57q-82 0 -185 -32.5t-209 -87.5t-206 -127.5t-174 -150.5l-615 -649l1184 -1445
q48 -58 101.5 -114t115 -102t132 -79t151.5 -46v-56l-1353 -1v57q51 9 79.5 17.5t43.5 20t21.5 27t14.5 37.5q7 21 2 42t-16 41.5t-26 40l-28 36.5l-934 1138v-1070q0 -73 23 -133.5t63.5 -104t97 -68t124.5 -24.5h45v-57h-1354v57h34q69 0 127 20.5t101 59t67 93.5t24 123
v2264q0 72 -28.5 124t-73.5 85t-99.5 48.5t-105.5 15.5h-57v57h1377z" />
    <glyph glyph-name="K" unicode="k" horiz-adv-x="3330" 
d="M1434 2947v-57h-57q-68 0 -124.5 -21t-97 -60t-63.5 -96.5t-23 -129.5v-1036l820 842q50 52 85 105t56.5 98t31 76t9.5 40q0 48 -27 82.5t-68 56.5t-88.5 32.5t-89.5 10.5h-57v57h1229v-57q-82 0 -185 -32.5t-209 -87.5t-206 -127.5t-174 -150.5l-615 -649l1184 -1445
q48 -58 101.5 -114t115 -102t132 -79t151.5 -46v-56l-1353 -1v57q51 9 79.5 17.5t43.5 20t21.5 27t14.5 37.5q7 21 2 42t-16 41.5t-26 40l-28 36.5l-934 1138v-1070q0 -73 23 -133.5t63.5 -104t97 -68t124.5 -24.5h45v-57h-1354v57h34q69 0 127 20.5t101 59t67 93.5t24 123
v2264q0 72 -28.5 124t-73.5 85t-99.5 48.5t-105.5 15.5h-57v57h1377z" />
    <glyph glyph-name="L" unicode="L" horiz-adv-x="2475" 
d="M57 2947h1377v-57h-23q-90 0 -154.5 -24.5t-106 -69.5t-61.5 -107.5t-20 -139.5v-2105q0 -50 19.5 -99t56.5 -88t92 -63t128 -24h341q108 0 203 43t175 121t143 187t105 241l57 1l-102 -763h-2230v57q170 0 261.5 73t91.5 238v2215q0 72 -26.5 129t-68.5 96.5t-95 60.5
t-106 21h-57v57z" />
    <glyph glyph-name="L" unicode="l" horiz-adv-x="2475" 
d="M57 2947h1377v-57h-23q-90 0 -154.5 -24.5t-106 -69.5t-61.5 -107.5t-20 -139.5v-2105q0 -50 19.5 -99t56.5 -88t92 -63t128 -24h341q108 0 203 43t175 121t143 187t105 241l57 1l-102 -763h-2230v57q170 0 261.5 73t91.5 238v2215q0 72 -26.5 129t-68.5 96.5t-95 60.5
t-106 21h-57v57z" />
    <glyph glyph-name="M" unicode="M" horiz-adv-x="4010" 
d="M1206 2947l842 -1923l796 1923h956v-57q-72 -4 -133.5 -15t-108 -36.5t-78 -70.5t-44.5 -117l159 -2071q3 -39 7 -81.5t11 -84.5t18 -83t29 -79t43.5 -70.5t62 -58.5t84.5 -43t110 -23v-57h-1355v57q107 0 177 30.5t110.5 79t55 109.5t10.5 122l-136 1991l-967 -2389h-80
l-990 2287l-159 -1786q-2 -26 1 -58.5t12 -68t24.5 -73t39 -72t55 -65t73 -52.5t92.5 -34t112 -10v-78h-1001v78q56 -2 102 11.5t83.5 39t67.5 61t53.5 77.5t41 89t30 95t20 95t12.5 90l204 1911q-42 68 -89 124t-105.5 100t-133 76t-172.5 53v57h1058z" />
    <glyph glyph-name="M" unicode="m" horiz-adv-x="4010" 
d="M1206 2947l842 -1923l796 1923h956v-57q-72 -4 -133.5 -15t-108 -36.5t-78 -70.5t-44.5 -117l159 -2071q3 -39 7 -81.5t11 -84.5t18 -83t29 -79t43.5 -70.5t62 -58.5t84.5 -43t110 -23v-57h-1355v57q107 0 177 30.5t110.5 79t55 109.5t10.5 122l-136 1991l-967 -2389h-80
l-990 2287l-159 -1786q-2 -26 1 -58.5t12 -68t24.5 -73t39 -72t55 -65t73 -52.5t92.5 -34t112 -10v-78h-1001v78q56 -2 102 11.5t83.5 39t67.5 61t53.5 77.5t41 89t30 95t20 95t12.5 90l204 1911q-42 68 -89 124t-105.5 100t-133 76t-172.5 53v57h1058z" />
    <glyph glyph-name="N" unicode="N" horiz-adv-x="3545" 
d="M57 2947h1058l1798 -1889v1423q0 89 -35.5 164t-92.5 129.5t-128 85t-142 30.5h-46v57h1013v-57h-34q-68 0 -130 -32t-109 -86.5t-75 -126.5t-28 -153v-2525h-79l-2139 2263v-1741q0 -25 5 -57t16 -66.5t27.5 -69.5t39 -68t50.5 -62.5t63 -51t75.5 -34t87.5 -12.5h45v-68
h-1047v68h57q65 0 133.5 30t124.5 81t92.5 119t36.5 146l-4 1990l-145.5 142t-144 129t-158 107.5t-185.5 77.5v57z" />
    <glyph glyph-name="N" unicode="n" horiz-adv-x="3545" 
d="M57 2947h1058l1798 -1889v1423q0 89 -35.5 164t-92.5 129.5t-128 85t-142 30.5h-46v57h1013v-57h-34q-68 0 -130 -32t-109 -86.5t-75 -126.5t-28 -153v-2525h-79l-2139 2263v-1741q0 -25 5 -57t16 -66.5t27.5 -69.5t39 -68t50.5 -62.5t63 -51t75.5 -34t87.5 -12.5h45v-68
h-1047v68h57q65 0 133.5 30t124.5 81t92.5 119t36.5 146l-4 1990l-145.5 142t-144 129t-158 107.5t-185.5 77.5v57z" />
    <glyph glyph-name="O" unicode="O" 
d="M1672 2981q201 0 373.5 -35.5t318.5 -100t265 -154t213 -197.5t163 -231.5t114.5 -255t67.5 -268.5t21 -271q0 -135 -22.5 -271.5t-68 -268t-114.5 -254.5t-163.5 -231t-214.5 -196.5t-266.5 -151.5t-320.5 -96.5t-377 -31.5q-192 2 -359 38t-309.5 100.5t-260.5 153
t-212 196t-164.5 229t-116.5 251.5t-69 264.5t-22 268.5q0 134 22.5 270.5t67.5 268t114 255t162 231.5t211.5 198t263 154.5t315 100t368.5 35.5zM1672 2822q-130 0 -234.5 -35t-187.5 -97t-145.5 -146t-107.5 -182.5t-75 -207t-48 -219t-25 -218t-7 -204.5
q0 -100 5.5 -213t20.5 -229.5t42 -231.5t70 -219.5t104.5 -193.5t146 -154.5t194 -101.5t247.5 -34q143 2 255 39t197 99.5t146 147.5t103.5 184t68 207.5t39 219t18 218.5t4.5 206q0 99 -6.5 211t-23.5 226.5t-46.5 228t-74 216.5t-107 191.5t-145.5 153t-189 101.5
t-239 37z" />
    <glyph glyph-name="O" unicode="o" 
d="M1672 2981q201 0 373.5 -35.5t318.5 -100t265 -154t213 -197.5t163 -231.5t114.5 -255t67.5 -268.5t21 -271q0 -135 -22.5 -271.5t-68 -268t-114.5 -254.5t-163.5 -231t-214.5 -196.5t-266.5 -151.5t-320.5 -96.5t-377 -31.5q-192 2 -359 38t-309.5 100.5t-260.5 153
t-212 196t-164.5 229t-116.5 251.5t-69 264.5t-22 268.5q0 134 22.5 270.5t67.5 268t114 255t162 231.5t211.5 198t263 154.5t315 100t368.5 35.5zM1672 2822q-130 0 -234.5 -35t-187.5 -97t-145.5 -146t-107.5 -182.5t-75 -207t-48 -219t-25 -218t-7 -204.5
q0 -100 5.5 -213t20.5 -229.5t42 -231.5t70 -219.5t104.5 -193.5t146 -154.5t194 -101.5t247.5 -34q143 2 255 39t197 99.5t146 147.5t103.5 184t68 207.5t39 219t18 218.5t4.5 206q0 99 -6.5 211t-23.5 226.5t-46.5 228t-74 216.5t-107 191.5t-145.5 153t-189 101.5
t-239 37z" />
    <glyph glyph-name="P" unicode="P" horiz-adv-x="2600" 
d="M34 2947h1650q102 0 191 -19t165 -53t139 -81.5t113.5 -105.5t87.5 -123.5t62 -136t37.5 -144t12.5 -145.5q0 -75 -15 -150t-45.5 -147.5t-78 -140.5t-112.5 -127t-148.5 -108t-186.5 -84t-226.5 -54.5t-268.5 -19.5q-92 0 -182.5 13t-181.5 22v-933q0 -18 1.5 -42t7 -52
t15.5 -58t27 -59t42 -54.5t60 -45t81.5 -31t106.5 -11.5h46l3 -56h-1403v55h45q64 0 120.5 18.5t98 54.5t65.5 86.5t24 114.5v2253q0 85 -29.5 144t-75 95t-102 52t-112.5 16h-34v57zM1047 2765v-1263q51 -17 107.5 -18.5t108.5 -4.5q72 -4 136.5 10.5t119.5 44.5t101.5 73
t84 94.5t66 110t47.5 119.5t28 122.5t9 119.5q-1 55 -10.5 110.5t-29 109.5t-48 105t-67 95.5t-86.5 81t-105.5 62.5t-124.5 39.5t-144 11.5q-48 -1 -96.5 -9t-96.5 -14z" />
    <glyph glyph-name="P" unicode="p" horiz-adv-x="2600" 
d="M34 2947h1650q102 0 191 -19t165 -53t139 -81.5t113.5 -105.5t87.5 -123.5t62 -136t37.5 -144t12.5 -145.5q0 -75 -15 -150t-45.5 -147.5t-78 -140.5t-112.5 -127t-148.5 -108t-186.5 -84t-226.5 -54.5t-268.5 -19.5q-92 0 -182.5 13t-181.5 22v-933q0 -18 1.5 -42t7 -52
t15.5 -58t27 -59t42 -54.5t60 -45t81.5 -31t106.5 -11.5h46l3 -56h-1403v55h45q64 0 120.5 18.5t98 54.5t65.5 86.5t24 114.5v2253q0 85 -29.5 144t-75 95t-102 52t-112.5 16h-34v57zM1047 2765v-1263q51 -17 107.5 -18.5t108.5 -4.5q72 -4 136.5 10.5t119.5 44.5t101.5 73
t84 94.5t66 110t47.5 119.5t28 122.5t9 119.5q-1 55 -10.5 110.5t-29 109.5t-48 105t-67 95.5t-86.5 81t-105.5 62.5t-124.5 39.5t-144 11.5q-48 -1 -96.5 -9t-96.5 -14z" />
    <glyph glyph-name="Q" unicode="Q" 
d="M1672 2981q201 0 373.5 -35.5t318.5 -100t265 -154t213 -197.5t163 -231.5t114.5 -255t67.5 -268.5t21 -271q0 -107 -14 -215.5t-42.5 -214.5t-72 -208.5t-102 -197.5t-132.5 -181.5t-165 -160.5t-197.5 -134t-230.5 -102q68 -34 133 -79.5l131.5 -88t136 -72
t146.5 -29.5q40 0 78.5 13.5t74 34.5t69 47.5t62.5 52.5l57 -34l-39 -64.5t-50.5 -76.5t-63.5 -82.5t-78.5 -82.5t-95 -75.5t-113 -62t-133.5 -42t-155 -15.5q-97 0 -198 25t-202.5 67t-202 97.5t-195 115l-181.5 119.5l-162 112.5l-136.5 93t-105.5 62.5
q-111 46 -208.5 108t-180.5 136t-151.5 158t-123.5 176.5t-95.5 190.5t-68 199.5t-40.5 204.5t-13 205q0 134 22.5 270t67.5 267.5t114 255t162 232t211.5 198.5t262.5 154.5t315 100t369 35.5zM1672 2822q-130 0 -234.5 -35t-187.5 -97t-145.5 -146t-107.5 -182.5t-75 -207
t-48 -219t-25 -218t-7 -204.5q0 -100 5.5 -213t20.5 -229.5t42 -231.5t70 -219.5t104.5 -193.5t146 -154.5t194 -101.5t247.5 -34q143 2 255 39t197 99.5t146 147.5t103.5 184t68 207.5t39 219t18 218.5t4.5 206q0 99 -6.5 211t-23.5 226.5t-46.5 228t-74 216.5t-107 191.5
t-145.5 153t-189 101.5t-239 37z" />
    <glyph glyph-name="Q" unicode="q" 
d="M1672 2981q201 0 373.5 -35.5t318.5 -100t265 -154t213 -197.5t163 -231.5t114.5 -255t67.5 -268.5t21 -271q0 -107 -14 -215.5t-42.5 -214.5t-72 -208.5t-102 -197.5t-132.5 -181.5t-165 -160.5t-197.5 -134t-230.5 -102q68 -34 133 -79.5l131.5 -88t136 -72
t146.5 -29.5q40 0 78.5 13.5t74 34.5t69 47.5t62.5 52.5l57 -34l-39 -64.5t-50.5 -76.5t-63.5 -82.5t-78.5 -82.5t-95 -75.5t-113 -62t-133.5 -42t-155 -15.5q-97 0 -198 25t-202.5 67t-202 97.5t-195 115l-181.5 119.5l-162 112.5l-136.5 93t-105.5 62.5
q-111 46 -208.5 108t-180.5 136t-151.5 158t-123.5 176.5t-95.5 190.5t-68 199.5t-40.5 204.5t-13 205q0 134 22.5 270t67.5 267.5t114 255t162 232t211.5 198.5t262.5 154.5t315 100t369 35.5zM1672 2822q-130 0 -234.5 -35t-187.5 -97t-145.5 -146t-107.5 -182.5t-75 -207
t-48 -219t-25 -218t-7 -204.5q0 -100 5.5 -213t20.5 -229.5t42 -231.5t70 -219.5t104.5 -193.5t146 -154.5t194 -101.5t247.5 -34q143 2 255 39t197 99.5t146 147.5t103.5 184t68 207.5t39 219t18 218.5t4.5 206q0 99 -6.5 211t-23.5 226.5t-46.5 228t-74 216.5t-107 191.5
t-145.5 153t-189 101.5t-239 37z" />
    <glyph glyph-name="R" unicode="R" horiz-adv-x="3245" 
d="M57 2947h1615q74 0 152.5 -12.5t157 -36.5t154 -60.5t142.5 -84.5t122.5 -107.5t95 -130.5t60 -154t15.5 -177q-4 -109 -34.5 -210.5t-95.5 -189t-169 -159.5t-258 -123q90 -68 163.5 -149.5t136 -170.5t117 -184l106.5 -190l60.5 -110l69.5 -120.5l77 -123.5t82 -118.5
t85.5 -105.5t88 -85t88.5 -56.5t86 -20.5v-68l-939 -1q-56 80 -110 183t-107 215l-107.5 228t-112.5 225t-120.5 205t-132.5 167.5t-148 113t-168 41.5h-148v-1036q0 -55 22 -106.5t60.5 -91t90 -63t111.5 -23.5h69v-57h-1377v67h57q55 0 110 14.5t99 49t71 91.5t27 142
v2219q0 77 -26 134.5t-68.5 96t-95 57.5t-106.5 19h-68v57zM1069 2788v-1241h205q92 0 167.5 15t136.5 42t108.5 64t83 82t60.5 96t40 105t22.5 110.5t7.5 111.5q1 55 -6.5 110t-24 108.5t-42.5 103.5t-62.5 94t-84 80.5t-107 63t-131 41t-156.5 14.5h-217z" />
    <glyph glyph-name="R" unicode="r" horiz-adv-x="3245" 
d="M57 2947h1615q74 0 152.5 -12.5t157 -36.5t154 -60.5t142.5 -84.5t122.5 -107.5t95 -130.5t60 -154t15.5 -177q-4 -109 -34.5 -210.5t-95.5 -189t-169 -159.5t-258 -123q90 -68 163.5 -149.5t136 -170.5t117 -184l106.5 -190l60.5 -110l69.5 -120.5l77 -123.5t82 -118.5
t85.5 -105.5t88 -85t88.5 -56.5t86 -20.5v-68l-939 -1q-56 80 -110 183t-107 215l-107.5 228t-112.5 225t-120.5 205t-132.5 167.5t-148 113t-168 41.5h-148v-1036q0 -55 22 -106.5t60.5 -91t90 -63t111.5 -23.5h69v-57h-1377v67h57q55 0 110 14.5t99 49t71 91.5t27 142
v2219q0 77 -26 134.5t-68.5 96t-95 57.5t-106.5 19h-68v57zM1069 2788v-1241h205q92 0 167.5 15t136.5 42t108.5 64t83 82t60.5 96t40 105t22.5 110.5t7.5 111.5q1 55 -6.5 110t-24 108.5t-42.5 103.5t-62.5 94t-84 80.5t-107 63t-131 41t-156.5 14.5h-217z" />
    <glyph glyph-name="S" unicode="S" horiz-adv-x="2085" 
d="M1058 2981q66 0 131.5 -12.5t130.5 -28l130 -30.5t131 -20q52 -4 81.5 18t55.5 73h68v-762h-79q-60 183 -130.5 295t-154 175.5t-180 88t-207.5 32.5q-37 3 -76.5 -2.5t-79 -18t-78 -32.5t-71.5 -46t-61 -58.5t-46.5 -70.5t-27 -80.5t-4.5 -89.5q9 -87 49 -162.5
t102 -142t142.5 -126.5t169.5 -117.5l182.5 -114l182.5 -115.5t168.5 -122.5t141.5 -134.5q54 -63 99.5 -126t79.5 -132.5t53 -149t19 -173.5q0 -79 -16 -156t-47.5 -149.5t-77.5 -139t-106.5 -124t-136 -105t-164 -81.5t-191 -53t-217.5 -21q-44 -1 -91.5 3.5t-96.5 12.5
t-98.5 17.5t-97 20.5l-92.5 21.5t-84.5 18.5t-73.5 13t-60 5q-42 0 -80.5 -25.5t-56.5 -75.5h-68l11 841h92q2 -64 19.5 -128.5t48 -127t73.5 -120.5t96 -109t114.5 -92.5t129.5 -70.5t141.5 -44t150.5 -13q81 2 165.5 34.5t154.5 88.5t117 132t53 166q4 72 -27 139.5
t-87 130.5t-132.5 123.5t-164 120l-181 118l-183.5 119t-172 122.5t-146 128q-113 117 -176 257t-63 289q0 64 13 136.5t39.5 148t67 150.5t95.5 143t125 126.5t155 102t186 68t218 24.5z" />
    <glyph glyph-name="S" unicode="s" horiz-adv-x="2085" 
d="M1058 2981q66 0 131.5 -12.5t130.5 -28l130 -30.5t131 -20q52 -4 81.5 18t55.5 73h68v-762h-79q-60 183 -130.5 295t-154 175.5t-180 88t-207.5 32.5q-37 3 -76.5 -2.5t-79 -18t-78 -32.5t-71.5 -46t-61 -58.5t-46.5 -70.5t-27 -80.5t-4.5 -89.5q9 -87 49 -162.5
t102 -142t142.5 -126.5t169.5 -117.5l182.5 -114l182.5 -115.5t168.5 -122.5t141.5 -134.5q54 -63 99.5 -126t79.5 -132.5t53 -149t19 -173.5q0 -79 -16 -156t-47.5 -149.5t-77.5 -139t-106.5 -124t-136 -105t-164 -81.5t-191 -53t-217.5 -21q-44 -1 -91.5 3.5t-96.5 12.5
t-98.5 17.5t-97 20.5l-92.5 21.5t-84.5 18.5t-73.5 13t-60 5q-42 0 -80.5 -25.5t-56.5 -75.5h-68l11 841h92q2 -64 19.5 -128.5t48 -127t73.5 -120.5t96 -109t114.5 -92.5t129.5 -70.5t141.5 -44t150.5 -13q81 2 165.5 34.5t154.5 88.5t117 132t53 166q4 72 -27 139.5
t-87 130.5t-132.5 123.5t-164 120l-181 118l-183.5 119t-172 122.5t-146 128q-113 117 -176 257t-63 289q0 64 13 136.5t39.5 148t67 150.5t95.5 143t125 126.5t155 102t186 68t218 24.5z" />
    <glyph glyph-name="T" unicode="T" horiz-adv-x="2820" 
d="M68 2298l11 695q29 -6 57 -14l56.5 -15.5t57 -12t57.5 -4.5h2219q21 0 45 4.5t49 12l50 15.5t49 14l23 -695h-57q-8 94 -36.5 178.5t-74 148.5t-106.5 102t-136 38h-603v-2389q0 -57 20 -114t60.5 -102.5t102.5 -74t147 -28.5h34v-56h-1388v67h91q64 0 116.5 24t90 64.5
t58 94t20.5 113.5v2401h-614q-36 0 -68 -13t-59.5 -36t-52 -54t-45 -66.5t-37 -74.5t-29.5 -78t-23 -76t-17 -69h-68z" />
    <glyph glyph-name="T" unicode="t" horiz-adv-x="2820" 
d="M68 2298l11 695q29 -6 57 -14l56.5 -15.5t57 -12t57.5 -4.5h2219q21 0 45 4.5t49 12l50 15.5t49 14l23 -695h-57q-8 94 -36.5 178.5t-74 148.5t-106.5 102t-136 38h-603v-2389q0 -57 20 -114t60.5 -102.5t102.5 -74t147 -28.5h34v-56h-1388v67h91q64 0 116.5 24t90 64.5
t58 94t20.5 113.5v2401h-614q-36 0 -68 -13t-59.5 -36t-52 -54t-45 -66.5t-37 -74.5t-29.5 -78t-23 -76t-17 -69h-68z" />
    <glyph glyph-name="U" unicode="U" horiz-adv-x="3500" 
d="M11 2947h1376l1 -57h-45q-64 0 -122 -19t-101.5 -56.5t-69.5 -93t-26 -127.5v-1525q0 -89 16 -168.5t44 -148t68 -126t88.5 -104t104 -81.5t115.5 -58t122.5 -33.5t124.5 -8.5q65 2 130 15t127 37t119 59.5t107 83t91 107t70 132t45 157.5t16 183v1479q0 81 -28 137.5
t-72 91.5t-99 51t-108 16h-57v57h1377v-57h-46q-54 0 -109 -14.5t-99 -49.5t-71.5 -94.5t-27.5 -148.5v-2219q0 -85 28 -145.5t77 -99t116 -56.5t143 -18v-45h-1024v557q-85 -157 -196.5 -272t-240 -188t-269 -105t-284.5 -25q-85 4 -175.5 18.5t-180 41.5t-175.5 71
t-163 107t-141.5 147t-111.5 193t-73 245t-26 302v1457q0 98 -28.5 163.5t-73.5 105t-102 56t-115 16.5h-46v57z" />
    <glyph glyph-name="U" unicode="u" horiz-adv-x="3500" 
d="M11 2947h1376l1 -57h-45q-64 0 -122 -19t-101.5 -56.5t-69.5 -93t-26 -127.5v-1525q0 -89 16 -168.5t44 -148t68 -126t88.5 -104t104 -81.5t115.5 -58t122.5 -33.5t124.5 -8.5q65 2 130 15t127 37t119 59.5t107 83t91 107t70 132t45 157.5t16 183v1479q0 81 -28 137.5
t-72 91.5t-99 51t-108 16h-57v57h1377v-57h-46q-54 0 -109 -14.5t-99 -49.5t-71.5 -94.5t-27.5 -148.5v-2219q0 -85 28 -145.5t77 -99t116 -56.5t143 -18v-45h-1024v557q-85 -157 -196.5 -272t-240 -188t-269 -105t-284.5 -25q-85 4 -175.5 18.5t-180 41.5t-175.5 71
t-163 107t-141.5 147t-111.5 193t-73 245t-26 302v1457q0 98 -28.5 163.5t-73.5 105t-102 56t-115 16.5h-46v57z" />
    <glyph glyph-name="V" unicode="V" horiz-adv-x="3030" 
d="M1400 2947v-57l-76 -9t-77 -21t-57 -48.5t-18 -92.5q2 -22 5 -45l6 -46l615 -1581l478 1365l11 58t11 61.5t8.5 58.5t3.5 49q0 51 -24 96.5t-64.5 80t-94 54.5t-113.5 20v57h944v-57q-76 -8 -146 -43.5t-127.5 -88.5t-101 -119t-68.5 -136l-911 -2536h-68l-1001 2548
q-28 70 -67.5 136t-96.5 118t-134.5 84.5t-179.5 36.5v57h1343z" />
    <glyph glyph-name="V" unicode="v" horiz-adv-x="3030" 
d="M1400 2947v-57l-76 -9t-77 -21t-57 -48.5t-18 -92.5q2 -22 5 -45l6 -46l615 -1581l478 1365l11 58t11 61.5t8.5 58.5t3.5 49q0 51 -24 96.5t-64.5 80t-94 54.5t-113.5 20v57h944v-57q-76 -8 -146 -43.5t-127.5 -88.5t-101 -119t-68.5 -136l-911 -2536h-68l-1001 2548
q-28 70 -67.5 136t-96.5 118t-134.5 84.5t-179.5 36.5v57h1343z" />
    <glyph glyph-name="W" unicode="W" horiz-adv-x="4435" 
d="M1377 2947v-57q-39 -4 -85 -14t-86.5 -32.5t-69 -60.5t-33.5 -98q-2 -28 0.5 -57.5t11.5 -56.5l455 -1411l535 1536q-26 60 -62 98t-80.5 59.5t-97.5 29t-113 7.5v57h1320v-28.5v-28.5q-43 0 -89 -4t-84.5 -21t-63.5 -51.5t-25 -94.5q0 -37 5.5 -74.5t17.5 -73.5
l467 -1376l443 1308q6 19 11 41.5t8 44.5t4 41.5t0 31.5q-4 60 -24 101.5t-57.5 68.5t-93 40.5t-132.5 17.5v57h933v-57q-68 -4 -138.5 -43t-132.5 -98.5t-111 -133t-73 -146.5l-842 -2491h-68l-820 2446l-842 -2434h-68l-864 2570q-20 57 -53.5 115.5t-78.5 106.5
t-101.5 78t-120.5 30h-56v57h1354z" />
    <glyph glyph-name="W" unicode="w" horiz-adv-x="4435" 
d="M1377 2947v-57q-39 -4 -85 -14t-86.5 -32.5t-69 -60.5t-33.5 -98q-2 -28 0.5 -57.5t11.5 -56.5l455 -1411l535 1536q-26 60 -62 98t-80.5 59.5t-97.5 29t-113 7.5v57h1320v-28.5v-28.5q-43 0 -89 -4t-84.5 -21t-63.5 -51.5t-25 -94.5q0 -37 5.5 -74.5t17.5 -73.5
l467 -1376l443 1308q6 19 11 41.5t8 44.5t4 41.5t0 31.5q-4 60 -24 101.5t-57.5 68.5t-93 40.5t-132.5 17.5v57h933v-57q-68 -4 -138.5 -43t-132.5 -98.5t-111 -133t-73 -146.5l-842 -2491h-68l-820 2446l-842 -2434h-68l-864 2570q-20 57 -53.5 115.5t-78.5 106.5
t-101.5 78t-120.5 30h-56v57h1354z" />
    <glyph glyph-name="X" unicode="X" horiz-adv-x="3410" 
d="M1615 2947v-57h-56q-36 0 -72.5 -10.5t-66 -32t-48 -53.5t-18.5 -75q0 -39 10 -74.5t24 -73.5l467 -694l409 547q24 32 46.5 67.5t39 73.5t24.5 77t4 77q-8 78 -73.5 116t-177.5 55v57h1070v-57q-85 -13 -165.5 -38t-153.5 -62.5t-136 -89t-114 -117.5l-671 -876
l774 -1184q53 -80 120.5 -161.5t147 -146.5t169.5 -106t188 -41v-67h-1618l3 56q81 0 143 7.5t105.5 29t69.5 59t34 97.5q4 27 -3.5 53t-20.5 52t-28.5 51t-26.5 49l-478 694l-523 -694q-12 -25 -28.5 -50t-31 -50t-24 -51t-7.5 -54q4 -55 23 -87.5t52 -53t80 -33.5t106 -31
v-45h-1138v57q94 4 197 40.5t202 95t187.5 135t153.5 161.5l649 842l-833 1242q-50 75 -105 134t-112 99.5t-113.5 62t-110.5 21.5h-69v57h1524z" />
    <glyph glyph-name="X" unicode="x" horiz-adv-x="3410" 
d="M1615 2947v-57h-56q-36 0 -72.5 -10.5t-66 -32t-48 -53.5t-18.5 -75q0 -39 10 -74.5t24 -73.5l467 -694l409 547q24 32 46.5 67.5t39 73.5t24.5 77t4 77q-8 78 -73.5 116t-177.5 55v57h1070v-57q-85 -13 -165.5 -38t-153.5 -62.5t-136 -89t-114 -117.5l-671 -876
l774 -1184q53 -80 120.5 -161.5t147 -146.5t169.5 -106t188 -41v-67h-1618l3 56q81 0 143 7.5t105.5 29t69.5 59t34 97.5q4 27 -3.5 53t-20.5 52t-28.5 51t-26.5 49l-478 694l-523 -694q-12 -25 -28.5 -50t-31 -50t-24 -51t-7.5 -54q4 -55 23 -87.5t52 -53t80 -33.5t106 -31
v-45h-1138v57q94 4 197 40.5t202 95t187.5 135t153.5 161.5l649 842l-833 1242q-50 75 -105 134t-112 99.5t-113.5 62t-110.5 21.5h-69v57h1524z" />
    <glyph glyph-name="Y" unicode="Y" 
d="M1491 2947v-57h-91q-27 0 -57 -10t-54.5 -29.5t-38.5 -47t-10 -61.5q4 -32 15.5 -65t30.5 -60l614 -876l455 671q22 32 41 71.5t32.5 79.5t21.5 77.5t8 67.5q0 40 -18.5 74t-53 58t-82.5 37t-108 13v57h1104v-57q-94 -4 -185 -32.5t-170.5 -72.5t-143.5 -99.5
t-105 -114.5l-671 -978v-1229q0 -54 19.5 -109t57.5 -99t96 -71.5t134 -27.5h57v-55h-1376v55h56q54 0 106.5 16t95 52t68.5 95t26 144v1070l-898 1194q-38 50 -78 97t-89 83.5t-111 59t-144 22.5v57h1446z" />
    <glyph glyph-name="Y" unicode="y" 
d="M1491 2947v-57h-91q-27 0 -57 -10t-54.5 -29.5t-38.5 -47t-10 -61.5q4 -32 15.5 -65t30.5 -60l614 -876l455 671q22 32 41 71.5t32.5 79.5t21.5 77.5t8 67.5q0 40 -18.5 74t-53 58t-82.5 37t-108 13v57h1104v-57q-94 -4 -185 -32.5t-170.5 -72.5t-143.5 -99.5
t-105 -114.5l-671 -978v-1229q0 -54 19.5 -109t57.5 -99t96 -71.5t134 -27.5h57v-55h-1376v55h56q54 0 106.5 16t95 52t68.5 95t26 144v1070l-898 1194q-38 50 -78 97t-89 83.5t-111 59t-144 22.5v57h1446z" />
    <glyph glyph-name="Z" unicode="Z" horiz-adv-x="3030" 
d="M2867 2947l-1922 -2776h1217q113 0 213.5 20t188.5 81t163.5 172.5t139.5 295.5h57l-114 -740h-2765l1912 2788h-1138q-104 0 -201.5 -38.5t-176 -114t-132 -188.5t-70.5 -263h-68l68 763h2628z" />
    <glyph glyph-name="Z" unicode="z" horiz-adv-x="3030" 
d="M2867 2947l-1922 -2776h1217q113 0 213.5 20t188.5 81t163.5 172.5t139.5 295.5h57l-114 -740h-2765l1912 2788h-1138q-104 0 -201.5 -38.5t-176 -114t-132 -188.5t-70.5 -263h-68l68 763h2628z" />
    <glyph glyph-name="zero" unicode="0" horiz-adv-x="2780" 
d="M1365 2981q175 2 323.5 -34t271.5 -102t222 -158.5t176 -203.5t132.5 -236t91 -257.5t52.5 -267.5t17 -265q0 -129 -16 -260.5t-50 -259.5t-87.5 -249.5t-128 -228.5t-171.5 -196.5t-218.5 -155t-269 -102t-322.5 -38.5q-183 -2 -334 32t-273.5 98t-217.5 152.5
t-167 194.5t-123 225t-84.5 244t-51 251.5t-23.5 246.5q-7 130 5 266t44.5 270.5t85.5 262.5t128 242t173 210t221 166.5t271 110.5t323 42zM1388 2799q-98 0 -176.5 -37t-140 -102.5t-107.5 -153.5t-79 -189.5t-54.5 -212.5t-34 -222t-17.5 -217t-5 -197t4.5 -195.5
t16.5 -214t32.5 -218.5t53 -209.5t78 -187.5t107.5 -152t142 -103t180 -40q105 -2 185.5 33.5t142 99t105 150t72.5 187.5t46.5 211t26.5 219.5t11.5 214t2.5 194.5q0 91 -2.5 197.5t-11.5 218t-26.5 223.5t-46.5 215t-72.5 192t-105 154.5t-142 103.5t-185.5 38z" />
    <glyph glyph-name="one" unicode="1" horiz-adv-x="1450" 
d="M1058 2981v-2617q0 -76 27.5 -134t71.5 -96.5t99 -57.5t109 -19h57v-56l-1354 -1v57h57q56 0 109 16.5t94.5 54.5t67 101.5t25.5 157.5v1525q0 28 -2 63.5t-12.5 66.5t-33.5 52.5t-66 21.5q-31 0 -64.5 -8t-65 -21.5t-59.5 -32.5t-50 -40l-45 57l967 910h68z" />
    <glyph glyph-name="two" unicode="2" horiz-adv-x="2390" 
d="M1103 2981q73 0 146.5 -12.5t145.5 -37t140.5 -61t128.5 -85.5t111 -110.5t88 -135t59 -159.5t24 -184q2 -132 -28.5 -261t-86 -253.5t-132.5 -243.5t-167 -232t-188.5 -218l-197.5 -201l-194 -182.5l-178 -160.5h1058q80 0 148.5 42t125 108t102 147t79.5 158h57
l-137 -899h-2150l216 216l217 223.5l209 229.5t193 235.5t169 242t137 248.5t96.5 255t48.5 262q3 38 -4.5 83.5t-24.5 94.5t-43.5 98t-61 94.5t-78 84.5t-94 67.5t-108 44t-121.5 13.5q-97 -4 -194 -40t-181.5 -97t-150.5 -143t-100 -175h-68q13 125 44.5 232.5t78 198
t106.5 163t129 130t146.5 99t158 68.5t163 40t163.5 13z" />
    <glyph glyph-name="three" unicode="3" horiz-adv-x="2090" 
d="M876 2970q70 -3 142.5 -11.5t144 -26t139.5 -45t129.5 -67.5t114.5 -93.5t93 -123.5t66.5 -157t35.5 -193q8 -100 -32.5 -194.5t-110.5 -177t-161 -150.5t-185 -116q136 -12 256.5 -75.5t212 -166t148.5 -238t65 -293.5q5 -80 -9.5 -162t-46.5 -160.5t-79.5 -152
t-110 -137t-138.5 -115.5t-164 -86.5t-187.5 -51.5t-208.5 -10q-154 9 -275 36t-225.5 73t-200.5 109.5t-198 144.5v205q81 -64 165.5 -117.5t172.5 -93.5t179.5 -65t187.5 -31q64 -4 119 9t101.5 40t84.5 66t68 85t52 98.5t36.5 106t21.5 107t7 102.5q0 47 -7 98.5
t-23.5 103.5t-43.5 102.5t-67 96.5t-94 85t-125 67.5t-159.5 45t-197.5 16.5q-34 0 -73 -4t-80.5 -9.5l-83.5 -11l-82 -10.5v205q86 -17 171 -17.5t170 -5.5q84 -4 152.5 8.5t123.5 38t98 62.5t75 82t53.5 96t34.5 104t18 107t3 105q-4 158 -35 270t-84 183.5t-127 105
t-163 33.5q-106 0 -205.5 -46t-181 -126t-138.5 -188t-79 -232h-45v740h45q9 -18 23.5 -40t33 -41t39 -29.5t41.5 -3.5q26 9 75.5 33t124 48.5t175 42t228.5 13.5z" />
    <glyph glyph-name="four" unicode="4" horiz-adv-x="2637" 
d="M1263 1138h-1206v68l1468 1798h364v-1639h671v-216h-671v-773q0 -54 17 -110.5t52.5 -102.5t89 -76t125.5 -30h91v-57h-1376v57h57q54 0 110.5 19t102.5 56.5t75.5 93t29.5 127.5v785zM398 1365h865v1070z" />
    <glyph glyph-name="five" unicode="5" horiz-adv-x="2135" 
d="M2071 2947l-46 -387h-967l-148 -910q261 -26 443 -95t298 -175.5t172.5 -248t65.5 -312.5q4 -81 -12.5 -162t-51.5 -157.5t-86.5 -147.5t-117.5 -132t-145.5 -111t-169.5 -84.5t-189.5 -53t-206.5 -15.5q-233 4 -450.5 96.5t-414.5 254.5v216q73 -59 151 -114.5
t161 -98.5t170 -68.5t178 -25.5q71 0 129 17.5t105 48.5t83.5 73.5t64.5 92.5t47.5 105.5t32.5 112.5t19.5 113.5t8.5 108.5q2 55 -5 111.5t-25 111t-46 106t-68 97.5t-92.5 85t-117.5 68t-144.5 47t-173.5 22q-34 2 -70.5 -3t-74 -12.5t-75.5 -16t-75 -13.5l227 1456h1616z
" />
    <glyph glyph-name="six" unicode="6" horiz-adv-x="2350" 
d="M2241 2958v-159q-189 2 -351.5 -27t-299 -85t-248.5 -135.5t-201.5 -179t-157.5 -215.5t-117 -244.5t-80 -266.5t-46 -281q51 73 129 138.5t171.5 114.5t196.5 75.5t204 20.5q73 -4 148.5 -21t150 -45.5t144 -69t131.5 -93t112.5 -115.5t86.5 -137.5t54 -158.5t15 -179
q-4 -93 -24 -182.5t-56.5 -172t-88.5 -157.5t-120 -138.5t-151 -114t-180.5 -86t-210.5 -53.5t-239 -17q-259 3 -463.5 88.5t-347.5 246t-220.5 392t-83.5 524.5q-3 160 23 319.5t82.5 311.5t142 293.5t200.5 265.5t259 226.5t318 176.5t376.5 116.5t434.5 46.5
q73 1 153.5 -8t153.5 -15zM1206 1422q-37 2 -74.5 -5t-74.5 -21t-72.5 -33.5t-67 -42t-59.5 -48t-49.5 -51t-36.5 -49.5t-21 -46q-8 -27 -12 -60.5t-4.5 -68.5t1 -69.5t4.5 -62.5q21 -209 61 -344t101.5 -215t145.5 -114.5t192 -43.5q51 -4 99.5 9.5t92 41.5t82 67t69.5 86
t55 99t39 105.5t20 106t-2 99.5q-15 111 -34 198t-42.5 153.5t-50.5 114.5t-58 81.5t-65.5 54.5t-72.5 33t-79.5 17.5t-86.5 7.5z" />
    <glyph glyph-name="seven" unicode="7" horiz-adv-x="2350" 
d="M23 2037l182 910h2116l-1286 -2947h-694l1116 2605h-877q-47 0 -89 -14t-80 -39.5t-71.5 -60.5t-63.5 -76.5t-56.5 -88t-49.5 -95.5t-42.5 -98t-36.5 -96h-68z" />
    <glyph glyph-name="eight" unicode="8" horiz-adv-x="2350" 
d="M1149 2970q77 -2 155 -10.5t154 -25t147 -43t133.5 -63t115.5 -84t92 -107.5t62.5 -133t28.5 -160q3 -66 -10 -124t-38 -109t-59.5 -95.5t-75.5 -84t-85.5 -74.5t-89.5 -67l-87 -61l-79 -57q68 -34 135.5 -72.5t130.5 -82t121 -92.5t108 -104t90.5 -116t68 -129
t41.5 -143.5t11 -158.5q-4 -122 -32.5 -221.5t-75.5 -178.5t-111 -140.5t-139.5 -106.5t-161 -76t-175.5 -49.5t-182 -26.5t-182 -8q-277 0 -464 40t-304.5 118t-176 193t-79.5 262q-8 62 1.5 121.5t33 115t60.5 108t83 101t100.5 93t113.5 84.5t121.5 75t124.5 65
q-62 32 -123.5 69.5t-119.5 79.5t-110.5 89t-97.5 98t-80.5 105.5t-59 112.5t-33 118.5t-2.5 123.5q21 192 84 347.5t181.5 264t299 166t436.5 53.5zM1320 1775q85 103 128 227t43 251q0 141 -34 240.5t-93 163.5t-137.5 95.5t-168.5 35.5q-85 4 -160 -29.5t-130.5 -90
t-87.5 -127t-32 -140.5q0 -73 18 -132.5t49 -108.5t73.5 -88.5t93 -73.5t106 -62.5t112.5 -55l113 -52t107 -53.5zM967 1229q-51 -39 -102 -97t-90 -126.5t-59.5 -143t-10.5 -145.5q43 -299 167 -439.5t345 -129.5q90 4 174 36.5t148 88t101 131t32 165.5q-2 60 -22 115
t-52.5 105t-76.5 95.5t-96 86.5t-109 77.5t-116 69t-118.5 60z" />
    <glyph glyph-name="nine" unicode="9" horiz-adv-x="2350" 
d="M1115 2981q115 -2 225 -24.5t211.5 -64.5t192.5 -103t168.5 -140t139.5 -177t105 -213t64.5 -247.5t19.5 -282.5q-2 -161 -33 -325.5t-91 -322t-149 -304.5t-207.5 -274.5t-266 -231t-325 -175t-384.5 -106t-444 -23.5q-65 3 -130.5 5.5t-131.5 5.5l9 159
q312 -17 569.5 73.5t450 273.5t314 452.5t159.5 610.5q-89 -85 -173 -146.5t-168.5 -100t-171 -56.5t-180.5 -15q-88 2 -169.5 21t-156 52t-140.5 78.5t-121.5 100.5t-100 118t-76 131t-49 140t-18.5 144q-2 115 20 218.5t64 193.5t102 167t134 139.5t160 110t180.5 79
t195 46.5t202.5 13zM1593 1855v238q0 54 -7.5 112t-23 116.5t-38.5 115t-54.5 107.5t-71.5 94.5t-88.5 76t-105.5 52t-123 21.5q-64 2 -117 -13.5t-96 -44.5t-76.5 -69t-58.5 -87.5t-42 -99.5t-27 -105.5t-13.5 -106.5t-2.5 -100q2 -50 8 -103t17 -105.5t29 -104t44.5 -97.5
t61.5 -86t82 -70t105.5 -48.5t130.5 -22.5q39 -3 79.5 8t80.5 30.5t78 46t72 55t63 58t50 55.5t32.5 46t11.5 31z" />
    <glyph glyph-name="exclam" unicode="!" horiz-adv-x="985" 
d="M489 2947q87 -3 160 -54.5t125 -132.5t79.5 -184t22.5 -209q-8 -205 -46.5 -406t-89.5 -400.5l-106.5 -398.5t-98.5 -400h-102q-41 201 -96.5 401.5l-106 401t-87 401t-41.5 401.5q0 43 3 91.5t11.5 98.5t22.5 98.5t35.5 92.5t51 81.5t68 64t87 41t108.5 12.5zM489 -33
q-65 0 -123 24.5t-101.5 67.5t-68.5 101.5t-25 123.5q0 66 25 124t68.5 101.5t101.5 68.5t123 25q66 0 124 -25t101.5 -68.5t68.5 -101.5t25 -124q0 -65 -25 -123.5t-68.5 -101.5t-101.5 -67.5t-124 -24.5z" />
    <glyph glyph-name="quotedbl" unicode="&#x22;" horiz-adv-x="1875" 
d="M501 2981q68 -5 131.5 -31.5t114 -76.5t82.5 -124.5t36 -177.5q3 -67 -12 -134t-44.5 -131.5t-72.5 -125t-96 -113.5t-114.5 -99t-129 -81t-139 -58t-143.5 -31v68q38 21 89.5 59.5t100.5 94t88 128t52 162.5q-68 8 -122 38.5t-91.5 74.5t-58.5 97.5t-24 107.5
q-4 73 27 139t83 115t116.5 76.5t126.5 22.5zM1384 2981q69 -5 132.5 -31.5t114 -76.5t82 -124.5t36.5 -177.5q2 -67 -12.5 -134t-44 -131.5t-72.5 -125t-96 -113.5t-114.5 -99t-129 -81t-139 -58t-143.5 -31v68q38 21 89.5 59.5t100.5 94t88 128t52 162.5q-68 8 -122 38.5
t-91.5 74.5t-58.5 97.5t-24 107.5q-4 73 27 139t83 115t116.5 76.5t125.5 22.5z" />
    <glyph glyph-name="numbersign" unicode="#" horiz-adv-x="2048" 
d="M68 705l34 342h342l79 580h-318l34 342h330l114 784h352l-113 -773h341l114 785h352l-114 -785h342l-34 -353h-353l-79 -580h341l-34 -353h-353l-125 -750h-341l102 750h-341l-103 -761h-353l103 772h-319zM876 1627l-91 -580h353l80 579z" />
    <glyph glyph-name="dollar" unicode="$" horiz-adv-x="2350" 
d="M1889 2879v-695h-80q-47 115 -100 207t-120.5 158t-152.5 106t-196 53v-910q66 -28 137.5 -65.5t143 -83t141 -99t132 -113.5t115.5 -125.5t91.5 -136.5t60 -146t21.5 -153q0 -142 -56.5 -270.5t-164 -231t-264 -171t-357.5 -89.5v-124h-205v124q-85 8 -161.5 23
l-149 29.5t-144 26t-147.5 12.5q-20 0 -37.5 -3t-34 -11.5t-32.5 -24t-33 -41.5h-68l11 763h91q4 -73 24 -138t52.5 -122t76 -106t94 -89.5t107 -72.5t115.5 -55t119 -36.5t117 -18.5v945q-179 98 -322 192.5t-243.5 197.5t-154 221.5t-53.5 264.5q0 69 17 139.5t48 138
t74.5 131t97.5 119.5t116.5 103.5t131 82.5t141.5 56.5t147 25.5v114h205v-102q60 -4 120.5 -19l122 -31t123 -28.5t123.5 -12.5q16 0 28 10t22.5 24t20 29.5t20.5 27.5h69zM1240 1069v-807q64 21 127 58.5t113.5 86.5t81.5 107.5t31 122.5q0 70 -34.5 130t-86.5 113
t-114 100zM1035 2719q-81 -21 -144.5 -56t-107 -80.5t-66.5 -100t-23 -115.5q0 -70 31 -132t80 -117.5t110 -104t120 -90.5v796z" />
    <glyph glyph-name="percent" unicode="%" horiz-adv-x="3840" 
d="M2981 1433q-56 0 -100 -18t-78.5 -50t-60 -75.5t-43.5 -93.5t-29.5 -105t-18.5 -110t-9.5 -108t-2.5 -100q0 -46 3.5 -99.5t11.5 -109.5t21.5 -111.5t32.5 -106.5t45 -94.5t59.5 -75t75 -48.5t93.5 -15q49 3 89.5 22t74 51.5t59.5 75.5t45.5 93t33.5 104t22.5 108.5
t12.5 107t4 98.5q0 47 -3 100t-10 108t-19.5 110t-31 105t-44.5 93.5t-60 75.5t-77 50t-96 18zM2970 1559q87 2 167.5 -14.5t153 -47.5t136 -75t116 -98t94 -116t70.5 -128t44 -135t15 -138q0 -71 -11.5 -144t-34.5 -144.5t-59 -138.5t-84.5 -126.5t-110 -108t-137.5 -82.5
t-165.5 -50.5t-193.5 -12.5q-103 4 -191 24.5t-161.5 54.5t-133.5 79.5t-106.5 100t-81 116t-56.5 127.5t-33 134.5t-11 136.5q0 107 18 197t51 165t79 135t101.5 106.5t118.5 80t130.5 55.5t137 33.5t138.5 13.5zM853 2856q-55 0 -99.5 -18.5t-78.5 -50.5t-59.5 -75
t-43.5 -93.5t-30 -105.5t-18.5 -110t-9 -108t-2.5 -99t3.5 -99.5t11.5 -109.5t21 -112t32.5 -106.5t45 -94t59 -75t75.5 -48.5t93 -15q49 2 90 21.5t74 51.5t59 75.5t46 93t33.5 104t22.5 108.5t13 107t4 99t-3 99t-10.5 108t-20 110t-31 105.5t-44 93.5t-60 75t-77.5 50.5
t-96 18.5zM842 2981q87 2 168 -14t153.5 -47t135.5 -75.5t116 -98t94.5 -115.5t70 -128.5t43.5 -135.5t15 -137q0 -71 -11 -144.5t-34.5 -144.5t-59 -138.5t-84 -126.5t-110.5 -107.5t-137.5 -82.5t-165 -51t-194.5 -13q-102 4 -190 24.5t-161.5 54.5t-133.5 80t-107 100
t-81 116t-56.5 128t-33.5 134.5t-11 136.5q0 106 18.5 196.5t51.5 165t79 134.5t101 106.5t118 80t130.5 56t137 33.5t138.5 13zM2936 2970l-1821 -2992h-262l1832 2992h251z" />
    <glyph glyph-name="ampersand" unicode="&#x26;" horiz-adv-x="3410" 
d="M1320 2981q58 0 122.5 -5.5t130 -18.5t130 -34t123 -51.5t107.5 -71t83.5 -93t52.5 -117.5t13 -144q-6 -113 -45 -207t-113.5 -175.5t-184.5 -154.5t-260 -145l330 -370l330 -370q34 55 67 117t58 127.5t38 133t8 134.5q-4 51 -25 107t-55 100.5t-80.5 70.5t-101.5 18v57
h945v-57q-39 17 -89.5 -1t-100.5 -56.5t-94 -90t-70 -103.5l-179.5 -347l-183.5 -346q14 -22 40.5 -56.5l62.5 -77.5t80.5 -91t96.5 -95.5t109.5 -91.5t120 -79.5t129 -59t134.5 -30.5q36 -3 70.5 7.5t68 27.5t67 36t67.5 32l34 -23q-76 -128 -159 -208.5t-172 -126.5
t-185 -64t-201 -21q-102 -3 -204.5 23t-197.5 75.5t-178 120t-147 155.5q-115 -111 -220.5 -182.5t-209.5 -113.5t-211 -59t-224 -19q-122 -2 -225 14t-189.5 47t-156 76t-124 100t-94.5 119.5t-66.5 134.5t-40 144t-15.5 149q-4 153 47 275.5t140 224t206 187t245 166.5
q-64 60 -130 138t-119.5 167t-85.5 185t-29 193q2 66 15 131t38.5 126t65 117.5t93 105t123 88t156 67.5t191 43.5t228.5 15.5zM1331 1900q51 26 98 68t81.5 93t51.5 106.5t8 108.5q-7 40 -15.5 84t-20 87.5t-27 85.5t-36 80t-47 70t-60.5 55.5t-76 36.5t-93 13t-102 -23
t-90.5 -60t-62.5 -84t-18 -95q8 -85 29 -156t73 -129zM922 1422q-48 -38 -90 -82.5t-73.5 -93t-49 -101.5t-15.5 -110q2 -55 14.5 -115t35.5 -120.5t55 -119.5t74 -113.5t92.5 -102t109.5 -85t126 -62t142 -33.5q60 -7 119.5 16.5t116 58t109 72t98.5 58.5l-210.5 243
l-212 239l-216.5 231.5t-225 219.5z" />
    <glyph glyph-name="quotesingle" unicode="'" horiz-adv-x="985" 
d="M501 2981q68 -5 131.5 -31.5t114 -76.5t82.5 -124.5t36 -177.5q3 -67 -12 -134t-44.5 -131.5t-72.5 -125t-96 -113.5t-114.5 -99t-129 -81t-139 -58t-143.5 -31v68q38 21 89.5 59.5t100.5 94t88 128t52 162.5q-68 8 -122 38.5t-91.5 74.5t-58.5 97.5t-24 107.5
q-4 73 27 139t83 115t116.5 76.5t126.5 22.5z" />
    <glyph glyph-name="parenleft" unicode="(" horiz-adv-x="1495" 
d="M1547 3027l57 -80q-125 -68 -224.5 -152t-176 -180t-132 -202t-94.5 -218.5t-63 -230.5t-37.5 -238t-18.5 -239t-5 -235q0 -115 5 -231.5t18.5 -232t37.5 -229.5t63 -223.5t94.5 -213.5t132 -199.5t176 -182t224.5 -160.5l-45 -91q-169 53 -316 127.5t-273 166.5
t-230.5 199t-188 226.5t-146.5 248.5t-104.5 264t-62.5 274.5t-22 278.5q0 138 19 273.5t58.5 266.5t100 256t142 240.5t185 220t229.5 195.5t275.5 167t321.5 134z" />
    <glyph glyph-name="parenright" unicode=")" horiz-adv-x="1495" 
d="M-67 3027q171 -58 320.5 -134t275.5 -167t229.5 -195.5t185 -220t142 -240.5t100 -256t58.5 -266.5t19 -273.5q-1 -139 -22 -278.5t-62.5 -274.5t-104.5 -264t-146.5 -248.5t-188 -226.5t-230.5 -199t-273 -166.5t-315 -127.5l-45 91q124 74 223.5 160.5t176 182
t132 199.5t94.5 213.5t63 223.5t37.5 229.5t18.5 232t5 231.5q0 116 -5 235t-18.5 239t-37.5 238t-63 230.5t-94.5 218.5t-132 202t-176 180t-223.5 152z" />
    <glyph glyph-name="asterisk" unicode="*" horiz-adv-x="1875" 
d="M933 2981q40 1 81 -17.5t75 -49.5t56.5 -70t26.5 -79q5 -53 -14.5 -102t-49 -96t-62.5 -94t-56 -95h-125q-23 47 -56.5 92t-63.5 91t-49 93.5t-13 98.5q5 43 28.5 83.5t59 72.5t78 51.5t84.5 20.5zM1718 2398q13 -38 7.5 -82.5t-24 -86t-49 -75.5t-66.5 -50
q-49 -21 -101.5 -18t-106.5 17t-108.5 31t-107.5 24l-39 119q38 36 70.5 82t66.5 88.5t73.5 75.5t90.5 43q41 8 87 -2t87.5 -33.5t73.5 -58t46 -74.5zM1415 1464q-32 -24 -76 -33t-89.5 -4t-87 23t-67.5 49q-35 40 -48.5 90.5t-17 106t-4 113t-10.5 109.5l102 74
q45 -25 98.5 -41.5t104.5 -36t94.5 -47t69.5 -72.5q20 -37 24.5 -83.5t-5 -93.5t-32 -88t-56.5 -66zM434 1470q-33 23 -55 62t-31 84t-4.5 90t25.5 79q27 46 71 74.5t95.5 49t106 38.5t101.5 44l101 -74q-9 -51 -8.5 -107.5t-2 -110.5t-15 -104t-48.5 -88q-28 -31 -71 -49.5
t-90.5 -24t-93.5 3.5t-81 33zM137 2422q12 38 42.5 71t70.5 55.5t84 32.5t83 1q52 -12 92.5 -45.5t76 -76t69.5 -88.5t73 -83l-39 -119q-51 -7 -104 -25t-106 -32t-104 -17.5t-98 18.5q-39 17 -70 52.5t-51 78.5t-25.5 89.5t6.5 87.5zM922 2014q-29 0 -53.5 11t-43 29.5
t-29.5 43t-11 52.5q0 29 11 53.5t29.5 43t43 29.5t53.5 11q28 0 52.5 -11t43.5 -29.5t29.5 -43t10.5 -53.5q0 -28 -10.5 -52.5t-29.5 -43t-43.5 -29.5t-52.5 -11z" />
    <glyph glyph-name="plus" unicode="+" horiz-adv-x="2250" 
d="M1013 2184h216v-967h967v-216h-967v-1001h-216v1001h-968v216h968v967z" />
    <glyph glyph-name="comma" unicode="," horiz-adv-x="985" 
d="M478 637q68 0 135 -25.5t120.5 -76.5t86.5 -128t33 -179q0 -71 -18.5 -138t-51.5 -128t-79.5 -117t-100.5 -104.5t-115 -89t-124 -71t-126.5 -51t-123.5 -29.5v80q55 21 105.5 57t92 82.5t72.5 103.5t49 121q3 12 -10 22.5t-25 11.5q-81 9 -130.5 41.5t-77.5 79
t-39 101.5t-15 107q-4 60 20 119t70 106t110.5 76t141.5 29z" />
    <glyph glyph-name="hyphen" unicode="-" horiz-adv-x="1410" 
d="M148 1627h1103v-341h-1103v341z" />
    <glyph glyph-name="period" unicode="." horiz-adv-x="985" 
d="M489 -44q-68 0 -128 25.5t-105 70.5t-71 105t-26 128t26 128t71 104.5t105 70.5t128 26t128 -26t105 -70.5t71 -104.5t26 -128t-26 -128t-71 -105t-105 -70.5t-128 -25.5z" />
    <glyph glyph-name="slash" unicode="/" horiz-adv-x="1280" 
d="M1252 2947l-899 -2947h-342l888 2947h353z" />
    <glyph glyph-name="colon" unicode=":" horiz-adv-x="988" 
d="M478 1297q-68 0 -128.5 26t-105.5 71t-71 105t-26 128t26 128.5t71 105t105.5 70.5t128.5 26t128 -26t105 -70.5t71 -105t26 -128.5t-26 -128t-71 -105t-105 -71t-128 -26zM478 -33q-68 0 -128.5 25.5t-105.5 70.5t-71 105t-26 128t26 128.5t71 105t105.5 70.5t128.5 26
t128 -26t105 -70.5t71 -105t26 -128.5t-26 -128t-71 -105t-105 -70.5t-128 -25.5z" />
    <glyph glyph-name="semicolon" unicode=";" horiz-adv-x="988" 
d="M478 637q68 0 135 -25.5t120.5 -76.5t86.5 -128t33 -179q0 -71 -18.5 -138t-51.5 -128t-79.5 -117t-100.5 -104.5t-115 -89t-124 -71t-126.5 -51t-123.5 -29.5v80q55 21 105.5 57t92 82.5t72.5 103.5t49 121q3 12 -10 22.5t-25 11.5q-81 9 -130.5 41.5t-77.5 79
t-39 101.5t-15 107q-4 60 20 119t70 106t110.5 76t141.5 29zM478 1297q-68 0 -128.5 26t-105.5 71t-71 105t-26 128t26 128.5t71 105t105.5 70.5t128.5 26t128 -26t105 -70.5t71 -105t26 -128.5t-26 -128t-71 -105t-105 -71t-128 -26z" />
    <glyph glyph-name="less" unicode="&#x3c;" horiz-adv-x="2252" 
d="M2127 2139v-250l-1763 -820l1775 -807v-262l-2041 937v273z" />
    <glyph glyph-name="equal" unicode="=" horiz-adv-x="2252" 
d="M45 1604h2151v-227h-2151v227zM45 808h2151v-228h-2151v228z" />
    <glyph glyph-name="greater" unicode="&#x3e;" horiz-adv-x="2252" 
d="M110 2139l2029 -929v-273l-2041 -937v262l1775 807l-1763 820v250z" />
    <glyph glyph-name="question" unicode="?" horiz-adv-x="1409" 
d="M615 -44q-68 0 -128 25.5t-105 70.5t-71 105t-26 128t26 128t71 104.5t105 70.5t128 26t128 -26t105 -70.5t71 -104.5t26 -128t-26 -128t-71 -105t-105 -70.5t-128 -25.5zM705 2981q115 -3 227 -44t201.5 -122.5t146.5 -204t63 -289.5q4 -132 -43 -258t-127.5 -248
t-187 -240l-220.5 -234q-44 -45 -85.5 -95t-76 -105t-58.5 -113t-33 -118q-3 -19 3 -39t8 -40h-34q-30 38 -59 82.5t-51.5 92.5t-36 98.5t-12.5 101.5q2 69 17.5 137t41 134.5t57.5 130.5t66 124l58 105.5t51.5 107t36 117t13.5 134.5q0 54 -22 109t-62.5 99t-97 71.5
t-125.5 27.5q-40 0 -81.5 -10t-79.5 -29.5t-70 -47t-54 -61.5h-22.5h-22.5q38 133 105 248t154.5 200t192.5 133t219 45z" />
    <glyph glyph-name="at" unicode="@" horiz-adv-x="3560" 
d="M1855 2995q195 -2 361 -40.5t305 -107t251 -162.5t200.5 -206t153.5 -238t109.5 -259t69.5 -268.5t33 -266.5q7 -122 -11.5 -251.5t-58 -257.5t-98 -250.5t-132.5 -231t-161 -198t-182.5 -152.5t-198.5 -94t-208 -22q-56 4 -98.5 15t-73 27.5t-51.5 37.5t-34.5 44.5
t-20.5 48.5t-11.5 50t-6 49t-3.5 45q-68 -55 -129.5 -112t-124 -102t-129 -71t-143.5 -22q-98 6 -177.5 33.5t-142 72t-110 103t-82 125.5t-58 140.5t-37.5 148.5t-21 148.5t-8 140.5q-2 89 13 190.5t46 206t76.5 209t104.5 199.5t130.5 177.5t154.5 144t177 97t197 37.5
q40 1 81.5 -9t81.5 -28t79 -43t74.5 -53.5t68 -59t59.5 -61t47.5 -58.5t34.5 -52l60 291h298l-286 -1588q-9 -39 -5 -72t17.5 -57.5t35 -38.5t47.5 -14q57 1 114 24t112.5 65t108.5 102t100 135.5t87 165.5t71.5 191.5t52 213t27.5 231.5q8 123 -15 242.5t-70.5 230.5
t-117.5 212t-157.5 187.5t-189.5 157t-214.5 120t-232 76t-240.5 26.5q-183 0 -342.5 -45t-295 -124.5t-247.5 -188t-201 -237t-155 -272t-109 -291.5t-64 -296t-20 -287q0 -129 17.5 -263.5t54.5 -266t95.5 -257t142.5 -236t195 -204t252.5 -161.5t316 -106.5t384.5 -40.5
q172 -1 332.5 22.5t313 89t298.5 183.5t290 305h335q-135 -225 -292.5 -393.5t-348 -279t-420 -163.5t-508.5 -48q-226 4 -420.5 43.5t-357.5 109.5t-296.5 168.5t-238 219t-181.5 261.5t-127.5 298t-75 326.5t-25.5 347.5q0 164 24.5 340.5t75.5 353.5t128 348t181.5 324.5
t237 283.5t293 224t350 146t408.5 51zM1738 1877q-71 -2 -133 -31t-114.5 -78t-96 -115t-79.5 -142.5t-64 -160t-49.5 -167.5t-36.5 -165t-25 -153q-5 -43 -0.5 -91.5t17.5 -98.5t34 -99.5t48.5 -94.5t60 -83t69 -64.5t75.5 -40t79 -9.5q83 9 154.5 40.5t131.5 80t109 111.5
t87.5 135.5t67 152t47 160t27.5 159.5t9 151q0 51 -7.5 104.5t-22 106t-36 102.5t-48.5 94t-60.5 81t-71.5 63t-81 39.5t-91 12.5z" />
    <glyph glyph-name="bracketleft" unicode="[" horiz-adv-x="1535" 
d="M478 2947h1058v-57h-159q-68 0 -126.5 -22.5t-101 -63t-67 -97t-24.5 -124.5v-2605q0 -77 19.5 -138t59 -103.5t99.5 -65.5t141 -23h159v-57h-1058v3356z" />
    <glyph glyph-name="backslash" unicode="\" horiz-adv-x="1140" 
d="M250 2776l910 -2832h-272l-888 2832h250z" />
    <glyph glyph-name="bracketright" unicode="]" horiz-adv-x="1535" 
d="M1047 2947v-3356h-1057v57h158q81 0 141 23t99.5 65.5t59 103.5t19.5 138v2605q0 68 -24.5 124.5t-67.5 97t-101 63t-126 22.5h-158v57h1057z" />
    <glyph glyph-name="asciicircum" unicode="^" horiz-adv-x="2380" 
d="M1115 2776h159l808 -1433h-318l-592 1012l-569 -1012h-319z" />
    <glyph glyph-name="underscore" unicode="_" horiz-adv-x="2048" 
d="M-22 -306h2081v-205h-2081v205z" />
    <glyph glyph-name="grave" unicode="`" horiz-adv-x="1365" 
d="M102 3960h797l466 -797h-102l-1161 774v23z" />
    <glyph glyph-name="braceleft" unicode="{" horiz-adv-x="1535" 
d="M1343 2936q-99 -22 -170 -57.5t-117 -84t-69.5 -108.5t-25.5 -131q-3 -86 13.5 -174t37 -174.5t37.5 -171t14 -162.5q-3 -117 -56 -226t-143 -196t-209.5 -146t-256.5 -76q141 -39 262 -103.5t209.5 -150t140 -189.5t53.5 -222q2 -70 -15 -151t-37.5 -166t-36.5 -171.5
t-13 -169.5q2 -67 21 -133t63.5 -120.5t118 -93.5t184.5 -52l-5 -86q-203 -7 -351.5 42t-248.5 137t-152 205.5t-62 246.5q-3 42 0 88.5t10.5 95.5t18 99l21.5 98.5l22 94t19.5 85t13.5 72t3 55.5q-4 82 -23 150.5t-63 121.5t-117 90t-184 58l6 110q87 14 159 58t122 105.5
t77 135.5t23 149q-2 49 -18.5 126.5l-36 167.5t-36 184.5t-17.5 177.5q-2 121 51 234.5t157 202.5t256.5 144.5t349.5 59.5v-79z" />
    <glyph glyph-name="bar" unicode="|" horiz-adv-x="820" 
d="M250 2753h296v-3480h-296v3480z" />
    <glyph glyph-name="braceright" unicode="}" horiz-adv-x="1535" 
d="M177 2936v79q196 -4 348.5 -59.5t256.5 -144.5t157 -202.5t51 -234.5q-1 -83 -17.5 -177.5t-36 -184.5l-36 -167.5t-18.5 -126.5q-3 -75 23.5 -149t77 -135.5t122 -105.5t159.5 -58l5 -110q-111 -21 -183.5 -58t-117 -90t-63.5 -121.5t-23 -150.5q-1 -23 3.5 -55.5
t13 -72t19.5 -85l22.5 -94t21.5 -98.5t17.5 -99t11 -95.5t-0.5 -88.5q-9 -129 -61.5 -246.5t-152 -205.5t-248.5 -137t-351 -42l-6 86q111 13 184.5 52t118 93.5t63.5 120.5t21 133q3 83 -13 169.5t-36 171.5t-37 166t-16 151q2 118 53.5 222t140.5 189.5t209.5 150
t261.5 103.5q-136 17 -256 76t-209.5 146t-143 196t-56.5 226q-3 78 14 162.5t37.5 171t37 174.5t13.5 174q-2 71 -25 131t-69.5 108.5t-117.5 84t-169 57.5z" />
    <glyph glyph-name="asciitilde" unicode="~" horiz-adv-x="2130" 
d="M546 1422q66 2 141 -13.5t154.5 -42t162 -61l164 -71l160.5 -71t151 -61t135.5 -42t114.5 -13.5q64 2 122 24.5t105 66.5t80 111.5t46 161.5h114q-4 -149 -46.5 -267.5t-114 -200.5t-167.5 -125.5t-207 -43.5q-70 0 -147.5 15.5t-158.5 41t-164 58.5l-164 67l-158.5 67
t-148 58.5t-132 41t-110.5 15.5q-62 0 -117 -22t-99.5 -66.5t-76 -113t-49.5 -162.5h-113q0 136 35.5 253t102.5 203.5t164 137t221 54.5z" />
    <glyph glyph-name="quotesinglbase" unicode="&#x201a;" horiz-adv-x="985" 
d="M478 637q68 0 135 -25.5t120.5 -76.5t86.5 -128t33 -179q0 -71 -18.5 -138t-51.5 -128t-79.5 -117t-100.5 -104.5t-115 -89t-124 -71t-126.5 -51t-123.5 -29.5v80q55 21 105.5 57t92 82.5t72.5 103.5t49 121q3 12 -10 22.5t-25 11.5q-81 9 -130.5 41.5t-77.5 79
t-39 101.5t-15 107q-4 60 20 119t70 106t110.5 76t141.5 29z" />
    <glyph glyph-name="florin" unicode="&#x192;" horiz-adv-x="3285" 
d="M1707 1934q13 94 36.5 189t59.5 186t84.5 176.5t111 160t139 136t169 106t201 69t234.5 24.5q46 0 89.5 -2.5t87.5 -10t90 -21t97 -34.5l68 68h69l-171 -489h-68q-9 77 -30.5 148.5t-58 126t-88 85.5t-119.5 27q-67 -4 -123.5 -29t-103 -66t-85 -96.5t-69 -121.5
t-54.5 -141t-42.5 -154.5t-32.5 -161.5t-25 -163h330l-34 -148h-330q-49 -175 -95.5 -372.5l-99 -401t-115 -404.5t-144 -383.5t-186.5 -337.5t-241.5 -266.5t-309.5 -171.5t-391 -51q-131 5 -267 18t-267 27l170 467h69q8 -99 48.5 -171.5t99.5 -120.5t130.5 -72t142.5 -24
q145 0 258 63.5t200.5 174t153 260.5t115 324t86.5 363.5t68 379l59.5 371.5t60.5 339h-410l34 125h399z" />
    <glyph glyph-name="quotedblbase" unicode="&#x201e;" horiz-adv-x="1875" 
d="M478 637q68 0 135 -25.5t120.5 -76.5t86.5 -128t33 -179q0 -71 -18.5 -138t-51.5 -128t-79.5 -117t-100.5 -104.5t-115 -89t-124 -71t-126.5 -51t-123.5 -29.5v80q55 21 105.5 57t92 82.5t72.5 103.5t49 121q3 12 -10 22.5t-25 11.5q-81 9 -130.5 41.5t-77.5 79
t-39 101.5t-15 107q-4 60 20 119t70 106t110.5 76t141.5 29zM1388 637q69 0 135.5 -25.5t120 -76.5t86.5 -128t33 -179q0 -71 -18.5 -138t-51.5 -128t-79 -117t-100.5 -104.5t-115.5 -89t-124 -71t-126.5 -51t-123.5 -29.5v80q55 21 105.5 57t92 82.5t72.5 103.5t49 121
q3 12 -10 22.5t-25 11.5q-81 9 -130.5 41.5t-77.5 79t-39 101.5t-14 107q-5 60 19 119t70 106t111 76t141 29z" />
    <glyph glyph-name="ellipsis" unicode="&#x2026;" horiz-adv-x="4096" 
d="M591 -44q-68 0 -128 25.5t-104.5 70.5t-70.5 105t-26 128t26 128t70.5 104.5t104.5 70.5t128 26t128 -26t105 -70.5t71 -104.5t26 -128t-26 -128t-71 -105t-105 -70.5t-128 -25.5zM1957 -44q-68 0 -128 25.5t-105 70.5t-71 105t-26 128t26 128t71 104.5t105 70.5t128 26
t128 -26t105 -70.5t71 -104.5t26 -128t-26 -128t-71 -105t-105 -70.5t-128 -25.5zM3322 -44q-68 0 -128 25.5t-104.5 70.5t-70.5 105t-26 128t26 128t70.5 104.5t104.5 70.5t128 26t128 -26t105 -70.5t71 -104.5t26 -128t-26 -128t-71 -105t-105 -70.5t-128 -25.5z" />
    <glyph glyph-name="dagger" unicode="&#x2020;" horiz-adv-x="1870" 
d="M410 2901h1012v-56h-34q-102 0 -166.5 -31.5t-100.5 -80.5t-49.5 -110t-13.5 -120v-363l307 -1q64 0 118.5 29.5t94 75.5t61.5 103t22 111v45h57v-1012h-57v45q0 54 -17 111t-53.5 103t-92.5 75.5t-133 29.5l-307 -1v-2183q0 -38 25 -88.5t68 -97t101 -78t125 -31.5h45
v-57h-1012v57h34q16 0 38.5 0.5t48.5 4.5t54.5 12.5t55 24.5t51 41t42.5 60.5t29 84.5t11 113v2138h-319q-54 0 -107 -24.5t-95 -67t-68 -101t-26 -126.5v-45h-57v1012h57v-45q0 -68 23 -126.5t61 -101.5t87.5 -67t102.5 -24h341v387q0 85 -30 145.5t-78 99t-106.5 56.5
t-115.5 18h-34v56z" />
    <glyph glyph-name="daggerdbl" unicode="&#x2021;" horiz-adv-x="1870" 
d="M410 2901h1012v-56h-34q-102 0 -166.5 -31.5t-100.5 -80.5t-49.5 -110t-13.5 -120v-363l307 -1q64 0 118.5 29.5t94 75.5t61.5 103t22 111v45h57v-1012h-57v45q0 54 -17 111t-53.5 103t-92.5 75.5t-133 29.5l-307 -1v-1499l296 -2q69 -1 125.5 28t97 75.5t62.5 103
t22 111.5v46h57v-1012h-57v46q0 54 -17.5 110.5t-53.5 102t-92 75t-133 29.5l-307 1v-398q0 -54 21 -106.5t61.5 -94.5t100 -68t136.5 -26h45v-57h-1012v57h34q93 0 156.5 27.5t102 74.5t55 109t16.5 130v352l-319 -1q-54 0 -107 -24t-95 -66.5t-68 -100.5t-26 -126v-46h-57
v1012h57v-46q0 -76 26 -135.5t68 -100t95 -61.5t107 -21h319v1502h-319q-54 0 -107 -24.5t-95 -67t-68 -101t-26 -126.5v-45h-57v1012h57v-45q0 -68 23 -126.5t61 -101.5t87.5 -67t102.5 -24h341v387q0 85 -30 145.5t-78 99t-106.5 56.5t-115.5 18h-34v56z" />
    <glyph glyph-name="circumflex" unicode="&#x2c6;" horiz-adv-x="1365" 
d="M421 3960h558l455 -786h-103l-637 501l-671 -501h-101z" />
    <glyph glyph-name="perthousand" unicode="&#x2030;" horiz-adv-x="3360" 
d="M521 2981q52 2 99 -14t89.5 -47t79 -75.5t67.5 -98t55.5 -115.5t41.5 -128.5t25.5 -135.5t8.5 -137q0 -71 -6.5 -144.5t-20 -144.5t-34.5 -138.5t-49.5 -126.5t-64.5 -107.5t-80 -82.5t-97 -51t-114 -13q-59 4 -110.5 24.5t-94.5 54.5t-78 80t-62.5 100t-47.5 116
t-33 128t-19.5 134.5t-6.5 136.5q0 213 40.5 361t105 241t145.5 136.5t161 46.5zM528 2856q-33 0 -58.5 -18.5t-46 -50.5t-35 -75t-25.5 -93.5t-17.5 -105.5t-10.5 -110t-5.5 -108t-1.5 -99t2 -99.5t7 -109.5t12.5 -112t18.5 -106.5t26.5 -94t35 -75t44 -48.5t54.5 -15
q28 2 52 21.5t43.5 51.5t34.5 75.5t26.5 93t20 104t13.5 108.5t7 107t2 99t-1.5 99t-5.5 108t-11.5 110t-18.5 105.5t-26 93.5t-35 75t-45 50.5t-56 18.5zM1765 1559q52 2 99 -14.5t89.5 -47.5t79.5 -75t68 -98t55 -116t40.5 -128t25.5 -135t9 -138q0 -71 -6.5 -144
t-20 -144.5t-34.5 -138.5t-49.5 -126.5t-64.5 -108t-80 -82.5t-97 -50.5t-114 -12.5q-59 4 -110.5 24.5t-94.5 54.5t-78 79.5t-62.5 100t-47.5 116t-33 127.5t-19.5 134.5t-6.5 136.5q0 214 40.5 362t105.5 241t145.5 136t160.5 47zM1772 1433q-32 0 -58 -18t-46 -50
t-35 -75.5t-25.5 -93.5t-17 -105t-10.5 -110t-5.5 -108t-1.5 -100q0 -46 2 -99.5t6.5 -109.5t12.5 -111.5t19 -106.5t26 -94.5t34.5 -75t44 -48.5t54.5 -15q29 3 53 22t43 51.5t34.5 75.5t27 93t19.5 104t13 108.5t7.5 107t2.5 98.5q0 47 -2 100t-6 108t-11.5 110t-18.5 105
t-26 93.5t-35 75.5t-45 50t-56 18zM2824 1559q51 2 98 -14.5t89.5 -47.5t79.5 -75t68 -98t55 -116t41 -128t25.5 -135t8.5 -138q0 -71 -6.5 -144t-20 -144.5t-34.5 -138.5t-49 -126.5t-64.5 -108t-80.5 -82.5t-96.5 -50.5t-113.5 -12.5q-60 4 -111.5 24.5t-94.5 54.5
t-78 79.5t-62.5 100t-47.5 116t-33 127.5t-19.5 134.5t-6.5 136.5q0 214 40.5 362t105.5 241t146 136t161 47zM2830 1433q-32 0 -58 -18t-46 -50t-35 -75.5t-25.5 -93.5t-17.5 -105t-11 -110t-5.5 -108t-1.5 -100q0 -46 2.5 -99.5t7 -109.5t12 -111.5t19 -106.5t26.5 -94.5
t34.5 -75t44 -48.5t54.5 -15q29 3 53 22t43 51.5t34.5 75.5t27 93t19.5 104t13.5 108.5t7.5 107t2 98.5q0 47 -1.5 100t-6 108t-11.5 110t-18 105t-26 93.5t-35 75.5t-45.5 50t-56.5 18zM1764 2947l-899 -2947h-342l888 2947h353z" />
    <glyph glyph-name="Scaron" unicode="&#x160;" horiz-adv-x="2090" 
d="M1058 2981q66 0 131.5 -12.5t130.5 -28l130 -30.5t131 -20q52 -4 81.5 18t55.5 73h68v-762h-79q-60 183 -130.5 295t-154 175.5t-180 88t-207.5 32.5q-37 3 -76.5 -2.5t-79 -18t-78 -32.5t-71.5 -46t-61 -58.5t-46.5 -70.5t-27 -80.5t-4.5 -89.5q9 -87 49 -162.5
t102 -142t142.5 -126.5t169.5 -117.5l182.5 -114l182.5 -115.5t168.5 -122.5t141.5 -134.5q54 -63 99.5 -126t79.5 -132.5t53 -149t19 -173.5q0 -79 -16 -156t-47.5 -149.5t-77.5 -139t-106.5 -124t-136 -105t-164 -81.5t-191 -53t-217.5 -21q-44 -1 -91.5 3.5t-96.5 12.5
t-98.5 17.5t-97 20.5l-92.5 21.5t-84.5 18.5t-73.5 13t-60 5q-42 0 -80.5 -25.5t-56.5 -75.5h-68l11 841h92q2 -64 19.5 -128.5t48 -127t73.5 -120.5t96 -109t114.5 -92.5t129.5 -70.5t141.5 -44t150.5 -13q81 2 165.5 34.5t154.5 88.5t117 132t53 166q4 72 -27 139.5
t-87 130.5t-132.5 123.5t-164 120l-181 118l-183.5 119t-172 122.5t-146 128q-113 117 -176 257t-63 289q0 64 13 136.5t39.5 148t67 150.5t95.5 143t125 126.5t155 102t186 68t218 24.5zM284 3960h103l648 -501l660 501h103l-501 -797h-557z" />
    <glyph glyph-name="guilsinglleft" unicode="&#x2039;" horiz-adv-x="940" 
d="M888 2458l-285 -1001l273 -1002h-45l-786 1002l786 1001h57z" />
    <glyph glyph-name="OE" unicode="&#x152;" horiz-adv-x="4220" 
d="M1798 2947h2207l23 -671h-57q-9 94 -37 185.5t-77 164t-120 117.5t-164 45h-660v-1252h592q61 0 113.5 31.5t92.5 85t66 123.5t35 147h45v-865h-57q-4 77 -33 136.5t-74 100t-100 61.5t-111 21h-569v-910q0 -56 29 -111t75 -98.5t102.5 -71t111.5 -27.5h330
q95 0 182 40.5t157.5 113t118.5 173t66 219.5h56l-45 -715h-2196q-37 -6 -73.5 -15.5t-74.5 -7.5q-209 13 -387 54.5t-327.5 108.5t-270.5 155.5t-216.5 194t-165.5 225.5t-116.5 248.5t-70.5 264t-27 273.5q-4 172 27.5 328t92.5 293t147.5 254t191.5 212.5t225 168.5
t248.5 121t261 71.5t262.5 18.5q43 -2 85.5 -2.5t85.5 -8.5zM1820 2799q-100 -2 -195.5 -27t-184 -71t-167.5 -112t-145.5 -149.5t-119 -184.5t-88.5 -216.5t-53.5 -244.5t-13.5 -269q3 -108 17.5 -224.5t42.5 -233.5t70.5 -231t102 -216.5t137 -190t175.5 -152t217 -102
t262 -39.5q68 -1 137 20t124.5 67.5t90.5 120.5t35 179v1878q0 74 -24.5 146.5t-77.5 129t-137.5 90.5t-204.5 32z" />
    <glyph glyph-name="quoteleft" unicode="&#x2018;" horiz-adv-x="985" 
d="M493 1810q-68 6 -132 32.5t-114 76t-81.5 124.5t-36.5 177q-3 67 12 134.5t44.5 131.5t72.5 124.5t96 114t114.5 99t128.5 80.5t138.5 58t144.5 32v-69q-39 -21 -90 -59.5t-100.5 -94t-88 -128t-51.5 -161.5q68 -9 121.5 -39.5t91 -74.5t59 -97.5t24.5 -107.5
q4 -72 -27 -138t-83 -115.5t-116.5 -76.5t-126.5 -23z" />
    <glyph glyph-name="quoteright" unicode="&#x2019;" horiz-adv-x="985" 
d="M484 2981q69 -5 132.5 -31.5t113.5 -76.5t82 -124.5t36 -177.5q3 -67 -12 -134t-44.5 -131.5t-72 -125t-95.5 -113.5t-115 -99t-129 -81t-138.5 -58t-144.5 -31v68q39 21 90.5 59.5t100.5 94t88 128t51 162.5q-68 8 -121.5 38.5t-91 74.5t-58.5 97.5t-25 107.5
q-4 73 27.5 139t83 115t116 76.5t126.5 22.5z" />
    <glyph glyph-name="quotedblleft" unicode="&#x201c;" horiz-adv-x="1875" 
d="M477 1810q-68 6 -132 32.5t-114 76t-82 124.5t-36 177q-3 67 12 134.5t44.5 131.5t72 124.5t95.5 114t115 99t129 80.5t138.5 58t143.5 32v-69q-38 -21 -89.5 -59.5t-100.5 -94t-88 -128t-51 -161.5q68 -9 121.5 -39.5t91 -74.5t58.5 -97.5t24 -107.5q5 -72 -26.5 -138
t-83 -115.5t-116 -76.5t-126.5 -23zM1382 1810q-68 6 -132 32.5t-114 76t-82 124.5t-36 177q-3 67 12 134.5t44.5 131.5t72 124.5t96 114t115 99t128.5 80.5t138.5 58t144.5 32v-69q-39 -21 -90.5 -59.5t-100.5 -94t-87.5 -128t-51.5 -161.5q68 -9 121.5 -39.5t91 -74.5
t58.5 -97.5t25 -107.5q4 -72 -27.5 -138t-83 -115.5t-116 -76.5t-126.5 -23z" />
    <glyph glyph-name="quotedblright" unicode="&#x201d;" horiz-adv-x="1875" 
d="M1389 2981q69 -5 132.5 -31.5t114 -76.5t82 -124.5t35.5 -177.5q3 -67 -12 -134t-44.5 -131.5t-72 -125t-95.5 -113.5t-115 -99t-129 -81t-138.5 -58t-143.5 -31v68q38 21 89.5 59.5t100.5 94t88 128t51 162.5q-68 8 -121.5 38.5t-91 74.5t-58.5 97.5t-24 107.5
q-4 73 27 139t82.5 115t116.5 76.5t126 22.5zM484 2981q69 -5 132.5 -31.5t113.5 -76.5t82 -124.5t36 -177.5q3 -67 -12 -134t-44.5 -131.5t-72 -125t-95.5 -113.5t-115 -99t-129 -81t-138.5 -58t-144.5 -31v68q39 21 90.5 59.5t100.5 94t88 128t51 162.5q-68 8 -121.5 38.5
t-91 74.5t-58.5 97.5t-25 107.5q-4 73 27.5 139t83 115t116 76.5t126.5 22.5z" />
    <glyph glyph-name="bullet" unicode="&#x2022;" horiz-adv-x="1450" 
d="M717 787q-117 0 -221 45t-181.5 122.5t-122.5 181t-45 221.5t45 221.5t122.5 181t181.5 122.5t221 45q118 0 221.5 -45t181 -122.5t122.5 -181t45 -221.5t-45 -221.5t-122.5 -181t-181 -122.5t-221.5 -45z" />
    <glyph glyph-name="endash" unicode="&#x2013;" horiz-adv-x="2048" 
d="M-19 1607h2086v-259h-2086v259z" />
    <glyph glyph-name="emdash" unicode="&#x2014;" horiz-adv-x="4096" 
d="M-19 1607h4120v-260h-4120v260z" />
    <glyph glyph-name="tilde" unicode="&#x2dc;" horiz-adv-x="1365" 
d="M354 3752q54 0 109 -7.5t110 -20t110.5 -28.5l109.5 -32.5l107 -32t103.5 -28t98.5 -20.5t92 -8q32 0 62 9.5t55 30t44 54t29 81.5h112q-12 -137 -49 -244t-96.5 -180t-142 -110t-185.5 -34q-54 1 -110.5 9.5t-113 21t-113.5 28l-113 31.5l-109.5 31.5t-104 28
t-96.5 20.5t-87 9q-33 1 -66.5 -12t-61.5 -36.5t-47 -57t-24 -73.5h-116q8 47 19.5 96.5t28 98t38.5 95.5t50 88.5t63.5 77t80 61t97.5 39.5t116 14z" />
    <glyph glyph-name="trademark" unicode="&#x2122;" horiz-adv-x="4310" 
d="M2549 2946l549 -1052l520 1052h624v-30q-47 -3 -87 -8.5t-71 -20t-51.5 -39t-28.5 -64.5l104 -1132q4 -44 11.5 -91.5t30.5 -88.5t69 -70.5t127 -36.5v-31h-884v31q70 0 115.5 16.5t72 43.5t36 60.5t6.5 66.5l-89 1090l-631 -1308h-52l-645 1251l-105 -977
q-2 -28 9 -69.5t41.5 -79t83.5 -64t134 -24.5v-43h-654v43q73 -2 121.5 28t79 76t46 100t21.5 101l133 1046q-27 38 -57.5 68.5t-69 54.5t-87 41.5t-112.5 29.5v30h690zM-10 2585l6 375q34 -6 69 -15t71 -9h1368q26 0 57.5 9t61.5 15l14 -375h-35q-5 50 -22.5 96t-45.5 80.5
t-66 55t-84 20.5h-371v-1293q0 -31 12 -62t37 -55.5t63 -40t91 -15.5h21v-30h-856v36h56q39 0 71.5 13t55.5 35t36 51t13 62v1299h-379q-44 0 -78.5 -26.5t-59.5 -65t-41 -82.5t-25 -78h-40z" />
    <glyph glyph-name="scaron" unicode="&#x161;" horiz-adv-x="2040" 
d="M1058 2981q66 0 131.5 -12.5t130.5 -28l130 -30.5t131 -20q52 -4 81.5 18t55.5 73h68v-762h-79q-60 183 -130.5 295t-154 175.5t-180 88t-207.5 32.5q-37 3 -76.5 -2.5t-79 -18t-78 -32.5t-71.5 -46t-61 -58.5t-46.5 -70.5t-27 -80.5t-4.5 -89.5q9 -87 49 -162.5
t102 -142t142.5 -126.5t169.5 -117.5l182.5 -114l182.5 -115.5t168.5 -122.5t141.5 -134.5q54 -63 99.5 -126t79.5 -132.5t53 -149t19 -173.5q0 -79 -16 -156t-47.5 -149.5t-77.5 -139t-106.5 -124t-136 -105t-164 -81.5t-191 -53t-217.5 -21q-44 -1 -91.5 3.5t-96.5 12.5
t-98.5 17.5t-97 20.5l-92.5 21.5t-84.5 18.5t-73.5 13t-60 5q-42 0 -80.5 -25.5t-56.5 -75.5h-68l11 841h92q2 -64 19.5 -128.5t48 -127t73.5 -120.5t96 -109t114.5 -92.5t129.5 -70.5t141.5 -44t150.5 -13q81 2 165.5 34.5t154.5 88.5t117 132t53 166q4 72 -27 139.5
t-87 130.5t-132.5 123.5t-164 120l-181 118l-183.5 119t-172 122.5t-146 128q-113 117 -176 257t-63 289q0 64 13 136.5t39.5 148t67 150.5t95.5 143t125 126.5t155 102t186 68t218 24.5zM287 3958h101l644 -492l665 497h104l-496 -793h-578z" />
    <glyph glyph-name="guilsinglright" unicode="&#x203a;" horiz-adv-x="940" 
d="M45 2458h57l786 -1001l-786 -1002h-45l273 1002z" />
    <glyph glyph-name="oe" unicode="&#x153;" horiz-adv-x="4220" 
d="M1798 2947h2207l23 -671h-57q-9 94 -37 185.5t-77 164t-120 117.5t-164 45h-660v-1252h592q61 0 113.5 31.5t92.5 85t66 123.5t35 147h45v-865h-57q-4 77 -33 136.5t-74 100t-100 61.5t-111 21h-569v-910q0 -56 29 -111t75 -98.5t102.5 -71t111.5 -27.5h330
q95 0 182 40.5t157.5 113t118.5 173t66 219.5h56l-45 -715h-2196q-37 -6 -73.5 -15.5t-74.5 -7.5q-209 13 -387 54.5t-327.5 108.5t-270.5 155.5t-216.5 194t-165.5 225.5t-116.5 248.5t-70.5 264t-27 273.5q-4 172 27.5 328t92.5 293t147.5 254t191.5 212.5t225 168.5
t248.5 121t261 71.5t262.5 18.5q43 -2 85.5 -2.5t85.5 -8.5zM1820 2799q-100 -2 -195.5 -27t-184 -71t-167.5 -112t-145.5 -149.5t-119 -184.5t-88.5 -216.5t-53.5 -244.5t-13.5 -269q3 -108 17.5 -224.5t42.5 -233.5t70.5 -231t102 -216.5t137 -190t175.5 -152t217 -102
t262 -39.5q68 -1 137 20t124.5 67.5t90.5 120.5t35 179v1878q0 74 -24.5 146.5t-77.5 129t-137.5 90.5t-204.5 32z" />
    <glyph glyph-name="ydieresis" unicode="&#xff;" horiz-adv-x="3375" 
d="M1491 2947v-57h-91q-27 0 -57 -10t-54.5 -29.5t-38.5 -47t-10 -61.5q4 -32 15.5 -65t30.5 -60l614 -876l455 671q22 32 41 71.5t32.5 79.5t21.5 77.5t8 67.5q0 40 -18.5 74t-53 58t-82.5 37t-108 13v57h1104v-57q-94 -4 -185 -32.5t-170.5 -72.5t-143.5 -99.5
t-105 -114.5l-671 -978v-1229q0 -54 19.5 -109t57.5 -99t96 -71.5t134 -27.5h57v-55h-1376v55h56q54 0 106.5 16t95 52t68.5 95t26 144v1070l-898 1194q-38 50 -78 97t-89 83.5t-111 59t-144 22.5v57h1446zM1208 3168q-55 0 -103 21t-84 57t-56.5 84t-20.5 102
q0 55 20.5 103t56.5 84t84 57t103 21q54 0 102.5 -21t84 -57t56.5 -84t21 -103q0 -54 -21 -102t-56.5 -84t-84 -57t-102.5 -21zM2157 3168q-55 0 -103 21t-84 57t-57 84t-21 102q0 55 21 103t57 84t84 57t103 21q54 0 102 -21t84 -57t57 -84t21 -103q0 -54 -21 -102t-57 -84
t-84 -57t-102 -21z" />
    <glyph glyph-name="ydieresis" unicode="&#x178;" horiz-adv-x="3375" 
d="M1491 2947v-57h-91q-27 0 -57 -10t-54.5 -29.5t-38.5 -47t-10 -61.5q4 -32 15.5 -65t30.5 -60l614 -876l455 671q22 32 41 71.5t32.5 79.5t21.5 77.5t8 67.5q0 40 -18.5 74t-53 58t-82.5 37t-108 13v57h1104v-57q-94 -4 -185 -32.5t-170.5 -72.5t-143.5 -99.5
t-105 -114.5l-671 -978v-1229q0 -54 19.5 -109t57.5 -99t96 -71.5t134 -27.5h57v-55h-1376v55h56q54 0 106.5 16t95 52t68.5 95t26 144v1070l-898 1194q-38 50 -78 97t-89 83.5t-111 59t-144 22.5v57h1446zM1208 3168q-55 0 -103 21t-84 57t-56.5 84t-20.5 102
q0 55 20.5 103t56.5 84t84 57t103 21q54 0 102.5 -21t84 -57t56.5 -84t21 -103q0 -54 -21 -102t-56.5 -84t-84 -57t-102.5 -21zM2157 3168q-55 0 -103 21t-84 57t-57 84t-21 102q0 55 21 103t57 84t84 57t103 21q54 0 102 -21t84 -57t57 -84t21 -103q0 -54 -21 -102t-57 -84
t-84 -57t-102 -21z" />
    <glyph glyph-name="uni00A0" unicode="&#xa0;" horiz-adv-x="1400" 
 />
    <glyph glyph-name="exclamdown" unicode="&#xa1;" horiz-adv-x="985" 
d="M496 -22q-87 3 -160 53.5t-124.5 132t-79 184.5t-23.5 209q9 205 47.5 406t89.5 400.5l106.5 398.5t98.5 399h102q41 -200 96.5 -400.5t105.5 -401t87 -401t41 -401.5q1 -43 -2 -91.5t-11.5 -98.5t-22.5 -98.5t-36 -93t-51.5 -81.5t-68 -64t-87 -40.5t-108.5 -11.5z
M496 2958q66 0 124 -25t101 -68.5t68.5 -101.5t25.5 -124q0 -65 -25.5 -123t-68.5 -101.5t-101 -68.5t-124 -25t-124 25t-101 68.5t-68.5 101.5t-25.5 123q0 66 25.5 124t68.5 101.5t101 68.5t124 25z" />
    <glyph glyph-name="cent" unicode="&#xa2;" horiz-adv-x="2305" 
d="M1296 2026q88 0 168.5 -9.5t165.5 -26.5l157 494l109 -1l-154 -514l112.5 -24.5t115.5 -23.5q6 0 23 9t35 24.5t32 34.5t14 37h60v-741h-60q-20 101 -55.5 185t-83.5 151t-106.5 118.5t-124.5 86.5l-538 -1699q59 -18 127.5 -26t131.5 -8q134 0 237 32t189 85.5
t160.5 123.5l148.5 145v-185q-74 -99 -179 -175t-226.5 -126.5t-252.5 -75.5t-258 -25q-36 1 -74.5 3.5t-72.5 5.5l-154 -502l-147 1l176 519q-114 21 -213 58.5t-182 89t-151 114t-121.5 133.5t-92.5 149t-64 160t-36 165.5t-8 165.5q3 108 25.5 211t63 198.5t99.5 181.5
t135.5 159.5t169.5 133t202 101.5t233.5 64.5t263.5 22.5zM1587 1881q-67 20 -128 30t-125 10q-80 1 -154 -19.5t-140 -59t-122.5 -92.5t-102.5 -120.5t-81 -142.5t-56.5 -158t-29.5 -168t0 -173q9 -114 23.5 -224t54.5 -214t116 -200t208 -183z" />
    <glyph glyph-name="sterling" unicode="&#xa3;" horiz-adv-x="2600" 
d="M1667 2981q105 0 203.5 -15t193 -42t187 -64t187.5 -81l-224 -629l-64 22q8 58 6.5 116.5t-11 115t-28 109t-45 98t-60.5 83t-75 64.5t-88.5 42t-101.5 15q-69 0 -125.5 -23t-102.5 -65t-83 -100t-66 -128t-51.5 -149t-40 -163t-31.5 -170t-26 -170h576v-405h-627
l-180 -853q116 -20 226.5 -43.5l223 -46.5t229 -42.5t243.5 -33.5q82 -8 159 11t149 62t139 107t129 145h43q-12 -104 -40 -193.5t-69.5 -164t-94 -135.5t-113 -108.5t-128 -81.5t-138.5 -56t-143.5 -31.5t-144.5 -8.5q-89 2 -177 12t-176 25.5t-175.5 36l-174.5 42l-174 43
t-174 40t-173.5 32.5t-172.5 21q-28 2 -56 -2.5t-56 -12l-55.5 -15.5t-55.5 -14v73q67 24 119.5 70t93 109t70.5 139t53 161t40.5 176t32.5 183l29 181.5t30 172.5h-346v405h447q20 103 46 206.5t61.5 202.5t81 191.5t105.5 173t135 147t169 114t208 73.5t252 26z" />
    <glyph glyph-name="currency" unicode="&#xa4;" horiz-adv-x="2330" 
d="M1365 2981q87 0 171.5 -15t169 -37.5t171 -48t179.5 -47.5q6 -1 23.5 12t36 35t32.5 48.5t14 52.5h62v-1047h-62q-33 235 -108 404t-177.5 277.5t-225 159t-250.5 47.5q-151 -4 -267.5 -72t-201.5 -189t-138.5 -290t-77.5 -373l1363 1l-107 -293l-1278 1q-1 -18 -1.5 -36
t-0.5 -35q0 -48 1.5 -95.5t2.5 -91.5h1156l-89 -280h-1033q40 -210 116.5 -364.5t178.5 -255.5t223 -150t250 -49q136 0 242 45.5t194 121t164.5 174.5l152.5 205v-261q-76 -141 -184 -248t-232.5 -179t-259 -107t-263.5 -34q-125 1 -236 25t-208.5 68t-181 106t-154 138
t-127.5 164.5t-101.5 186t-76.5 201.5t-52 211l-359 5l117 280l212 -1l-2 117q0 32 2.5 66.5t5.5 67.5h-318l103 287l258 1q51 231 152.5 430.5t250 346.5t341.5 230.5t427 83.5z" />
    <glyph glyph-name="yen" unicode="&#xa5;" 
d="M1491 2947v-57h-91q-27 0 -57 -10t-54.5 -29.5t-38.5 -47t-10 -61.5q4 -32 15.5 -65t30.5 -60l614 -876l455 671q22 32 41 71.5t32.5 79.5t21.5 77.5t8 67.5q0 40 -18.5 74t-53 58t-82.5 37t-108 13v57h1104v-57q-94 -4 -185 -32.5t-171 -73t-143.5 -99.5t-104.5 -114
l-574 -837l999 -2v-168l-1096 -1v-562h1096v-164h-1096v-473q0 -54 19.5 -109t57.5 -99t96 -71.5t134 -27.5h57v-55h-1376v55h56q54 0 106.5 16t95 52t68.5 95t26 144v465h-1089v168h1089v437l-100 133l-993 1v164l868 1l-673 895q-37 50 -77.5 97t-89.5 83.5t-111 59
t-144 22.5v57h1446z" />
    <glyph glyph-name="brokenbar" unicode="&#xa6;" horiz-adv-x="1065" 
d="M372 2981h302v-1569h-302v1569zM372 725h302v-1568h-302v1568z" />
    <glyph glyph-name="section" unicode="&#xa7;" horiz-adv-x="1870" 
d="M1557 2306h-67q-29 121 -81.5 223t-122 174t-153.5 108.5t-178 26.5q-90 -10 -154.5 -45.5t-105 -86t-57 -111.5t-10.5 -122q9 -89 47.5 -166t96 -146.5t130 -133.5l148.5 -126l110 -85.5l111.5 -83.5t108.5 -86.5t100.5 -94t88 -106t70.5 -123t48 -144t21 -169.5
q3 -98 -25 -196t-75.5 -184t-108.5 -153t-123 -102q33 -47 76.5 -101.5t82.5 -114t65.5 -123t24.5 -129.5q-2 -73 -15.5 -145.5t-38.5 -141t-62 -132.5t-86 -118.5t-110 -99t-134 -75t-159 -45t-184 -9.5q-63 2 -131.5 17.5t-134 34l-123.5 35t-99 22.5q-18 3 -36.5 -5
t-34 -21.5t-26.5 -31.5t-13 -35h-57v765h78q5 -77 23 -146t46.5 -129t66 -110.5t81.5 -91.5t92.5 -73t99.5 -53t102.5 -32t101.5 -11q68 0 134.5 36t120 92.5t86.5 125.5t33 137q0 79 -33.5 146.5t-86.5 128.5t-119 118.5l-130 115.5q-61 54 -125.5 105l-129.5 102.5
l-128 105t-119 112t-104 124.5t-83 143t-54.5 166t-19.5 195q0 82 18.5 166t52 163t80.5 150t103 125q-10 39 -25 77.5t-28.5 77.5t-22.5 78.5t-7 79.5q8 193 66 354t155 274t227.5 171t283.5 45q52 -4 103 -14.5t101 -23.5l100.5 -26.5t101.5 -24.5l82 89h52v-683z
M483 1665q-6 -25 -14.5 -50t-16 -50.5t-12.5 -51t-4 -51.5q2 -79 26.5 -147.5t65.5 -129.5t95 -115.5t116.5 -105.5l128.5 -100l131.5 -98.5t125.5 -101.5t110 -108q16 22 31.5 47t28 52.5t20.5 56.5t9 57q2 61 -23 119.5t-69.5 115.5t-104 112.5t-127 110.5l-139.5 109.5
l-140.5 109t-130 109.5t-107.5 110z" />
    <glyph glyph-name="dieresis" unicode="&#xa8;" horiz-adv-x="1365" 
d="M203 3169q-54 0 -102 20.5t-83 56t-55.5 83.5t-20.5 102t20.5 102t55.5 83.5t83 56.5t102 21t102 -21t83.5 -56.5t56.5 -83.5t21 -102t-21 -102t-56.5 -83.5t-83.5 -56t-102 -20.5zM1154 3169q-54 0 -102 20.5t-83.5 56t-56 83.5t-20.5 102t20.5 102t56 83.5t83.5 56.5
t102 21t102 -21t83.5 -56.5t56.5 -83.5t21 -102t-21 -102t-56.5 -83.5t-83.5 -56t-102 -20.5z" />
    <glyph glyph-name="copyright" unicode="&#xa9;" horiz-adv-x="3160" 
d="M1622 2245q61 0 120 -8t118 -20t119.5 -26t125.5 -26q5 -1 17 6.5t25 19t23 26.5t10 28h43v-569h-43q-23 127 -75.5 219.5t-124.5 151.5t-157.5 86.5t-175.5 25.5q-127 -2 -220 -55.5t-153 -146.5t-90 -220t-32 -278q-3 -181 42.5 -313.5t124 -218t181.5 -127t215 -41.5
q96 0 170 24.5t135.5 65.5t114.5 95l107 112v-142q-54 -77 -129 -135.5t-162 -97.5t-181 -58.5t-184 -18.5q-109 1 -202 21t-171 55t-142 83.5t-114.5 107t-86.5 125t-59.5 137t-34 144t-8.5 145.5q5 165 64 314t168 262.5t266 180t356 66.5zM1557 193q129 0 251 25
t233.5 72.5t211.5 115t184.5 152.5t152 185t115.5 211.5t73 233.5t25 251t-25 251t-73 233.5t-115.5 211.5t-152 184.5t-184.5 152.5t-211.5 115.5t-233.5 72.5t-251 25t-251 -25t-233.5 -72.5t-211.5 -115.5t-185 -152.5t-152.5 -184.5t-115 -211.5t-73 -233.5t-25.5 -251
t25.5 -251t73 -233.5t115 -211.5t152.5 -185t185 -152.5t211.5 -115t233.5 -72.5t251 -25zM1557 -22q-151 0 -294 29t-274 84.5t-248.5 135t-217 179t-179 217t-135 248.5t-85 274t-29.5 294t29.5 294t85 274t135 248.5t179 216.5t217 178.5t248.5 135t274 85.5t294 30
t294 -30t274 -85.5t248.5 -135t216.5 -178.5t178.5 -216.5t135 -248.5t85.5 -274t30 -294t-30 -294t-85.5 -274t-135 -248.5t-178.5 -217t-216.5 -179t-248.5 -135t-274 -84.5t-294 -29z" />
    <glyph glyph-name="ordfeminine" unicode="&#xaa;" horiz-adv-x="1660" 
d="M752 2977q44 -1 91 -6t94.5 -15.5t94 -27.5t87.5 -40.5t76.5 -55.5t61 -73.5t40 -93t14.5 -114.5v-582q0 -12 2.5 -27.5t8.5 -28.5t14.5 -21.5t20.5 -6.5q30 4 45.5 32t22.5 70h106q-5 -73 -33.5 -122t-72 -78.5t-98 -41t-110.5 -10.5q-42 1 -83.5 6.5t-81 21t-76 41.5
t-66.5 68q-58 -39 -108 -64.5t-96.5 -40.5t-93.5 -22t-99 -10q-76 -4 -147 20t-126 67.5t-88 101t-33 119.5q0 56 20.5 100.5t56.5 81t85.5 65.5t107.5 52.5t122 42.5t129 36l129.5 32.5t122.5 31.5v72q0 60 -26 99.5t-65.5 63t-86.5 33.5t-89 10q-51 0 -100 -9.5t-94.5 -33
t-85 -62.5t-71.5 -98l-95 26q16 100 75 174.5t141 123.5t176.5 72.5t180.5 20.5zM885 2383q-59 -26 -118 -47.5t-106 -52.5t-76 -78t-29 -124q0 -30 6.5 -64t23 -62.5t44 -47.5t69.5 -19q26 0 49 8.5t45.5 22t45 29.5t46.5 30v405z" />
    <glyph glyph-name="guillemotleft" unicode="&#xab;" horiz-adv-x="1835" 
d="M888 2458l-285 -1001l273 -1002h-45l-786 1002l786 1001h57zM1774 2458l-285 -1001l273 -1002h-45l-786 1002l786 1001h57z" />
    <glyph glyph-name="logicalnot" unicode="&#xac;" horiz-adv-x="2920" 
d="M66 1181h2700v-1180h-208v964h-2492v216z" />
    <glyph glyph-name="uni00AD" unicode="&#xad;" horiz-adv-x="2435" 
d="M207 1638h1101v-349h-1101v349z" />
    <glyph glyph-name="registered" unicode="&#xae;" horiz-adv-x="3160" 
d="M1557 193q129 0 251 25t233.5 72.5t211.5 115t184.5 152.5t152 185t115.5 211.5t73 233.5t25 251t-25 251t-73 233.5t-115.5 211.5t-152 184.5t-184.5 152.5t-211.5 115.5t-233.5 72.5t-251 25t-251 -25t-233.5 -72.5t-211.5 -115.5t-185 -152.5t-152.5 -184.5
t-115 -211.5t-73 -233.5t-25.5 -251t25.5 -251t73 -233.5t115 -211.5t152.5 -185t185 -152.5t211.5 -115t233.5 -72.5t251 -25zM1557 -22q-151 0 -294 29t-274 84.5t-248.5 135t-217 179t-179 217t-135 248.5t-85 274t-29.5 294t29.5 294t85 274t135 248.5t179 216.5
t217 178.5t248.5 135t274 85.5t294 30t294 -30t274 -85.5t248.5 -135t216.5 -178.5t178.5 -216.5t135 -248.5t85.5 -274t30 -294t-30 -294t-85.5 -274t-135 -248.5t-178.5 -217t-216.5 -179t-248.5 -135t-274 -84.5t-294 -29zM769 2232h849q39 0 80.5 -6.5t82.5 -19
t80.5 -31.5t75 -44.5t65 -57t50 -68.5t31 -80.5t8.5 -93.5q-2 -57 -18 -110.5t-50 -99.5t-89 -84t-136 -65q47 -36 85.5 -78.5t71.5 -89.5t62 -97l56 -100l32 -58l36.5 -63.5l40.5 -65t43 -62t45 -55.5t46.5 -44.5t46.5 -29.5t45 -11v-36l-494 -1q-29 43 -57.5 97t-56.5 113
l-56.5 120t-59 118.5t-63.5 107.5t-69.5 88t-78 59.5t-88.5 21.5h-78v-544q0 -29 11.5 -56t32 -48t47.5 -33.5t59 -12.5h36v-30h-724v35h30q29 0 58 7.5t51.5 26t37 48.5t14.5 75v1167q0 40 -14 70.5t-36 50.5t-50 30t-56 10h-35v30zM1301 2148v-652h108q97 0 160 30
t100.5 77t53 105.5t15.5 116.5q1 58 -16 115.5t-55.5 103.5t-100.5 75t-151 29h-114z" />
    <glyph glyph-name="macron" unicode="&#xaf;" horiz-adv-x="2048" 
d="M-22 3470h2081v-205h-2081v205z" />
    <glyph glyph-name="degree" unicode="&#xb0;" horiz-adv-x="1640" 
d="M819 1729q94 0 177 36t145 98t97.5 145t35.5 176q0 94 -35.5 177t-97.5 145t-145 97.5t-177 35.5t-176.5 -35.5t-144.5 -97.5t-98 -145t-36 -177q0 -93 36 -176t98 -145t144.5 -98t176.5 -36zM819 1570q-127 0 -238.5 48.5t-195.5 132t-132 195t-48 238.5t48 239
t132 195.5t195.5 132t238.5 48.5t239 -48.5t195.5 -132t132 -195.5t48.5 -239t-48.5 -238.5t-132 -195t-195.5 -132t-239 -48.5z" />
    <glyph glyph-name="plusminus" unicode="&#xb1;" horiz-adv-x="2250" 
d="M1013 2639h216v-967h967v-216h-967v-1001h-216v1001h-968v216h968v967zM45 228h2151v-228h-2151v228z" />
    <glyph glyph-name="uni00B2" unicode="&#xb2;" horiz-adv-x="1410" 
d="M635 2981q88 0 179.5 -25.5t166.5 -76.5t123 -127t51 -178q1 -69 -17.5 -136t-53.5 -131.5t-82.5 -126.5t-102.5 -121t-116 -113l-122 -104l-119.5 -95l-110.5 -84h653q50 0 92 22t77 56.5t63 76.5t49 82h35l-84 -467h-1326l132.5 112.5l133.5 116l129 119t119 122.5
t104.5 125.5t84.5 129t59.5 132.5t29.5 136q4 40 -17.5 92.5t-64.5 100t-105.5 79t-141.5 29.5q-60 -2 -120 -20.5t-112 -50.5t-93 -74t-62 -91h-42q16 130 76 223t145.5 152.5t187.5 87t202 27.5z" />
    <glyph glyph-name="uni00B3" unicode="&#xb3;" horiz-adv-x="1240" 
d="M516 2986q88 -3 180 -20t169 -59t130.5 -114t63.5 -183q5 -53 -20.5 -102.5t-69.5 -93t-101 -79.5t-116 -60q86 -7 161.5 -40t133 -87t93 -125t40.5 -154q6 -84 -35 -169t-119 -152t-190 -106.5t-249 -32.5q-96 5 -172 19.5t-142 38.5t-126 57t-124 76v108
q102 -68 212.5 -111.5t230.5 -50.5q80 -4 138.5 26.5t96 79t55 107t17.5 110.5q0 49 -19 105.5t-69.5 104.5t-137.5 80t-224 32q-42 0 -96 -6.5t-104 -11.5v108q54 -9 107.5 -9.5t107.5 -2.5q104 -4 172.5 24.5t108.5 75.5t55 105t14 111q-3 84 -22.5 142.5t-53 96t-79.5 55
t-103 17.5q-66 0 -128.5 -24t-113.5 -66t-87 -98.5t-49 -122.5h-29v389h29q5 -9 14 -21t20.5 -21.5t25 -15t26.5 -2.5q16 5 46.5 17.5t77.5 25t110.5 22t143.5 7.5z" />
    <glyph glyph-name="acute" unicode="&#xb4;" horiz-adv-x="1365" 
d="M1331 3960l-1183 -791h-92l456 791h819z" />
    <glyph glyph-name="uni00B5" unicode="&#xb5;" horiz-adv-x="2360" 
d="M250 2037h341v-1468q0 -65 34.5 -130t88.5 -117t121 -84.5t132 -32.5q37 0 76.5 10.5t80 28t80 40.5t75 48.5t66 52t53 50.5t35 44t12.5 33v1536h353v-1638q0 -45 17 -95t46.5 -92t68.5 -70t84 -28t77.5 20.5t58 58t44.5 90t36 116.5h80q-22 -128 -67.5 -216t-109 -143
t-140.5 -83t-161 -35q-68 -7 -134 16.5t-118 73.5t-85.5 127.5t-37.5 179.5l-137.5 -148t-146.5 -126.5t-170 -85t-207 -26.5q-56 2 -109.5 11.5t-104.5 30t-99.5 54.5t-95.5 85q0 -55 6 -111.5t16.5 -112.5t25 -110.5t30.5 -103.5q26 -78 42 -153.5t16 -169.5
q0 -43 -14 -94t-39.5 -94t-61 -71t-78.5 -26q-46 3 -82 34t-62 76.5t-41.5 98.5t-19.5 99q-6 69 12.5 137t43.5 135.5t47 135.5t22 138v2104z" />
    <glyph glyph-name="paragraph" unicode="&#xb6;" horiz-adv-x="1800" 
d="M1820 2936v-342h-227v-3401h-285v3401h-375v-3389h-262v2069q-96 13 -175 40.5t-143.5 67t-114.5 89.5t-88 107.5t-64 120t-42.5 128.5t-24 133.5t-8.5 132.5q0 66 9 137.5t28 142.5t48 140.5t68 132t89 115.5t111.5 91.5t134 60.5t156.5 22z" />
    <glyph glyph-name="periodcentered" unicode="&#xb7;" horiz-adv-x="1365" 
d="M489 1149q-65 0 -123.5 25t-101.5 68.5t-68.5 101.5t-25.5 124t25.5 123.5t68.5 101t101.5 68.5t123.5 25q66 0 124 -25t101 -68.5t68.5 -101t25.5 -123.5t-25.5 -124t-68.5 -101.5t-101 -68.5t-124 -25z" />
    <glyph glyph-name="periodcentered" unicode="&#x2219;" horiz-adv-x="1365" 
d="M489 1149q-65 0 -123.5 25t-101.5 68.5t-68.5 101.5t-25.5 124t25.5 123.5t68.5 101t101.5 68.5t123.5 25q66 0 124 -25t101 -68.5t68.5 -101t25.5 -123.5t-25.5 -124t-68.5 -101.5t-101 -68.5t-124 -25z" />
    <glyph glyph-name="cedilla" unicode="&#xb8;" horiz-adv-x="1365" 
d="M319 -147l204 137q37 2 74 6t74 4q73 0 146 -14t131.5 -49t95.5 -94t37 -149q0 -87 -38.5 -144t-116.5 -90.5t-195.5 -47.5t-275.5 -14q-80 0 -156.5 1.5t-162.5 10.5v136l69.5 -6l67.5 -6q51 -4 112.5 6t114 33t86 59.5t28.5 84.5q-4 46 -33 72t-71.5 38.5t-93.5 17z
" />
    <glyph glyph-name="uni00B9" unicode="&#xb9;" horiz-adv-x="850" 
d="M648 2981v-1359q0 -40 17 -70t45 -49.5t62 -29.5t68 -10h36v-29l-847 -1v30h36q35 0 68 8t59 28.5t42 53t16 81.5v792q0 14 -1 32.5t-8 35t-21.5 27.5t-40.5 11q-40 0 -81.5 -15.5t-68.5 -37.5l-29 29l606 473h42z" />
    <glyph glyph-name="ordmasculine" unicode="&#xba;" horiz-adv-x="2048" 
d="M1024 2879q-53 0 -95 -14.5t-75.5 -39t-58 -58t-42.5 -72t-29.5 -81t-18 -84.5t-9.5 -82t-3 -75q0 -34 2.5 -74t9 -81.5t17.5 -83t28.5 -79.5t42.5 -71t58 -58t76 -39.5t97 -15.5q56 0 99.5 13.5t76.5 37.5t56.5 57t39.5 71.5t25 80t14 83t6.5 81.5t1.5 74q0 35 -1.5 75
t-6.5 82.5t-14 85t-25 81.5t-39.5 73t-56.5 59t-76.5 39.5t-99.5 14.5zM1019 2988q108 0 199 -14.5t167 -42t137 -65.5t108 -83.5t81 -97t56 -106t32.5 -110t10.5 -109.5q0 -53 -10 -107t-30.5 -107t-53.5 -102.5t-79 -94t-105.5 -81.5t-134 -64t-165 -42t-198.5 -16
q-113 -1 -206 13.5t-168 40.5t-133.5 62.5t-103 80.5t-75.5 93t-52 100.5t-31.5 103.5t-14.5 101q-4 54 3.5 110t27 111t52 108t79 100t107 86.5t135.5 68.5t166.5 45.5t198.5 17.5z" />
    <glyph glyph-name="guillemotright" unicode="&#xbb;" horiz-adv-x="1840" 
d="M932 2458h57l785 -1001l-785 -1002h-46l274 1002zM46 2458h57l785 -1001l-785 -1002h-46l274 1002z" />
    <glyph glyph-name="onequarter" unicode="&#xbc;" horiz-adv-x="3415" 
d="M949 2970v-1318q0 -39 12.5 -68t33 -48.5t45.5 -29t49 -9.5h26v-29h-616v29h25q26 0 50 8t43 27.5t30.5 51t11.5 79.5v768q0 14 -1 32t-5.5 33.5t-15 26.5t-30.5 11q-29 0 -59 -15t-49 -37l-21 29l440 459h31zM2685 512h-603v34l734 899h182v-820h336v-107h-336v-387
q0 -27 8.5 -55t26.5 -51t44.5 -37.5t63.5 -14.5h45v-29h-688v29h28q27 0 55.5 9.5t51.5 28t37.5 46t14.5 63.5v392zM2253 625h432v535zM3015 2981l-2184 -3082h-319l2173 3082h330z" />
    <glyph glyph-name="onehalf" unicode="&#xbd;" horiz-adv-x="3415" 
d="M949 2970v-1318q0 -39 12.5 -68t33 -48.5t45.5 -29t49 -9.5h26v-29h-616v29h25q26 0 50 8t43 27.5t30.5 51t11.5 79.5v768q0 14 -1 32t-5.5 33.5t-15 26.5t-30.5 11q-29 0 -59 -15t-49 -37l-21 29l440 459h31zM2947 2981l-2185 -3082h-318l2173 3082h330zM2699 1445
q74 0 149.5 -24.5t137.5 -74t102 -123.5t42 -174q2 -66 -14 -131t-44.5 -127.5t-68 -123t-85 -117t-96 -109.5l-101 -101.5l-99.5 -92l-91 -80.5h541q41 0 76 21t64 54.5t52 74.5t41 79h29l-70 -452h-1100l110.5 109l111 112l106.5 115.5t99 118.5t86.5 122t70 125
t49.5 128.5t25 131.5q3 39 -15 90t-53.5 97t-88 77t-117.5 28q-50 -1 -99.5 -19.5t-92.5 -49t-77 -71.5t-51 -89h-35q13 127 62.5 217t120.5 147.5t156 84.5t167 27z" />
    <glyph glyph-name="threequarters" unicode="&#xbe;" horiz-adv-x="3415" 
d="M2685 512h-603v34l734 899h182v-819h336v-108h-336v-387q0 -26 8.5 -54.5t26.5 -51.5t44.5 -37.5t63.5 -14.5h45v-29h-688v29h28q27 0 55.5 9.5t51.5 28t37.5 46t14.5 63.5v392zM2253 626h432v535zM3015 2981l-2184 -3082h-319l2173 3082h330zM594 2975
q90 -2 183.5 -18.5t172 -57t133 -109.5t65.5 -177q5 -51 -21 -98.5t-71 -89.5t-103 -76.5t-119 -58.5q88 -6 165 -38t136 -84t95 -120.5t41 -148.5q6 -81 -35.5 -163t-121.5 -146.5t-194 -102.5t-253 -31q-98 4 -176 18t-145 37.5t-128 55.5t-127 73v104q104 -65 216.5 -107
t235.5 -49q82 -4 141 25t97.5 76.5t56.5 103.5t18 106q0 47 -19.5 102t-70.5 101t-140 77t-229 31q-43 0 -97.5 -6.5t-106.5 -10.5v103q55 -8 109.5 -8.5t109.5 -2.5q106 -4 176 23.5t110.5 72.5t56 101t14.5 108q-3 80 -22.5 136.5t-54 92.5t-81.5 53t-104 17
q-68 0 -131.5 -23.5t-115.5 -63.5t-89 -94.5t-51 -117.5h-29v374h29q6 -9 15.5 -20t21 -21t25 -15t26.5 -1q16 4 48 16t79.5 24.5t112 21t146.5 6.5z" />
    <glyph glyph-name="questiondown" unicode="&#xbf;" horiz-adv-x="1410" 
d="M774 2989q68 0 128 -26t104.5 -70.5t70.5 -104.5t26 -128t-26 -128t-70.5 -105t-104.5 -71t-128 -26t-128 26t-105 71t-71 105t-26 128t26 128t71 104.5t105 70.5t128 26zM683 -36q-114 3 -226 43.5t-201.5 122t-147 204.5t-62.5 289q-4 132 43 258.5t127.5 248t187 240
l220.5 234.5q44 44 85.5 94.5t76 105t58.5 112.5t33 118q2 19 -3.5 39t-8.5 41h34q30 -39 59 -83t52 -92.5t36.5 -99t11.5 -101.5q-1 -69 -17 -137t-41 -134.5t-57 -130t-66 -124.5l-58.5 -105t-51 -107.5t-36.5 -117t-14 -134.5q0 -54 22.5 -109t63 -99t97 -71.5
t124.5 -27.5q41 0 82 10.5t79 29.5t70.5 46.5t53.5 61.5h23h23q-39 -132 -105.5 -247.5t-154 -200.5t-192.5 -132.5t-220 -44.5z" />
    <glyph glyph-name="Agrave" unicode="&#xc0;" horiz-adv-x="3245" 
d="M1752 2981l887 -2333l36 -95t38.5 -96t44.5 -94t53.5 -87.5t66.5 -77.5t82.5 -64.5t101 -48t124.5 -28.5v-57h-1388v57q68 4 117 17.5t81.5 34t51.5 46.5t26.5 55.5t6.5 61.5t-7.5 63.5t-16.5 62t-20 57.5l-251 648h-887l-228 -670q-18 -55 -21 -113.5t23 -111.5
t87.5 -93.5t172.5 -57.5v-57h-888v57q94 17 168 68.5t131 123t98 155t70 165.5l853 2412h387zM981 1300l726 -3l-376 1001zM910 3948h808l454 -786h-90z" />
    <glyph glyph-name="Agrave" unicode="&#xe0;" horiz-adv-x="3245" 
d="M1752 2981l887 -2333l36 -95t38.5 -96t44.5 -94t53.5 -87.5t66.5 -77.5t82.5 -64.5t101 -48t124.5 -28.5v-57h-1388v57q68 4 117 17.5t81.5 34t51.5 46.5t26.5 55.5t6.5 61.5t-7.5 63.5t-16.5 62t-20 57.5l-251 648h-887l-228 -670q-18 -55 -21 -113.5t23 -111.5
t87.5 -93.5t172.5 -57.5v-57h-888v57q94 17 168 68.5t131 123t98 155t70 165.5l853 2412h387zM981 1300l726 -3l-376 1001zM910 3948h808l454 -786h-90z" />
    <glyph glyph-name="Aacute" unicode="&#xc1;" horiz-adv-x="3245" 
d="M2264 3948l-1172 -786h-89l454 786h807zM1752 2981l887 -2333l36 -95t38.5 -96t44.5 -94t53.5 -87.5t66.5 -77.5t82.5 -64.5t101 -48t124.5 -28.5v-57h-1388v57q68 4 117 17.5t81.5 34t51.5 46.5t26.5 55.5t6.5 61.5t-7.5 63.5t-16.5 62t-20 57.5l-251 648h-887
l-228 -670q-18 -55 -21 -113.5t23 -111.5t87.5 -93.5t172.5 -57.5v-57h-888v57q94 17 168 68.5t131 123t98 155t70 165.5l853 2412h387zM981 1300l726 -3l-376 1001z" />
    <glyph glyph-name="Aacute" unicode="&#xe1;" horiz-adv-x="3245" 
d="M2264 3948l-1172 -786h-89l454 786h807zM1752 2981l887 -2333l36 -95t38.5 -96t44.5 -94t53.5 -87.5t66.5 -77.5t82.5 -64.5t101 -48t124.5 -28.5v-57h-1388v57q68 4 117 17.5t81.5 34t51.5 46.5t26.5 55.5t6.5 61.5t-7.5 63.5t-16.5 62t-20 57.5l-251 648h-887
l-228 -670q-18 -55 -21 -113.5t23 -111.5t87.5 -93.5t172.5 -57.5v-57h-888v57q94 17 168 68.5t131 123t98 155t70 165.5l853 2412h387zM981 1300l726 -3l-376 1001z" />
    <glyph glyph-name="Acircumflex" unicode="&#xc2;" horiz-adv-x="3245" 
d="M1752 2981l887 -2333l36 -95t38.5 -96t44.5 -94t53.5 -87.5t66.5 -77.5t82.5 -64.5t101 -48t124.5 -28.5v-57h-1388v57q68 4 117 17.5t81.5 34t51.5 46.5t26.5 55.5t6.5 61.5t-7.5 63.5t-16.5 62t-20 57.5l-251 648h-887l-228 -670q-18 -55 -21 -113.5t23 -111.5
t87.5 -93.5t172.5 -57.5v-57h-888v57q94 17 168 68.5t131 123t98 155t70 165.5l853 2412h387zM981 1300l726 -3l-376 1001zM1923 3971l456 -797h-103l-649 501l-648 -489h-114l512 785h546z" />
    <glyph glyph-name="Acircumflex" unicode="&#xe2;" horiz-adv-x="3245" 
d="M1752 2981l887 -2333l36 -95t38.5 -96t44.5 -94t53.5 -87.5t66.5 -77.5t82.5 -64.5t101 -48t124.5 -28.5v-57h-1388v57q68 4 117 17.5t81.5 34t51.5 46.5t26.5 55.5t6.5 61.5t-7.5 63.5t-16.5 62t-20 57.5l-251 648h-887l-228 -670q-18 -55 -21 -113.5t23 -111.5
t87.5 -93.5t172.5 -57.5v-57h-888v57q94 17 168 68.5t131 123t98 155t70 165.5l853 2412h387zM981 1300l726 -3l-376 1001zM1923 3971l456 -797h-103l-649 501l-648 -489h-114l512 785h546z" />
    <glyph glyph-name="Atilde" unicode="&#xc3;" horiz-adv-x="3245" 
d="M1752 2981l887 -2333l36 -95t38.5 -96t44.5 -94t53.5 -87.5t66.5 -77.5t82.5 -64.5t101 -48t124.5 -28.5v-57h-1388v57q68 4 117 17.5t81.5 34t51.5 46.5t26.5 55.5t6.5 61.5t-7.5 63.5t-16.5 62t-20 57.5l-251 648h-887l-228 -670q-18 -55 -21 -113.5t23 -111.5
t87.5 -93.5t172.5 -57.5v-57h-888v57q94 17 168 68.5t131 123t98 155t70 165.5l853 2412h387zM981 1300l726 -3l-376 1001zM1286 3755q53 3 105 -3t102.5 -17.5t100.5 -27.5l100.5 -33.5l102.5 -34.5t105 -31t109.5 -23.5t115.5 -11.5q34 -2 65 10.5t57 36t45 58t27 77.5
h114q-9 -132 -46 -239.5t-98 -182t-143 -113t-179 -34.5q-55 2 -113 11t-117.5 21.5t-119.5 27.5t-118 31l-112.5 31.5t-104 28t-92.5 21t-77 10.5t-68.5 -13.5t-63.5 -41.5t-48.5 -59.5t-24.5 -67.5h-103q13 153 59 259.5t112 174t146.5 99.5t161.5 36z" />
    <glyph glyph-name="Atilde" unicode="&#xe3;" horiz-adv-x="3245" 
d="M1752 2981l887 -2333l36 -95t38.5 -96t44.5 -94t53.5 -87.5t66.5 -77.5t82.5 -64.5t101 -48t124.5 -28.5v-57h-1388v57q68 4 117 17.5t81.5 34t51.5 46.5t26.5 55.5t6.5 61.5t-7.5 63.5t-16.5 62t-20 57.5l-251 648h-887l-228 -670q-18 -55 -21 -113.5t23 -111.5
t87.5 -93.5t172.5 -57.5v-57h-888v57q94 17 168 68.5t131 123t98 155t70 165.5l853 2412h387zM981 1300l726 -3l-376 1001zM1286 3755q53 3 105 -3t102.5 -17.5t100.5 -27.5l100.5 -33.5l102.5 -34.5t105 -31t109.5 -23.5t115.5 -11.5q34 -2 65 10.5t57 36t45 58t27 77.5
h114q-9 -132 -46 -239.5t-98 -182t-143 -113t-179 -34.5q-55 2 -113 11t-117.5 21.5t-119.5 27.5t-118 31l-112.5 31.5t-104 28t-92.5 21t-77 10.5t-68.5 -13.5t-63.5 -41.5t-48.5 -59.5t-24.5 -67.5h-103q13 153 59 259.5t112 174t146.5 99.5t161.5 36z" />
    <glyph glyph-name="Adieresis" unicode="&#xc4;" horiz-adv-x="3245" 
d="M1752 2981l887 -2333l36 -95t38.5 -96t44.5 -94t53.5 -87.5t66.5 -77.5t82.5 -64.5t101 -48t124.5 -28.5v-57h-1388v57q68 4 117 17.5t81.5 34t51.5 46.5t26.5 55.5t6.5 61.5t-7.5 63.5t-16.5 62t-20 57.5l-251 648h-887l-228 -670q-18 -55 -21 -113.5t23 -111.5
t87.5 -93.5t172.5 -57.5v-57h-888v57q94 17 168 68.5t131 123t98 155t70 165.5l853 2412h387zM981 1300l726 -3l-376 1001zM1142 3169q-55 0 -102.5 20.5t-83.5 56t-56.5 83.5t-20.5 102t20.5 102t56.5 83.5t83.5 56.5t102.5 21q54 0 101.5 -21t83.5 -56.5t56.5 -83.5
t20.5 -102t-20.5 -102t-56.5 -83.5t-83.5 -56t-101.5 -20.5zM2093 3169q-54 0 -102 20.5t-84 56t-56.5 83.5t-20.5 102t20.5 102t56.5 83.5t84 56.5t102 21t102 -21t83.5 -56.5t56 -83.5t20.5 -102t-20.5 -102t-56 -83.5t-83.5 -56t-102 -20.5z" />
    <glyph glyph-name="Adieresis" unicode="&#xe4;" horiz-adv-x="3245" 
d="M1752 2981l887 -2333l36 -95t38.5 -96t44.5 -94t53.5 -87.5t66.5 -77.5t82.5 -64.5t101 -48t124.5 -28.5v-57h-1388v57q68 4 117 17.5t81.5 34t51.5 46.5t26.5 55.5t6.5 61.5t-7.5 63.5t-16.5 62t-20 57.5l-251 648h-887l-228 -670q-18 -55 -21 -113.5t23 -111.5
t87.5 -93.5t172.5 -57.5v-57h-888v57q94 17 168 68.5t131 123t98 155t70 165.5l853 2412h387zM981 1300l726 -3l-376 1001zM1142 3169q-55 0 -102.5 20.5t-83.5 56t-56.5 83.5t-20.5 102t20.5 102t56.5 83.5t83.5 56.5t102.5 21q54 0 101.5 -21t83.5 -56.5t56.5 -83.5
t20.5 -102t-20.5 -102t-56.5 -83.5t-83.5 -56t-101.5 -20.5zM2093 3169q-54 0 -102 20.5t-84 56t-56.5 83.5t-20.5 102t20.5 102t56.5 83.5t84 56.5t102 21t102 -21t83.5 -56.5t56 -83.5t20.5 -102t-20.5 -102t-56 -83.5t-83.5 -56t-102 -20.5z" />
    <glyph glyph-name="Aring" unicode="&#xc5;" horiz-adv-x="3245" 
d="M1752 2981l887 -2333l36 -95t38.5 -96t44.5 -94t53.5 -87.5t66.5 -77.5t82.5 -64.5t101 -48t124.5 -28.5v-57h-1388v57q68 4 117 17.5t81.5 34t51.5 46.5t26.5 55.5t6.5 61.5t-7.5 63.5t-16.5 62t-20 57.5l-251 648h-887l-228 -670q-18 -55 -21 -113.5t23 -111.5
t87.5 -93.5t172.5 -57.5v-57h-888v57q94 17 168 68.5t131 123t98 155t70 165.5l853 2412h387zM981 1300l726 -3l-376 1001zM1615 3357q50 0 93.5 18.5t76 51t51 76t18.5 92.5q0 50 -18.5 93.5t-51 76t-76 51t-93.5 18.5q-49 0 -92.5 -18.5t-76 -51t-51 -76t-18.5 -93.5
q0 -49 18.5 -92.5t51 -76t76 -51t92.5 -18.5zM1615 3174q-86 0 -163 33.5t-134 90.5t-90.5 134t-33.5 163q0 87 33.5 164t90.5 134t134 90.5t163 33.5q87 0 164 -33.5t134 -90.5t90.5 -134t33.5 -164q0 -86 -33.5 -163t-90.5 -134t-134 -90.5t-164 -33.5z" />
    <glyph glyph-name="Aring" unicode="&#xe5;" horiz-adv-x="3245" 
d="M1752 2981l887 -2333l36 -95t38.5 -96t44.5 -94t53.5 -87.5t66.5 -77.5t82.5 -64.5t101 -48t124.5 -28.5v-57h-1388v57q68 4 117 17.5t81.5 34t51.5 46.5t26.5 55.5t6.5 61.5t-7.5 63.5t-16.5 62t-20 57.5l-251 648h-887l-228 -670q-18 -55 -21 -113.5t23 -111.5
t87.5 -93.5t172.5 -57.5v-57h-888v57q94 17 168 68.5t131 123t98 155t70 165.5l853 2412h387zM981 1300l726 -3l-376 1001zM1615 3357q50 0 93.5 18.5t76 51t51 76t18.5 92.5q0 50 -18.5 93.5t-51 76t-76 51t-93.5 18.5q-49 0 -92.5 -18.5t-76 -51t-51 -76t-18.5 -93.5
q0 -49 18.5 -92.5t51 -76t76 -51t92.5 -18.5zM1615 3174q-86 0 -163 33.5t-134 90.5t-90.5 134t-33.5 163q0 87 33.5 164t90.5 134t134 90.5t163 33.5q87 0 164 -33.5t134 -90.5t90.5 -134t33.5 -164q0 -86 -33.5 -163t-90.5 -134t-134 -90.5t-164 -33.5z" />
    <glyph glyph-name="AE" unicode="&#xc6;" horiz-adv-x="4055" 
d="M1468 2947h2378l22 -671h-57q-8 94 -36 185.5t-77 164t-120 117.5t-165 45h-660v-1252h592q62 0 114.5 31.5t92.5 85t66 123.5t34 147h46l-1 -865h-56q-4 77 -33.5 136.5t-74 100t-100 61.5t-111.5 21h-569v-910q0 -56 29 -111t75 -98.5t103 -71t112 -27.5h330
q94 0 181.5 40.5t157.5 113t118.5 173t65.5 219.5h57l-45 -715h-2196v67h57q68 0 124.5 24t97 66.5t63 101t22.5 127.5v812l-979 -5l-138 -248l-133 -231l-114 -207t-81 -178q-14 -38 -0.5 -83.5t45 -85.5t74 -66.5t86.5 -26.5h68v-57h-899v57l68 11q56 10 105 39.5t92 70.5
t79 90t66 96l193 318l213 361l218.5 379.5l210.5 374l188.5 342.5l153 286.5t103.5 206t40 99.5q2 22 -6 49t-32 52t-67 41.5t-112 16.5h-79v57zM1240 1388h853v1388h-68z" />
    <glyph glyph-name="AE" unicode="&#xe6;" horiz-adv-x="4055" 
d="M1468 2947h2378l22 -671h-57q-8 94 -36 185.5t-77 164t-120 117.5t-165 45h-660v-1252h592q62 0 114.5 31.5t92.5 85t66 123.5t34 147h46l-1 -865h-56q-4 77 -33.5 136.5t-74 100t-100 61.5t-111.5 21h-569v-910q0 -56 29 -111t75 -98.5t103 -71t112 -27.5h330
q94 0 181.5 40.5t157.5 113t118.5 173t65.5 219.5h57l-45 -715h-2196v67h57q68 0 124.5 24t97 66.5t63 101t22.5 127.5v812l-979 -5l-138 -248l-133 -231l-114 -207t-81 -178q-14 -38 -0.5 -83.5t45 -85.5t74 -66.5t86.5 -26.5h68v-57h-899v57l68 11q56 10 105 39.5t92 70.5
t79 90t66 96l193 318l213 361l218.5 379.5l210.5 374l188.5 342.5l153 286.5t103.5 206t40 99.5q2 22 -6 49t-32 52t-67 41.5t-112 16.5h-79v57zM1240 1388h853v1388h-68z" />
    <glyph glyph-name="Ccedilla" unicode="&#xc7;" horiz-adv-x="2945" 
d="M1718 2981q112 0 220 -15t216.5 -37.5l220 -48t230.5 -47.5q9 -1 31 12t45.5 35t42 48.5t18.5 52.5h80v-1047h-80q-43 235 -139 404t-227.5 277.5t-289 159t-322.5 47.5q-235 -4 -405 -101.5t-281 -268.5t-165.5 -405t-59.5 -511q-2 -166 18.5 -310t60.5 -265.5
t97.5 -221.5t129.5 -179t156.5 -137t177.5 -96.5t192.5 -57.5t203.5 -19q175 0 311 45.5t249 121t210.5 174.5l196.5 205v-261q-82 -118 -193 -212t-239.5 -163.5t-269 -114.5t-283.5 -64q-6 -1 -5.5 -5t4.5 -8.5t9.5 -8t9.5 -3.5q42 -5 83 -21t73 -46.5t51.5 -78.5
t19.5 -116q0 -85 -47.5 -143.5t-130 -95t-192 -52.5t-233.5 -16q-85 0 -170.5 8.5t-170.5 14.5v136q31 -3 62.5 -7.5t62.5 -4.5q73 0 135.5 10.5t108 33t71.5 57t26 82.5q0 42 -28.5 68.5t-72 40.5t-96 17t-98.5 -1l186 130q-183 13 -340 55.5t-289 110.5t-240.5 157.5
t-193 194.5t-146.5 223t-101.5 243.5t-57 254.5t-13.5 257q4 151 33.5 296.5t83.5 280.5t131.5 256.5t178 225.5t223 188t266 143t307 91t347.5 32z" />
    <glyph glyph-name="Ccedilla" unicode="&#xe7;" horiz-adv-x="2945" 
d="M1718 2981q112 0 220 -15t216.5 -37.5l220 -48t230.5 -47.5q9 -1 31 12t45.5 35t42 48.5t18.5 52.5h80v-1047h-80q-43 235 -139 404t-227.5 277.5t-289 159t-322.5 47.5q-235 -4 -405 -101.5t-281 -268.5t-165.5 -405t-59.5 -511q-2 -166 18.5 -310t60.5 -265.5
t97.5 -221.5t129.5 -179t156.5 -137t177.5 -96.5t192.5 -57.5t203.5 -19q175 0 311 45.5t249 121t210.5 174.5l196.5 205v-261q-82 -118 -193 -212t-239.5 -163.5t-269 -114.5t-283.5 -64q-6 -1 -5.5 -5t4.5 -8.5t9.5 -8t9.5 -3.5q42 -5 83 -21t73 -46.5t51.5 -78.5
t19.5 -116q0 -85 -47.5 -143.5t-130 -95t-192 -52.5t-233.5 -16q-85 0 -170.5 8.5t-170.5 14.5v136q31 -3 62.5 -7.5t62.5 -4.5q73 0 135.5 10.5t108 33t71.5 57t26 82.5q0 42 -28.5 68.5t-72 40.5t-96 17t-98.5 -1l186 130q-183 13 -340 55.5t-289 110.5t-240.5 157.5
t-193 194.5t-146.5 223t-101.5 243.5t-57 254.5t-13.5 257q4 151 33.5 296.5t83.5 280.5t131.5 256.5t178 225.5t223 188t266 143t307 91t347.5 32z" />
    <glyph glyph-name="Egrave" unicode="&#xc8;" horiz-adv-x="2390" 
d="M57 2947h2105l22 -671h-57q-8 94 -36 185.5t-77 164t-120 117.5t-165 45h-660v-1252h592q62 0 114.5 31.5t92.5 85t66 123.5t35 147h45v-865h-57q-4 77 -33.5 136.5t-74 100t-99.5 61.5t-112 21h-569v-910q0 -56 29.5 -111t75 -98.5t102.5 -71t112 -27.5h330
q94 0 181.5 40.5t157.5 113t118.5 173t65.5 219.5h57l-45 -715h-2196v67h57q68 0 124.5 24t97 66.5t63 101t22.5 127.5v2195q0 50 -15 104t-46 99.5t-78 75t-111 29.5h-114v68zM489 3948h808l454 -786h-90z" />
    <glyph glyph-name="Egrave" unicode="&#xe8;" horiz-adv-x="2390" 
d="M57 2947h2105l22 -671h-57q-8 94 -36 185.5t-77 164t-120 117.5t-165 45h-660v-1252h592q62 0 114.5 31.5t92.5 85t66 123.5t35 147h45v-865h-57q-4 77 -33.5 136.5t-74 100t-99.5 61.5t-112 21h-569v-910q0 -56 29.5 -111t75 -98.5t102.5 -71t112 -27.5h330
q94 0 181.5 40.5t157.5 113t118.5 173t65.5 219.5h57l-45 -715h-2196v67h57q68 0 124.5 24t97 66.5t63 101t22.5 127.5v2195q0 50 -15 104t-46 99.5t-78 75t-111 29.5h-114v68zM489 3948h808l454 -786h-90z" />
    <glyph glyph-name="Eacute" unicode="&#xc9;" horiz-adv-x="2390" 
d="M57 2947h2105l22 -671h-57q-8 94 -36 185.5t-77 164t-120 117.5t-165 45h-660v-1252h592q62 0 114.5 31.5t92.5 85t66 123.5t35 147h45v-865h-57q-4 77 -33.5 136.5t-74 100t-99.5 61.5t-112 21h-569v-910q0 -56 29.5 -111t75 -98.5t102.5 -71t112 -27.5h330
q94 0 181.5 40.5t157.5 113t118.5 173t65.5 219.5h57l-45 -715h-2196v67h57q68 0 124.5 24t97 66.5t63 101t22.5 127.5v2195q0 50 -15 104t-46 99.5t-78 75t-111 29.5h-114v68zM1955 3948l-1171 -786h-90l454 786h807z" />
    <glyph glyph-name="Eacute" unicode="&#xe9;" horiz-adv-x="2390" 
d="M57 2947h2105l22 -671h-57q-8 94 -36 185.5t-77 164t-120 117.5t-165 45h-660v-1252h592q62 0 114.5 31.5t92.5 85t66 123.5t35 147h45v-865h-57q-4 77 -33.5 136.5t-74 100t-99.5 61.5t-112 21h-569v-910q0 -56 29.5 -111t75 -98.5t102.5 -71t112 -27.5h330
q94 0 181.5 40.5t157.5 113t118.5 173t65.5 219.5h57l-45 -715h-2196v67h57q68 0 124.5 24t97 66.5t63 101t22.5 127.5v2195q0 50 -15 104t-46 99.5t-78 75t-111 29.5h-114v68zM1955 3948l-1171 -786h-90l454 786h807z" />
    <glyph glyph-name="Ecircumflex" unicode="&#xca;" horiz-adv-x="2390" 
d="M57 2947h2105l22 -671h-57q-8 94 -36 185.5t-77 164t-120 117.5t-165 45h-660v-1252h592q62 0 114.5 31.5t92.5 85t66 123.5t35 147h45v-865h-57q-4 77 -33.5 136.5t-74 100t-99.5 61.5t-112 21h-569v-910q0 -56 29.5 -111t75 -98.5t102.5 -71t112 -27.5h330
q94 0 181.5 40.5t157.5 113t118.5 173t65.5 219.5h57l-45 -715h-2196v67h57q68 0 124.5 24t97 66.5t63 101t22.5 127.5v2195q0 50 -15 104t-46 99.5t-78 75t-111 29.5h-114v68zM1491 3971l455 -797h-102l-649 501l-649 -489h-113l512 785h546z" />
    <glyph glyph-name="Ecircumflex" unicode="&#xea;" horiz-adv-x="2390" 
d="M57 2947h2105l22 -671h-57q-8 94 -36 185.5t-77 164t-120 117.5t-165 45h-660v-1252h592q62 0 114.5 31.5t92.5 85t66 123.5t35 147h45v-865h-57q-4 77 -33.5 136.5t-74 100t-99.5 61.5t-112 21h-569v-910q0 -56 29.5 -111t75 -98.5t102.5 -71t112 -27.5h330
q94 0 181.5 40.5t157.5 113t118.5 173t65.5 219.5h57l-45 -715h-2196v67h57q68 0 124.5 24t97 66.5t63 101t22.5 127.5v2195q0 50 -15 104t-46 99.5t-78 75t-111 29.5h-114v68zM1491 3971l455 -797h-102l-649 501l-649 -489h-113l512 785h546z" />
    <glyph glyph-name="Edieresis" unicode="&#xcb;" horiz-adv-x="2390" 
d="M57 2947h2105l22 -671h-57q-8 94 -36 185.5t-77 164t-120 117.5t-165 45h-660v-1252h592q62 0 114.5 31.5t92.5 85t66 123.5t35 147h45v-865h-57q-4 77 -33.5 136.5t-74 100t-99.5 61.5t-112 21h-569v-910q0 -56 29.5 -111t75 -98.5t102.5 -71t112 -27.5h330
q94 0 181.5 40.5t157.5 113t118.5 173t65.5 219.5h57l-45 -715h-2196v67h57q68 0 124.5 24t97 66.5t63 101t22.5 127.5v2195q0 50 -15 104t-46 99.5t-78 75t-111 29.5h-114v68zM709 3169q-54 0 -102 20.5t-83.5 56t-56.5 83.5t-21 102t21 102t56.5 83.5t83.5 56.5t102 21
t102 -21t83.5 -56.5t56.5 -83.5t21 -102t-21 -102t-56.5 -83.5t-83.5 -56t-102 -20.5zM1660 3169q-54 0 -102 20.5t-83.5 56t-56 83.5t-20.5 102t20.5 102t56 83.5t83.5 56.5t102 21t102 -21t83.5 -56.5t56.5 -83.5t21 -102t-21 -102t-56.5 -83.5t-83.5 -56t-102 -20.5z" />
    <glyph glyph-name="Edieresis" unicode="&#xeb;" horiz-adv-x="2390" 
d="M57 2947h2105l22 -671h-57q-8 94 -36 185.5t-77 164t-120 117.5t-165 45h-660v-1252h592q62 0 114.5 31.5t92.5 85t66 123.5t35 147h45v-865h-57q-4 77 -33.5 136.5t-74 100t-99.5 61.5t-112 21h-569v-910q0 -56 29.5 -111t75 -98.5t102.5 -71t112 -27.5h330
q94 0 181.5 40.5t157.5 113t118.5 173t65.5 219.5h57l-45 -715h-2196v67h57q68 0 124.5 24t97 66.5t63 101t22.5 127.5v2195q0 50 -15 104t-46 99.5t-78 75t-111 29.5h-114v68zM709 3169q-54 0 -102 20.5t-83.5 56t-56.5 83.5t-21 102t21 102t56.5 83.5t83.5 56.5t102 21
t102 -21t83.5 -56.5t56.5 -83.5t21 -102t-21 -102t-56.5 -83.5t-83.5 -56t-102 -20.5zM1660 3169q-54 0 -102 20.5t-83.5 56t-56 83.5t-20.5 102t20.5 102t56 83.5t83.5 56.5t102 21t102 -21t83.5 -56.5t56.5 -83.5t21 -102t-21 -102t-56.5 -83.5t-83.5 -56t-102 -20.5z" />
    <glyph glyph-name="Igrave" unicode="&#xcc;" horiz-adv-x="1495" 
d="M57 2947h1377v-57h-34q-103 0 -167 -31t-100.5 -80t-50 -110t-13.5 -120v-2196q0 -54 21.5 -107t62 -95t100 -68t135.5 -26h46v-57h-1377v57h34q94 0 157 27.5t101.5 74.5t55 109t16.5 130v2173q0 86 -30 146t-78 99t-106.5 56.5t-115.5 17.5h-34v57zM159 3948h808
l454 -786h-90z" />
    <glyph glyph-name="Igrave" unicode="&#xec;" horiz-adv-x="1495" 
d="M57 2947h1377v-57h-34q-103 0 -167 -31t-100.5 -80t-50 -110t-13.5 -120v-2196q0 -54 21.5 -107t62 -95t100 -68t135.5 -26h46v-57h-1377v57h34q94 0 157 27.5t101.5 74.5t55 109t16.5 130v2173q0 86 -30 146t-78 99t-106.5 56.5t-115.5 17.5h-34v57zM159 3948h808
l454 -786h-90z" />
    <glyph glyph-name="Iacute" unicode="&#xcd;" horiz-adv-x="1495" 
d="M57 2947h1377v-57h-34q-103 0 -167 -31t-100.5 -80t-50 -110t-13.5 -120v-2196q0 -54 21.5 -107t62 -95t100 -68t135.5 -26h46v-57h-1377v57h34q94 0 157 27.5t101.5 74.5t55 109t16.5 130v2173q0 86 -30 146t-78 99t-106.5 56.5t-115.5 17.5h-34v57zM1409 3948
l-1171 -786h-90l454 786h807z" />
    <glyph glyph-name="Iacute" unicode="&#xed;" horiz-adv-x="1495" 
d="M57 2947h1377v-57h-34q-103 0 -167 -31t-100.5 -80t-50 -110t-13.5 -120v-2196q0 -54 21.5 -107t62 -95t100 -68t135.5 -26h46v-57h-1377v57h34q94 0 157 27.5t101.5 74.5t55 109t16.5 130v2173q0 86 -30 146t-78 99t-106.5 56.5t-115.5 17.5h-34v57zM1409 3948
l-1171 -786h-90l454 786h807z" />
    <glyph glyph-name="Icircumflex" unicode="&#xce;" horiz-adv-x="1495" 
d="M57 2947h1377v-57h-34q-103 0 -167 -31t-100.5 -80t-50 -110t-13.5 -120v-2196q0 -54 21.5 -107t62 -95t100 -68t135.5 -26h46v-57h-1377v57h34q94 0 157 27.5t101.5 74.5t55 109t16.5 130v2173q0 86 -30 146t-78 99t-106.5 56.5t-115.5 17.5h-34v57zM1058 3971l456 -797
h-103l-649 501l-648 -489h-114l512 785h546z" />
    <glyph glyph-name="Icircumflex" unicode="&#xee;" horiz-adv-x="1495" 
d="M57 2947h1377v-57h-34q-103 0 -167 -31t-100.5 -80t-50 -110t-13.5 -120v-2196q0 -54 21.5 -107t62 -95t100 -68t135.5 -26h46v-57h-1377v57h34q94 0 157 27.5t101.5 74.5t55 109t16.5 130v2173q0 86 -30 146t-78 99t-106.5 56.5t-115.5 17.5h-34v57zM1058 3971l456 -797
h-103l-649 501l-648 -489h-114l512 785h546z" />
    <glyph glyph-name="Idieresis" unicode="&#xcf;" horiz-adv-x="1495" 
d="M57 2947h1377v-57h-34q-103 0 -167 -31t-100.5 -80t-50 -110t-13.5 -120v-2196q0 -54 21.5 -107t62 -95t100 -68t135.5 -26h46v-57h-1377v57h34q94 0 157 27.5t101.5 74.5t55 109t16.5 130v2173q0 86 -30 146t-78 99t-106.5 56.5t-115.5 17.5h-34v57zM277 3169
q-54 0 -102 20.5t-83.5 56t-56.5 83.5t-21 102t21 102t56.5 83.5t83.5 56.5t102 21t102 -21t83.5 -56.5t56 -83.5t20.5 -102t-20.5 -102t-56 -83.5t-83.5 -56t-102 -20.5zM1228 3169q-54 0 -102 20.5t-83.5 56t-56.5 83.5t-21 102t21 102t56.5 83.5t83.5 56.5t102 21
t102 -21t83.5 -56.5t56.5 -83.5t21 -102t-21 -102t-56.5 -83.5t-83.5 -56t-102 -20.5z" />
    <glyph glyph-name="Idieresis" unicode="&#xef;" horiz-adv-x="1495" 
d="M57 2947h1377v-57h-34q-103 0 -167 -31t-100.5 -80t-50 -110t-13.5 -120v-2196q0 -54 21.5 -107t62 -95t100 -68t135.5 -26h46v-57h-1377v57h34q94 0 157 27.5t101.5 74.5t55 109t16.5 130v2173q0 86 -30 146t-78 99t-106.5 56.5t-115.5 17.5h-34v57zM277 3169
q-54 0 -102 20.5t-83.5 56t-56.5 83.5t-21 102t21 102t56.5 83.5t83.5 56.5t102 21t102 -21t83.5 -56.5t56 -83.5t20.5 -102t-20.5 -102t-56 -83.5t-83.5 -56t-102 -20.5zM1228 3169q-54 0 -102 20.5t-83.5 56t-56.5 83.5t-21 102t21 102t56.5 83.5t83.5 56.5t102 21
t102 -21t83.5 -56.5t56.5 -83.5t21 -102t-21 -102t-56.5 -83.5t-83.5 -56t-102 -20.5z" />
    <glyph glyph-name="Eth" unicode="&#xd0;" horiz-adv-x="3460" 
d="M34 2947h1741q185 0 348.5 -35.5t303.5 -99.5t258 -153t213 -196.5t166.5 -230t120.5 -253t75 -266t28 -268.5q3 -128 -19.5 -258.5t-68 -256t-115 -243t-162 -221t-207.5 -189.5t-251.5 -147.5t-295 -95.5t-337.5 -34h-1787v68h103q50 0 97 29.5t84 74.5t59 99t22 105
v1001h-365v170l365 -1v1037q0 74 -28 131.5t-72.5 96.5t-99 59t-108.5 20h-68v57zM1047 2753v-1206h739v-170h-739v-876q0 -72 26.5 -133.5t83 -107t144.5 -72t212 -29.5q102 -2 202.5 11.5t195 44.5t181 82.5t162 125.5t137 172.5t106 225t70 281.5t27.5 343
q2 126 -17 252.5t-58 246.5t-97.5 231t-137 207.5t-176 175.5t-214 133.5t-251.5 83t-289 24.5q-77 -2 -153.5 -8.5t-153.5 -37.5z" />
    <glyph glyph-name="Eth" unicode="&#xf0;" horiz-adv-x="3460" 
d="M34 2947h1741q185 0 348.5 -35.5t303.5 -99.5t258 -153t213 -196.5t166.5 -230t120.5 -253t75 -266t28 -268.5q3 -128 -19.5 -258.5t-68 -256t-115 -243t-162 -221t-207.5 -189.5t-251.5 -147.5t-295 -95.5t-337.5 -34h-1787v68h103q50 0 97 29.5t84 74.5t59 99t22 105
v1001h-365v170l365 -1v1037q0 74 -28 131.5t-72.5 96.5t-99 59t-108.5 20h-68v57zM1047 2753v-1206h739v-170h-739v-876q0 -72 26.5 -133.5t83 -107t144.5 -72t212 -29.5q102 -2 202.5 11.5t195 44.5t181 82.5t162 125.5t137 172.5t106 225t70 281.5t27.5 343
q2 126 -17 252.5t-58 246.5t-97.5 231t-137 207.5t-176 175.5t-214 133.5t-251.5 83t-289 24.5q-77 -2 -153.5 -8.5t-153.5 -37.5z" />
    <glyph glyph-name="Ntilde" unicode="&#xd1;" horiz-adv-x="3545" 
d="M57 2947h1058l1798 -1889v1423q0 89 -35.5 164t-92.5 129.5t-128 85t-142 30.5h-46v57h1013v-57h-34q-68 0 -130 -32t-109 -86.5t-75 -126.5t-28 -153v-2525h-79l-2139 2263v-1741q0 -25 5 -57t16 -66.5t27.5 -69.5t39 -68t50.5 -62.5t63 -51t75.5 -34t87.5 -12.5h45v-68
h-1047v68h57q65 0 133.5 30t124.5 81t92.5 119t36.5 146l-4 1990l-145.5 142t-144 129t-158 107.5t-185.5 77.5v57zM1434 3755q54 3 105.5 -3t102 -17.5t100.5 -27.5l101 -33.5l102.5 -34.5t105 -31t109.5 -23.5t116 -11.5q33 -2 64 10.5t57 36t45 58t27 77.5h114
q-9 -132 -46 -239.5t-97.5 -182t-142.5 -113t-180 -34.5q-55 2 -113 11t-117.5 21.5t-119 27.5l-117.5 31l-113 31.5t-104.5 28t-92.5 21t-77 10.5t-68.5 -13.5t-63.5 -41.5t-48.5 -59.5t-24.5 -67.5h-102q13 153 58.5 259.5t112 174t146.5 99.5t161 36z" />
    <glyph glyph-name="Ntilde" unicode="&#xf1;" horiz-adv-x="3545" 
d="M57 2947h1058l1798 -1889v1423q0 89 -35.5 164t-92.5 129.5t-128 85t-142 30.5h-46v57h1013v-57h-34q-68 0 -130 -32t-109 -86.5t-75 -126.5t-28 -153v-2525h-79l-2139 2263v-1741q0 -25 5 -57t16 -66.5t27.5 -69.5t39 -68t50.5 -62.5t63 -51t75.5 -34t87.5 -12.5h45v-68
h-1047v68h57q65 0 133.5 30t124.5 81t92.5 119t36.5 146l-4 1990l-145.5 142t-144 129t-158 107.5t-185.5 77.5v57zM1434 3755q54 3 105.5 -3t102 -17.5t100.5 -27.5l101 -33.5l102.5 -34.5t105 -31t109.5 -23.5t116 -11.5q33 -2 64 10.5t57 36t45 58t27 77.5h114
q-9 -132 -46 -239.5t-97.5 -182t-142.5 -113t-180 -34.5q-55 2 -113 11t-117.5 21.5t-119 27.5l-117.5 31l-113 31.5t-104.5 28t-92.5 21t-77 10.5t-68.5 -13.5t-63.5 -41.5t-48.5 -59.5t-24.5 -67.5h-102q13 153 58.5 259.5t112 174t146.5 99.5t161 36z" />
    <glyph glyph-name="Ograve" unicode="&#xd2;" 
d="M1094 3948h807l454 -786h-90zM1672 2981q201 0 373.5 -35.5t318.5 -100t265 -154t213 -197.5t163 -231.5t114.5 -255t67.5 -268.5t21 -271q0 -135 -22.5 -271.5t-68 -268t-114.5 -254.5t-163.5 -231t-214.5 -196.5t-266.5 -151.5t-320.5 -96.5t-377 -31.5q-192 2 -359 38
t-309.5 100.5t-260.5 153t-212 196t-164.5 229t-116.5 251.5t-69 264.5t-22 268.5q0 134 22.5 270.5t67.5 268t114 255t162 231.5t211.5 198t263 154.5t315 100t368.5 35.5zM1672 2822q-130 0 -234.5 -35t-187.5 -97t-145.5 -146t-107.5 -182.5t-75 -207t-48 -219t-25 -218
t-7 -204.5q0 -100 5.5 -213t20.5 -229.5t42 -231.5t70 -219.5t104.5 -193.5t146 -154.5t194 -101.5t247.5 -34q143 2 255 39t197 99.5t146 147.5t103.5 184t68 207.5t39 219t18 218.5t4.5 206q0 99 -6.5 211t-23.5 226.5t-46.5 228t-74 216.5t-107 191.5t-145.5 153
t-189 101.5t-239 37z" />
    <glyph glyph-name="Ograve" unicode="&#xf2;" 
d="M1094 3948h807l454 -786h-90zM1672 2981q201 0 373.5 -35.5t318.5 -100t265 -154t213 -197.5t163 -231.5t114.5 -255t67.5 -268.5t21 -271q0 -135 -22.5 -271.5t-68 -268t-114.5 -254.5t-163.5 -231t-214.5 -196.5t-266.5 -151.5t-320.5 -96.5t-377 -31.5q-192 2 -359 38
t-309.5 100.5t-260.5 153t-212 196t-164.5 229t-116.5 251.5t-69 264.5t-22 268.5q0 134 22.5 270.5t67.5 268t114 255t162 231.5t211.5 198t263 154.5t315 100t368.5 35.5zM1672 2822q-130 0 -234.5 -35t-187.5 -97t-145.5 -146t-107.5 -182.5t-75 -207t-48 -219t-25 -218
t-7 -204.5q0 -100 5.5 -213t20.5 -229.5t42 -231.5t70 -219.5t104.5 -193.5t146 -154.5t194 -101.5t247.5 -34q143 2 255 39t197 99.5t146 147.5t103.5 184t68 207.5t39 219t18 218.5t4.5 206q0 99 -6.5 211t-23.5 226.5t-46.5 228t-74 216.5t-107 191.5t-145.5 153
t-189 101.5t-239 37z" />
    <glyph glyph-name="Oacute" unicode="&#xd3;" 
d="M2320 3948l-1172 -786h-90l454 786h808zM1672 2981q201 0 373.5 -35.5t318.5 -100t265 -154t213 -197.5t163 -231.5t114.5 -255t67.5 -268.5t21 -271q0 -135 -22.5 -271.5t-68 -268t-114.5 -254.5t-163.5 -231t-214.5 -196.5t-266.5 -151.5t-320.5 -96.5t-377 -31.5
q-192 2 -359 38t-309.5 100.5t-260.5 153t-212 196t-164.5 229t-116.5 251.5t-69 264.5t-22 268.5q0 134 22.5 270.5t67.5 268t114 255t162 231.5t211.5 198t263 154.5t315 100t368.5 35.5zM1672 2822q-130 0 -234.5 -35t-187.5 -97t-145.5 -146t-107.5 -182.5t-75 -207
t-48 -219t-25 -218t-7 -204.5q0 -100 5.5 -213t20.5 -229.5t42 -231.5t70 -219.5t104.5 -193.5t146 -154.5t194 -101.5t247.5 -34q143 2 255 39t197 99.5t146 147.5t103.5 184t68 207.5t39 219t18 218.5t4.5 206q0 99 -6.5 211t-23.5 226.5t-46.5 228t-74 216.5t-107 191.5
t-145.5 153t-189 101.5t-239 37z" />
    <glyph glyph-name="Oacute" unicode="&#xf3;" 
d="M2320 3948l-1172 -786h-90l454 786h808zM1672 2981q201 0 373.5 -35.5t318.5 -100t265 -154t213 -197.5t163 -231.5t114.5 -255t67.5 -268.5t21 -271q0 -135 -22.5 -271.5t-68 -268t-114.5 -254.5t-163.5 -231t-214.5 -196.5t-266.5 -151.5t-320.5 -96.5t-377 -31.5
q-192 2 -359 38t-309.5 100.5t-260.5 153t-212 196t-164.5 229t-116.5 251.5t-69 264.5t-22 268.5q0 134 22.5 270.5t67.5 268t114 255t162 231.5t211.5 198t263 154.5t315 100t368.5 35.5zM1672 2822q-130 0 -234.5 -35t-187.5 -97t-145.5 -146t-107.5 -182.5t-75 -207
t-48 -219t-25 -218t-7 -204.5q0 -100 5.5 -213t20.5 -229.5t42 -231.5t70 -219.5t104.5 -193.5t146 -154.5t194 -101.5t247.5 -34q143 2 255 39t197 99.5t146 147.5t103.5 184t68 207.5t39 219t18 218.5t4.5 206q0 99 -6.5 211t-23.5 226.5t-46.5 228t-74 216.5t-107 191.5
t-145.5 153t-189 101.5t-239 37z" />
    <glyph glyph-name="Ocircumflex" unicode="&#xd4;" 
d="M1968 3971l456 -797h-103l-649 501l-648 -489h-114l512 785h546zM1672 2981q201 0 373.5 -35.5t318.5 -100t265 -154t213 -197.5t163 -231.5t114.5 -255t67.5 -268.5t21 -271q0 -135 -22.5 -271.5t-68 -268t-114.5 -254.5t-163.5 -231t-214.5 -196.5t-266.5 -151.5
t-320.5 -96.5t-377 -31.5q-192 2 -359 38t-309.5 100.5t-260.5 153t-212 196t-164.5 229t-116.5 251.5t-69 264.5t-22 268.5q0 134 22.5 270.5t67.5 268t114 255t162 231.5t211.5 198t263 154.5t315 100t368.5 35.5zM1672 2822q-130 0 -234.5 -35t-187.5 -97t-145.5 -146
t-107.5 -182.5t-75 -207t-48 -219t-25 -218t-7 -204.5q0 -100 5.5 -213t20.5 -229.5t42 -231.5t70 -219.5t104.5 -193.5t146 -154.5t194 -101.5t247.5 -34q143 2 255 39t197 99.5t146 147.5t103.5 184t68 207.5t39 219t18 218.5t4.5 206q0 99 -6.5 211t-23.5 226.5
t-46.5 228t-74 216.5t-107 191.5t-145.5 153t-189 101.5t-239 37z" />
    <glyph glyph-name="Ocircumflex" unicode="&#xf4;" 
d="M1968 3971l456 -797h-103l-649 501l-648 -489h-114l512 785h546zM1672 2981q201 0 373.5 -35.5t318.5 -100t265 -154t213 -197.5t163 -231.5t114.5 -255t67.5 -268.5t21 -271q0 -135 -22.5 -271.5t-68 -268t-114.5 -254.5t-163.5 -231t-214.5 -196.5t-266.5 -151.5
t-320.5 -96.5t-377 -31.5q-192 2 -359 38t-309.5 100.5t-260.5 153t-212 196t-164.5 229t-116.5 251.5t-69 264.5t-22 268.5q0 134 22.5 270.5t67.5 268t114 255t162 231.5t211.5 198t263 154.5t315 100t368.5 35.5zM1672 2822q-130 0 -234.5 -35t-187.5 -97t-145.5 -146
t-107.5 -182.5t-75 -207t-48 -219t-25 -218t-7 -204.5q0 -100 5.5 -213t20.5 -229.5t42 -231.5t70 -219.5t104.5 -193.5t146 -154.5t194 -101.5t247.5 -34q143 2 255 39t197 99.5t146 147.5t103.5 184t68 207.5t39 219t18 218.5t4.5 206q0 99 -6.5 211t-23.5 226.5
t-46.5 228t-74 216.5t-107 191.5t-145.5 153t-189 101.5t-239 37z" />
    <glyph glyph-name="Otilde" unicode="&#xd5;" 
d="M1332 3755q53 3 105 -3t102.5 -17.5t100.5 -27.5l100.5 -33.5l102 -34.5t105 -31t110 -23.5t115.5 -11.5q34 -2 65 10.5t56.5 36t44.5 58t28 77.5h114q-9 -132 -46 -239.5t-98 -182t-143 -113t-180 -34.5q-54 2 -112 11t-117.5 21.5t-119.5 27.5t-118 31l-112.5 31.5
t-104 28t-92.5 21t-77 10.5t-68.5 -13.5t-63.5 -41.5t-48.5 -59.5t-24.5 -67.5h-103q13 153 59 259.5t112 174t146.5 99.5t161.5 36zM1672 2981q201 0 373.5 -35.5t318.5 -100t265 -154t213 -197.5t163 -231.5t114.5 -255t67.5 -268.5t21 -271q0 -135 -22.5 -271.5t-68 -268
t-114.5 -254.5t-163.5 -231t-214.5 -196.5t-266.5 -151.5t-320.5 -96.5t-377 -31.5q-192 2 -359 38t-309.5 100.5t-260.5 153t-212 196t-164.5 229t-116.5 251.5t-69 264.5t-22 268.5q0 134 22.5 270.5t67.5 268t114 255t162 231.5t211.5 198t263 154.5t315 100t368.5 35.5z
M1672 2822q-130 0 -234.5 -35t-187.5 -97t-145.5 -146t-107.5 -182.5t-75 -207t-48 -219t-25 -218t-7 -204.5q0 -100 5.5 -213t20.5 -229.5t42 -231.5t70 -219.5t104.5 -193.5t146 -154.5t194 -101.5t247.5 -34q143 2 255 39t197 99.5t146 147.5t103.5 184t68 207.5t39 219
t18 218.5t4.5 206q0 99 -6.5 211t-23.5 226.5t-46.5 228t-74 216.5t-107 191.5t-145.5 153t-189 101.5t-239 37z" />
    <glyph glyph-name="Odieresis" unicode="&#xd6;" 
d="M1672 2981q201 0 373.5 -35.5t318.5 -100t265 -154t213 -197.5t163 -231.5t114.5 -255t67.5 -268.5t21 -271q0 -135 -22.5 -271.5t-68 -268t-114.5 -254.5t-163.5 -231t-214.5 -196.5t-266.5 -151.5t-320.5 -96.5t-377 -31.5q-192 2 -359 38t-309.5 100.5t-260.5 153
t-212 196t-164.5 229t-116.5 251.5t-69 264.5t-22 268.5q0 134 22.5 270.5t67.5 268t114 255t162 231.5t211.5 198t263 154.5t315 100t368.5 35.5zM1672 2822q-130 0 -234.5 -35t-187.5 -97t-145.5 -146t-107.5 -182.5t-75 -207t-48 -219t-25 -218t-7 -204.5
q0 -100 5.5 -213t20.5 -229.5t42 -231.5t70 -219.5t104.5 -193.5t146 -154.5t194 -101.5t247.5 -34q143 2 255 39t197 99.5t146 147.5t103.5 184t68 207.5t39 219t18 218.5t4.5 206q0 99 -6.5 211t-23.5 226.5t-46.5 228t-74 216.5t-107 191.5t-145.5 153t-189 101.5
t-239 37zM1210 3169q-54 0 -102 20.5t-83.5 56t-56.5 83.5t-21 102t21 102t56.5 83.5t83.5 56.5t102 21t102 -21t83.5 -56.5t56.5 -83.5t21 -102t-21 -102t-56.5 -83.5t-83.5 -56t-102 -20.5zM2161 3169q-54 0 -102 20.5t-83.5 56t-56.5 83.5t-21 102t21 102t56.5 83.5
t83.5 56.5t102 21t102 -21t83.5 -56.5t56.5 -83.5t21 -102t-21 -102t-56.5 -83.5t-83.5 -56t-102 -20.5z" />
    <glyph glyph-name="Odieresis" unicode="&#xf6;" 
d="M1672 2981q201 0 373.5 -35.5t318.5 -100t265 -154t213 -197.5t163 -231.5t114.5 -255t67.5 -268.5t21 -271q0 -135 -22.5 -271.5t-68 -268t-114.5 -254.5t-163.5 -231t-214.5 -196.5t-266.5 -151.5t-320.5 -96.5t-377 -31.5q-192 2 -359 38t-309.5 100.5t-260.5 153
t-212 196t-164.5 229t-116.5 251.5t-69 264.5t-22 268.5q0 134 22.5 270.5t67.5 268t114 255t162 231.5t211.5 198t263 154.5t315 100t368.5 35.5zM1672 2822q-130 0 -234.5 -35t-187.5 -97t-145.5 -146t-107.5 -182.5t-75 -207t-48 -219t-25 -218t-7 -204.5
q0 -100 5.5 -213t20.5 -229.5t42 -231.5t70 -219.5t104.5 -193.5t146 -154.5t194 -101.5t247.5 -34q143 2 255 39t197 99.5t146 147.5t103.5 184t68 207.5t39 219t18 218.5t4.5 206q0 99 -6.5 211t-23.5 226.5t-46.5 228t-74 216.5t-107 191.5t-145.5 153t-189 101.5
t-239 37zM1210 3169q-54 0 -102 20.5t-83.5 56t-56.5 83.5t-21 102t21 102t56.5 83.5t83.5 56.5t102 21t102 -21t83.5 -56.5t56.5 -83.5t21 -102t-21 -102t-56.5 -83.5t-83.5 -56t-102 -20.5zM2161 3169q-54 0 -102 20.5t-83.5 56t-56.5 83.5t-21 102t21 102t56.5 83.5
t83.5 56.5t102 21t102 -21t83.5 -56.5t56.5 -83.5t21 -102t-21 -102t-56.5 -83.5t-83.5 -56t-102 -20.5z" />
    <glyph glyph-name="multiply" unicode="&#xd7;" horiz-adv-x="2335" 
d="M489 2230l672 -683l683 682l187 -187l-683 -683l677 -677l-188 -187l-677 677l-665 -665l-182 182l671 671l-683 682z" />
    <glyph glyph-name="Oslash" unicode="&#xd8;" 
d="M1672 2822q-130 0 -234.5 -35t-187.5 -97t-145.5 -146t-107.5 -182.5t-75 -207t-48 -219t-25 -218t-7 -204.5q0 -85 3 -176t12.5 -187t27.5 -195t48 -200l1408 1609q-46 99 -108 182.5t-144 145t-185 96t-232 34.5zM2412 2207l-1411 -1616q45 -94 106.5 -177.5t144 -146
t187 -97.5t233.5 -34q143 2 255 38.5t197 99.5t146 148t103 184t68 207.5t39.5 219t18 218.5t4.5 206q0 80 -4.5 174t-14.5 192t-28 196.5t-44 187.5zM1672 2981q152 0 287.5 -20.5t255.5 -58.5t224.5 -92.5t193.5 -121.5l257 293l125 -114l-256 -286q115 -111 199.5 -243
t140.5 -276t82.5 -295t26.5 -299q0 -135 -22 -271.5t-68 -268t-115 -254.5t-163.5 -230.5t-214.5 -196t-266.5 -152t-320.5 -97t-377 -31.5q-145 1 -276 22.5t-248.5 60t-220.5 93.5t-191 122l-270 -298l-125 112l268 294q-114 110 -198.5 240t-140.5 271.5t-84 289.5
t-27 294q0 134 22.5 270t67.5 268t114 255t162 231.5t211.5 198.5t262.5 154.5t315 100t369 35.5z" />
    <glyph glyph-name="Oslash" unicode="&#xf8;" 
d="M1672 2822q-130 0 -234.5 -35t-187.5 -97t-145.5 -146t-107.5 -182.5t-75 -207t-48 -219t-25 -218t-7 -204.5q0 -85 3 -176t12.5 -187t27.5 -195t48 -200l1408 1609q-46 99 -108 182.5t-144 145t-185 96t-232 34.5zM2412 2207l-1411 -1616q45 -94 106.5 -177.5t144 -146
t187 -97.5t233.5 -34q143 2 255 38.5t197 99.5t146 148t103 184t68 207.5t39.5 219t18 218.5t4.5 206q0 80 -4.5 174t-14.5 192t-28 196.5t-44 187.5zM1672 2981q152 0 287.5 -20.5t255.5 -58.5t224.5 -92.5t193.5 -121.5l257 293l125 -114l-256 -286q115 -111 199.5 -243
t140.5 -276t82.5 -295t26.5 -299q0 -135 -22 -271.5t-68 -268t-115 -254.5t-163.5 -230.5t-214.5 -196t-266.5 -152t-320.5 -97t-377 -31.5q-145 1 -276 22.5t-248.5 60t-220.5 93.5t-191 122l-270 -298l-125 112l268 294q-114 110 -198.5 240t-140.5 271.5t-84 289.5
t-27 294q0 134 22.5 270t67.5 268t114 255t162 231.5t211.5 198.5t262.5 154.5t315 100t369 35.5z" />
    <glyph glyph-name="Ugrave" unicode="&#xd9;" horiz-adv-x="3500" 
d="M11 2947h1376l1 -57h-45q-64 0 -122 -19t-101.5 -56.5t-69.5 -93t-26 -127.5v-1525q0 -89 16 -168.5t44 -148t68 -126t88.5 -104t104 -81.5t115.5 -58t122.5 -33.5t124.5 -8.5q65 2 130 15t127 37t119 59.5t107 83t91 107t70 132t45 157.5t16 183v1479q0 81 -28 137.5
t-72 91.5t-99 51t-108 16h-57v57h1377v-57h-46q-54 0 -109 -14.5t-99 -49.5t-71.5 -94.5t-27.5 -148.5v-2219q0 -85 28 -145.5t77 -99t116 -56.5t143 -18v-45h-1024v557q-85 -157 -196.5 -272t-240 -188t-269 -105t-284.5 -25q-85 4 -175.5 18.5t-180 41.5t-175.5 71
t-163 107t-141.5 147t-111.5 193t-73 245t-26 302v1457q0 98 -28.5 163.5t-73.5 105t-102 56t-115 16.5h-46v57zM1048 3948h808l454 -786h-90z" />
    <glyph glyph-name="Ugrave" unicode="&#xf9;" horiz-adv-x="3500" 
d="M11 2947h1376l1 -57h-45q-64 0 -122 -19t-101.5 -56.5t-69.5 -93t-26 -127.5v-1525q0 -89 16 -168.5t44 -148t68 -126t88.5 -104t104 -81.5t115.5 -58t122.5 -33.5t124.5 -8.5q65 2 130 15t127 37t119 59.5t107 83t91 107t70 132t45 157.5t16 183v1479q0 81 -28 137.5
t-72 91.5t-99 51t-108 16h-57v57h1377v-57h-46q-54 0 -109 -14.5t-99 -49.5t-71.5 -94.5t-27.5 -148.5v-2219q0 -85 28 -145.5t77 -99t116 -56.5t143 -18v-45h-1024v557q-85 -157 -196.5 -272t-240 -188t-269 -105t-284.5 -25q-85 4 -175.5 18.5t-180 41.5t-175.5 71
t-163 107t-141.5 147t-111.5 193t-73 245t-26 302v1457q0 98 -28.5 163.5t-73.5 105t-102 56t-115 16.5h-46v57zM1048 3948h808l454 -786h-90z" />
    <glyph glyph-name="Uacute" unicode="&#xda;" horiz-adv-x="3500" 
d="M11 2947h1376l1 -57h-45q-64 0 -122 -19t-101.5 -56.5t-69.5 -93t-26 -127.5v-1525q0 -89 16 -168.5t44 -148t68 -126t88.5 -104t104 -81.5t115.5 -58t122.5 -33.5t124.5 -8.5q65 2 130 15t127 37t119 59.5t107 83t91 107t70 132t45 157.5t16 183v1479q0 81 -28 137.5
t-72 91.5t-99 51t-108 16h-57v57h1377v-57h-46q-54 0 -109 -14.5t-99 -49.5t-71.5 -94.5t-27.5 -148.5v-2219q0 -85 28 -145.5t77 -99t116 -56.5t143 -18v-45h-1024v557q-85 -157 -196.5 -272t-240 -188t-269 -105t-284.5 -25q-85 4 -175.5 18.5t-180 41.5t-175.5 71
t-163 107t-141.5 147t-111.5 193t-73 245t-26 302v1457q0 98 -28.5 163.5t-73.5 105t-102 56t-115 16.5h-46v57zM2526 3948l-1172 -786h-90l454 786h808z" />
    <glyph glyph-name="Uacute" unicode="&#xfa;" horiz-adv-x="3500" 
d="M11 2947h1376l1 -57h-45q-64 0 -122 -19t-101.5 -56.5t-69.5 -93t-26 -127.5v-1525q0 -89 16 -168.5t44 -148t68 -126t88.5 -104t104 -81.5t115.5 -58t122.5 -33.5t124.5 -8.5q65 2 130 15t127 37t119 59.5t107 83t91 107t70 132t45 157.5t16 183v1479q0 81 -28 137.5
t-72 91.5t-99 51t-108 16h-57v57h1377v-57h-46q-54 0 -109 -14.5t-99 -49.5t-71.5 -94.5t-27.5 -148.5v-2219q0 -85 28 -145.5t77 -99t116 -56.5t143 -18v-45h-1024v557q-85 -157 -196.5 -272t-240 -188t-269 -105t-284.5 -25q-85 4 -175.5 18.5t-180 41.5t-175.5 71
t-163 107t-141.5 147t-111.5 193t-73 245t-26 302v1457q0 98 -28.5 163.5t-73.5 105t-102 56t-115 16.5h-46v57zM2526 3948l-1172 -786h-90l454 786h808z" />
    <glyph glyph-name="Ucircumflex" unicode="&#xdb;" horiz-adv-x="3500" 
d="M11 2947h1376l1 -57h-45q-64 0 -122 -19t-101.5 -56.5t-69.5 -93t-26 -127.5v-1525q0 -89 16 -168.5t44 -148t68 -126t88.5 -104t104 -81.5t115.5 -58t122.5 -33.5t124.5 -8.5q65 2 130 15t127 37t119 59.5t107 83t91 107t70 132t45 157.5t16 183v1479q0 81 -28 137.5
t-72 91.5t-99 51t-108 16h-57v57h1377v-57h-46q-54 0 -109 -14.5t-99 -49.5t-71.5 -94.5t-27.5 -148.5v-2219q0 -85 28 -145.5t77 -99t116 -56.5t143 -18v-45h-1024v557q-85 -157 -196.5 -272t-240 -188t-269 -105t-284.5 -25q-85 4 -175.5 18.5t-180 41.5t-175.5 71
t-163 107t-141.5 147t-111.5 193t-73 245t-26 302v1457q0 98 -28.5 163.5t-73.5 105t-102 56t-115 16.5h-46v57zM2036 3971l456 -797h-103l-649 501l-648 -489h-114l512 785h546z" />
    <glyph glyph-name="Ucircumflex" unicode="&#xfb;" horiz-adv-x="3500" 
d="M11 2947h1376l1 -57h-45q-64 0 -122 -19t-101.5 -56.5t-69.5 -93t-26 -127.5v-1525q0 -89 16 -168.5t44 -148t68 -126t88.5 -104t104 -81.5t115.5 -58t122.5 -33.5t124.5 -8.5q65 2 130 15t127 37t119 59.5t107 83t91 107t70 132t45 157.5t16 183v1479q0 81 -28 137.5
t-72 91.5t-99 51t-108 16h-57v57h1377v-57h-46q-54 0 -109 -14.5t-99 -49.5t-71.5 -94.5t-27.5 -148.5v-2219q0 -85 28 -145.5t77 -99t116 -56.5t143 -18v-45h-1024v557q-85 -157 -196.5 -272t-240 -188t-269 -105t-284.5 -25q-85 4 -175.5 18.5t-180 41.5t-175.5 71
t-163 107t-141.5 147t-111.5 193t-73 245t-26 302v1457q0 98 -28.5 163.5t-73.5 105t-102 56t-115 16.5h-46v57zM2036 3971l456 -797h-103l-649 501l-648 -489h-114l512 785h546z" />
    <glyph glyph-name="Udieresis" unicode="&#xdc;" horiz-adv-x="3500" 
d="M11 2947h1376l1 -57h-45q-64 0 -122 -19t-101.5 -56.5t-69.5 -93t-26 -127.5v-1525q0 -89 16 -168.5t44 -148t68 -126t88.5 -104t104 -81.5t115.5 -58t122.5 -33.5t124.5 -8.5q65 2 130 15t127 37t119 59.5t107 83t91 107t70 132t45 157.5t16 183v1479q0 81 -28 137.5
t-72 91.5t-99 51t-108 16h-57v57h1377v-57h-46q-54 0 -109 -14.5t-99 -49.5t-71.5 -94.5t-27.5 -148.5v-2219q0 -85 28 -145.5t77 -99t116 -56.5t143 -18v-45h-1024v557q-85 -157 -196.5 -272t-240 -188t-269 -105t-284.5 -25q-85 4 -175.5 18.5t-180 41.5t-175.5 71
t-163 107t-141.5 147t-111.5 193t-73 245t-26 302v1457q0 98 -28.5 163.5t-73.5 105t-102 56t-115 16.5h-46v57zM1278 3169q-54 0 -102 20.5t-83.5 56t-56.5 83.5t-21 102t21 102t56.5 83.5t83.5 56.5t102 21t102 -21t83.5 -56.5t56.5 -83.5t21 -102t-21 -102t-56.5 -83.5
t-83.5 -56t-102 -20.5zM2229 3169q-54 0 -102 20.5t-83.5 56t-56.5 83.5t-21 102t21 102t56.5 83.5t83.5 56.5t102 21t102 -21t83.5 -56.5t56.5 -83.5t21 -102t-21 -102t-56.5 -83.5t-83.5 -56t-102 -20.5z" />
    <glyph glyph-name="Udieresis" unicode="&#xfc;" horiz-adv-x="3500" 
d="M11 2947h1376l1 -57h-45q-64 0 -122 -19t-101.5 -56.5t-69.5 -93t-26 -127.5v-1525q0 -89 16 -168.5t44 -148t68 -126t88.5 -104t104 -81.5t115.5 -58t122.5 -33.5t124.5 -8.5q65 2 130 15t127 37t119 59.5t107 83t91 107t70 132t45 157.5t16 183v1479q0 81 -28 137.5
t-72 91.5t-99 51t-108 16h-57v57h1377v-57h-46q-54 0 -109 -14.5t-99 -49.5t-71.5 -94.5t-27.5 -148.5v-2219q0 -85 28 -145.5t77 -99t116 -56.5t143 -18v-45h-1024v557q-85 -157 -196.5 -272t-240 -188t-269 -105t-284.5 -25q-85 4 -175.5 18.5t-180 41.5t-175.5 71
t-163 107t-141.5 147t-111.5 193t-73 245t-26 302v1457q0 98 -28.5 163.5t-73.5 105t-102 56t-115 16.5h-46v57zM1278 3169q-54 0 -102 20.5t-83.5 56t-56.5 83.5t-21 102t21 102t56.5 83.5t83.5 56.5t102 21t102 -21t83.5 -56.5t56.5 -83.5t21 -102t-21 -102t-56.5 -83.5
t-83.5 -56t-102 -20.5zM2229 3169q-54 0 -102 20.5t-83.5 56t-56.5 83.5t-21 102t21 102t56.5 83.5t83.5 56.5t102 21t102 -21t83.5 -56.5t56.5 -83.5t21 -102t-21 -102t-56.5 -83.5t-83.5 -56t-102 -20.5z" />
    <glyph glyph-name="Yacute" unicode="&#xdd;" 
d="M1491 2947v-57h-91q-27 0 -57 -10t-54.5 -29.5t-38.5 -47t-10 -61.5q4 -32 15.5 -65t30.5 -60l614 -876l455 671q22 32 41 71.5t32.5 79.5t21.5 77.5t8 67.5q0 40 -18.5 74t-53 58t-82.5 37t-108 13v57h1104v-57q-94 -4 -185 -32.5t-170.5 -72.5t-143.5 -99.5
t-105 -114.5l-671 -978v-1229q0 -54 19.5 -109t57.5 -99t96 -71.5t134 -27.5h57v-55h-1376v55h56q54 0 106.5 16t95 52t68.5 95t26 144v1070l-898 1194q-38 50 -78 97t-89 83.5t-111 59t-144 22.5v57h1446zM2458 3948l-1172 -786h-90l454 786h808z" />
    <glyph glyph-name="Yacute" unicode="&#xfd;" 
d="M1491 2947v-57h-91q-27 0 -57 -10t-54.5 -29.5t-38.5 -47t-10 -61.5q4 -32 15.5 -65t30.5 -60l614 -876l455 671q22 32 41 71.5t32.5 79.5t21.5 77.5t8 67.5q0 40 -18.5 74t-53 58t-82.5 37t-108 13v57h1104v-57q-94 -4 -185 -32.5t-170.5 -72.5t-143.5 -99.5
t-105 -114.5l-671 -978v-1229q0 -54 19.5 -109t57.5 -99t96 -71.5t134 -27.5h57v-55h-1376v55h56q54 0 106.5 16t95 52t68.5 95t26 144v1070l-898 1194q-38 50 -78 97t-89 83.5t-111 59t-144 22.5v57h1446zM2458 3948l-1172 -786h-90l454 786h808z" />
    <glyph glyph-name="Thorn" unicode="&#xde;" horiz-adv-x="2600" 
d="M34 2947h1377v-57h-34q-64 0 -123.5 -18.5t-105.5 -54t-73.5 -86t-27.5 -114.5v-330h637q102 0 191 -19t165 -53t139 -81.5t113.5 -105t87.5 -123.5t62 -136.5t37.5 -143.5t12.5 -146q0 -74 -15 -149.5t-45.5 -148t-78 -140t-112.5 -127t-148.5 -108.5t-186.5 -84
t-226.5 -54.5t-268.5 -19.5q-92 0 -182.5 13t-181.5 22v-273q0 -18 1.5 -42t7 -52t15.5 -58t27 -59t42 -54.5t60 -45t81.5 -31t106.5 -11.5h46l3 -56h-1403v55h45q64 0 120.5 18.5t98 54.5t65.5 86.5t24 114.5v2253q0 85 -29.5 144t-75 95t-102 52t-112.5 16h-34v57z
M1047 2105v-1263q51 -17 107.5 -18.5t108.5 -4.5q72 -4 136.5 11t119.5 44.5t101.5 72.5t84 95t66 110t47.5 119t28 122.5t9 119.5q-1 55 -10.5 110.5t-29 109.5t-48 105t-67 95.5t-86.5 81t-105.5 62.5t-124.5 39.5t-144 11.5q-48 -1 -96.5 -9t-96.5 -14z" />
    <glyph glyph-name="Thorn" unicode="&#xfe;" horiz-adv-x="2600" 
d="M34 2947h1377v-57h-34q-64 0 -123.5 -18.5t-105.5 -54t-73.5 -86t-27.5 -114.5v-330h637q102 0 191 -19t165 -53t139 -81.5t113.5 -105t87.5 -123.5t62 -136.5t37.5 -143.5t12.5 -146q0 -74 -15 -149.5t-45.5 -148t-78 -140t-112.5 -127t-148.5 -108.5t-186.5 -84
t-226.5 -54.5t-268.5 -19.5q-92 0 -182.5 13t-181.5 22v-273q0 -18 1.5 -42t7 -52t15.5 -58t27 -59t42 -54.5t60 -45t81.5 -31t106.5 -11.5h46l3 -56h-1403v55h45q64 0 120.5 18.5t98 54.5t65.5 86.5t24 114.5v2253q0 85 -29.5 144t-75 95t-102 52t-112.5 16h-34v57z
M1047 2105v-1263q51 -17 107.5 -18.5t108.5 -4.5q72 -4 136.5 11t119.5 44.5t101.5 72.5t84 95t66 110t47.5 119t28 122.5t9 119.5q-1 55 -10.5 110.5t-29 109.5t-48 105t-67 95.5t-86.5 81t-105.5 62.5t-124.5 39.5t-144 11.5q-48 -1 -96.5 -9t-96.5 -14z" />
    <glyph glyph-name="Thorn" unicode="&#xf5;" horiz-adv-x="2600" 
d="M34 2947h1377v-57h-34q-64 0 -123.5 -18.5t-105.5 -54t-73.5 -86t-27.5 -114.5v-330h637q102 0 191 -19t165 -53t139 -81.5t113.5 -105t87.5 -123.5t62 -136.5t37.5 -143.5t12.5 -146q0 -74 -15 -149.5t-45.5 -148t-78 -140t-112.5 -127t-148.5 -108.5t-186.5 -84
t-226.5 -54.5t-268.5 -19.5q-92 0 -182.5 13t-181.5 22v-273q0 -18 1.5 -42t7 -52t15.5 -58t27 -59t42 -54.5t60 -45t81.5 -31t106.5 -11.5h46l3 -56h-1403v55h45q64 0 120.5 18.5t98 54.5t65.5 86.5t24 114.5v2253q0 85 -29.5 144t-75 95t-102 52t-112.5 16h-34v57z
M1047 2105v-1263q51 -17 107.5 -18.5t108.5 -4.5q72 -4 136.5 11t119.5 44.5t101.5 72.5t84 95t66 110t47.5 119t28 122.5t9 119.5q-1 55 -10.5 110.5t-29 109.5t-48 105t-67 95.5t-86.5 81t-105.5 62.5t-124.5 39.5t-144 11.5q-48 -1 -96.5 -9t-96.5 -14z" />
    <glyph glyph-name="germandbls" unicode="&#xdf;" horiz-adv-x="2685" 
d="M-10 0v57h78q43 0 89 18t84.5 48t63.5 69t25 81v1968q0 101 29 185t80.5 152.5t121.5 123.5t152 97t172.5 71.5t182.5 49t182.5 28.5t171.5 10t169.5 -5.5t178 -22.5t177 -42.5t166.5 -66t146.5 -92.5t116.5 -123.5t77 -158t28 -194.5q0 -58 -17 -108t-45.5 -93
t-67.5 -79t-84 -65.5t-93.5 -52t-96.5 -39t-93 -27t-84 -14.5q205 -39 349.5 -129.5t234.5 -213.5t127.5 -267t27.5 -289q-4 -77 -17.5 -156.5t-38 -156.5t-60 -149.5t-85.5 -137t-113.5 -118.5t-144 -93.5t-178.5 -62t-216 -24.5q-36 0 -76.5 3.5t-82 11t-83 20.5t-80 31.5
t-72 42t-60.5 53.5t-45 66t-24 78q-7 44 9.5 85t51 74t86 54.5t115.5 25.5q40 3 81 -9t75.5 -36.5t59.5 -59t34 -77.5q4 -20 0 -38.5t-9.5 -36.5t-7.5 -36t6 -37t22.5 -37t33 -31.5t39.5 -20t41 -2.5q25 5 49.5 19.5t44.5 35t32 44.5t11 49q-4 66 -31 128t-58 122.5
t-56.5 122.5t-25.5 128v535q0 73 -15 143t-62 124t-134.5 86.5t-232.5 32.5v138q64 -13 123.5 5t105.5 55t73.5 87.5t27.5 101.5v353q0 128 -30.5 203t-80.5 114.5t-113 52.5t-128 17q-62 3 -124 -15t-111.5 -60t-81 -109.5t-31.5 -163.5v-2451h-1062z" />
    <glyph glyph-name="divide" unicode="&#xf7;" horiz-adv-x="2250" 
d="M1092 1423q-46 0 -87.5 18t-72.5 48.5t-49 72t-18 88.5t18 88t49 72t72.5 49t87.5 18q47 0 88.5 -18t72.5 -49t49 -72t18 -88t-18 -88.5t-49 -72t-72.5 -48.5t-88.5 -18zM1092 296q-46 0 -87.5 18t-72.5 49t-49 72t-18 88t18 88t49 72t72.5 49t87.5 18q47 0 88.5 -18
t72.5 -49t49 -72t18 -88t-18 -88t-49 -72t-72.5 -49t-88.5 -18zM34 1195h2150v-228h-2150v228z" />
  </font>
</defs>
</svg>
